SplineFontDB: 3.2
FontName: ForDrawingTitles-Light
FullName: For Drawing Titles
FamilyName: For Drawing Titles
Weight: Light
Copyright: Karlis Kalviskis, 2024.\nThis Font Software is licensed under the SIL Open Font License.\nThis font was inspired by\n"Archistico",\n"Fredericka the Great" and\n"Gravitas One" fonts.
UComments: "This font was inspired by +IB4A-Archistico+IB0A, +IB4A-Fredericka the Great+IB0A and +IB4A-Gravitas One+IB0A fonts."
Version: 1
ItalicAngle: 0
UnderlinePosition: -120
UnderlineWidth: 112
Ascent: 1638
Descent: 410
InvalidEm: 0
sfntRevision: 0x00010000
LayerCount: 2
Layer: 0 1 "Back" 1
Layer: 1 1 "Fore" 0
XUID: [1021 649 293428461 14757695]
FSType: 0
OS2Version: 3
OS2_WeightWidthSlopeOnly: 0
OS2_UseTypoMetrics: 0
CreationTime: 1305819720
ModificationTime: 1737281534
PfmFamily: 17
TTFWeight: 300
TTFWidth: 5
LineGap: 0
VLineGap: 0
OS2TypoAscent: 1938
OS2TypoAOffset: 0
OS2TypoDescent: -668
OS2TypoDOffset: 0
OS2TypoLinegap: 0
OS2WinAscent: 1938
OS2WinAOffset: 0
OS2WinDescent: 668
OS2WinDOffset: 0
HheadAscent: 1938
HheadAOffset: 0
HheadDescent: -668
HheadDOffset: 0
OS2SubXSize: 1434
OS2SubYSize: 1332
OS2SubXOff: 0
OS2SubYOff: 286
OS2SupXSize: 1434
OS2SupYSize: 1332
OS2SupXOff: 0
OS2SupYOff: 976
OS2StrikeYSize: 114
OS2StrikeYPos: 688
OS2CapHeight: 1418
OS2XHeight: 1112
OS2FamilyClass: 256
OS2Vendor: '    '
OS2CodePages: 00000000.00000000
OS2UnicodeRanges: 8000000f.00000002.00000020.00000000
MarkAttachClasses: 1
DEI: 91125
TtTable: prep
PUSHW_1
 511
SCANCTRL
PUSHB_1
 4
SCANTYPE
EndTTInstrs
ShortTable: maxp 16
  1
  0
  238
  129
  5
  0
  0
  1
  0
  0
  0
  0
  0
  0
  0
  0
EndShort
LangName: 1033 "" "" "" "" "" "" "" "" "" "K+AQEA-rlis Kalvi+AWEA-kis" "" "" "" "This Font Software is licensed under+AAoA-the SIL Open Font License, Version 1.1. " "http://scripts.sil.org/OFL"
GaspTable: 1 65535 3 0
Encoding: UnicodeFull
Compacted: 1
UnicodeInterp: none
NameList: Adobe Glyph List
DisplaySize: -48
AntiAlias: 1
FitToEm: 0
WidthSeparation: 307

StartChar: numbersign
Encoding: 35 35 3
Width: 1542
GlyphClass: 2
Flags: W
LayerCount: 2
Back
SplineSet
410 422 m 5,0,-1
 150 422 l 5,1,-1
 150 544 l 5,2,-1
 442 544 l 5,3,-1
 528 860 l 5,4,-1
 150 860 l 5,5,-1
 150 986 l 5,6,-1
 562 986 l 5,7,-1
 678 1418 l 5,8,-1
 794 1418 l 5,9,-1
 680 986 l 5,10,-1
 1054 986 l 5,11,-1
 1172 1418 l 5,12,-1
 1288 1418 l 5,13,-1
 1174 986 l 5,14,-1
 1392 986 l 5,15,-1
 1392 860 l 5,16,-1
 1140 860 l 5,17,-1
 1054 544 l 5,18,-1
 1392 544 l 5,19,-1
 1392 422 l 5,20,-1
 1022 422 l 5,21,-1
 910 0 l 5,22,-1
 790 0 l 5,23,-1
 904 422 l 5,24,-1
 528 422 l 5,25,-1
 416 0 l 5,26,-1
 296 0 l 5,27,-1
 410 422 l 5,0,-1
938 544 m 5,28,-1
 1022 860 l 5,29,-1
 646 860 l 5,30,-1
 562 544 l 5,31,-1
 938 544 l 5,28,-1
EndSplineSet
Fore
SplineSet
410 447 m 2,0,1
 420 447 420 447 427.5 439.5 c 128,-1,2
 435 432 435 432 435 425.5 c 128,-1,3
 435 419 435 419 434 415 c 2,4,-1
 329 25 l 1,5,-1
 397 25 l 1,6,-1
 504 428 l 1,7,8
 510 447 510 447 528 447 c 2,9,-1
 904 447 l 2,10,11
 914 447 914 447 921.5 439.5 c 128,-1,12
 929 432 929 432 929 425.5 c 128,-1,13
 929 419 929 419 928 415 c 2,14,-1
 823 25 l 1,15,-1
 891 25 l 1,16,-1
 998 428 l 1,17,18
 1004 447 1004 447 1022 447 c 2,19,-1
 1367 447 l 1,20,-1
 1367 519 l 1,21,-1
 1054 519 l 2,22,23
 1044 519 1044 519 1036.5 526.5 c 128,-1,24
 1029 534 1029 534 1029 540.5 c 128,-1,25
 1029 547 1029 547 1030 551 c 2,26,-1
 1116 867 l 1,27,28
 1122 885 1122 885 1140 885 c 2,29,-1
 1367 885 l 1,30,-1
 1367 961 l 1,31,-1
 1174 961 l 2,32,33
 1164 961 1164 961 1156.5 968.5 c 128,-1,34
 1149 976 1149 976 1149 982 c 128,-1,35
 1149 988 1149 988 1150 992 c 2,36,-1
 1256 1393 l 1,37,-1
 1191 1393 l 1,38,-1
 1078 979 l 1,39,40
 1072 961 1072 961 1054 961 c 2,41,-1
 680 961 l 2,42,43
 670 961 670 961 662.5 968.5 c 128,-1,44
 655 976 655 976 655 982 c 128,-1,45
 655 988 655 988 656 992 c 2,46,-1
 762 1393 l 1,47,-1
 697 1393 l 1,48,-1
 586 979 l 1,49,50
 580 961 580 961 562 961 c 2,51,-1
 175 961 l 1,52,-1
 175 885 l 1,53,-1
 528 885 l 2,54,55
 538 885 538 885 545.5 877.5 c 128,-1,56
 553 870 553 870 553 863.5 c 128,-1,57
 553 857 553 857 552 853 c 2,58,-1
 466 537 l 1,59,60
 460 519 460 519 442 519 c 2,61,-1
 175 519 l 1,62,-1
 175 447 l 1,63,-1
 410 447 l 2,0,1
938 519 m 2,64,-1
 562 519 l 2,65,66
 552 519 552 519 544.5 526.5 c 128,-1,67
 537 534 537 534 537 540 c 128,-1,68
 537 546 537 546 538 550 c 2,69,-1
 622 866 l 1,70,71
 628 885 628 885 646 885 c 2,72,-1
 1022 885 l 2,73,74
 1032 885 1032 885 1039.5 877.5 c 128,-1,75
 1047 870 1047 870 1047 864 c 128,-1,76
 1047 858 1047 858 1046 854 c 2,77,-1
 962 538 l 1,78,79
 956 519 956 519 938 519 c 2,64,-1
938 544 m 1,80,-1
 1022 860 l 1,81,-1
 646 860 l 1,82,-1
 562 544 l 1,83,-1
 938 544 l 1,80,-1
410 422 m 1,84,-1
 150 422 l 1,85,-1
 150 544 l 1,86,-1
 442 544 l 1,87,-1
 528 860 l 1,88,-1
 150 860 l 1,89,-1
 150 986 l 1,90,-1
 562 986 l 1,91,-1
 678 1418 l 1,92,-1
 794 1418 l 1,93,-1
 680 986 l 1,94,-1
 1054 986 l 1,95,-1
 1172 1418 l 1,96,-1
 1288 1418 l 1,97,-1
 1174 986 l 1,98,-1
 1392 986 l 1,99,-1
 1392 860 l 1,100,-1
 1140 860 l 1,101,-1
 1054 544 l 1,102,-1
 1392 544 l 1,103,-1
 1392 422 l 1,104,-1
 1022 422 l 1,105,-1
 910 0 l 1,106,-1
 790 0 l 1,107,-1
 904 422 l 1,108,-1
 528 422 l 1,109,-1
 416 0 l 1,110,-1
 296 0 l 1,111,-1
 410 422 l 1,84,-1
EndSplineSet
Validated: 1
EndChar

StartChar: percent
Encoding: 37 37 5
Width: 1282
GlyphClass: 2
Flags: W
LayerCount: 2
Back
SplineSet
348 718 m 260,0,1
 270 718 270 718 217 751 c 132,-1,2
 164 784 164 784 131 838 c 132,-1,3
 98 892 98 892 84 958 c 132,-1,4
 70 1024 70 1024 70 1088 c 260,5,6
 70 1152 70 1152 84 1217 c 132,-1,7
 98 1282 98 1282 131 1335 c 132,-1,8
 164 1388 164 1388 217 1421 c 132,-1,9
 270 1454 270 1454 348 1454 c 260,10,11
 426 1454 426 1454 480 1421 c 132,-1,12
 534 1388 534 1388 567 1335 c 132,-1,13
 600 1282 600 1282 614 1216 c 132,-1,14
 628 1150 628 1150 628 1088 c 260,15,16
 628 1024 628 1024 614 958 c 132,-1,17
 600 892 600 892 567 838 c 132,-1,18
 534 784 534 784 480 751 c 132,-1,19
 426 718 426 718 348 718 c 260,0,1
1084 1412 m 5,20,-1
 1138 1332 l 5,21,-1
 208 22 l 5,22,-1
 154 100 l 5,23,-1
 1084 1412 l 5,20,-1
348 786 m 132,-1,25
 378 786 378 786 395 812 c 132,-1,26
 412 838 412 838 419 880 c 132,-1,27
 426 922 426 922 427 975 c 132,-1,28
 428 1028 428 1028 428 1088 c 4,29,30
 428 1146 428 1146 427 1199 c 132,-1,31
 426 1252 426 1252 419 1294 c 132,-1,32
 412 1336 412 1336 395 1361 c 132,-1,33
 378 1386 378 1386 348 1386 c 132,-1,35
 318 1386 318 1386 302 1361 c 132,-1,36
 286 1336 286 1336 278 1294 c 132,-1,37
 270 1252 270 1252 269 1198 c 132,-1,38
 268 1144 268 1144 268 1088 c 4,39,40
 268 1030 268 1030 269 976 c 132,-1,41
 270 922 270 922 278 880 c 132,-1,42
 286 838 286 838 302 812 c 132,-1,43
 318 786 318 786 348 786 c 132,-1,25
654 332 m 260,44,45
 654 396 654 396 668 461 c 132,-1,46
 682 526 682 526 715 579 c 132,-1,47
 748 632 748 632 801 665 c 132,-1,48
 854 698 854 698 932 698 c 260,49,50
 1010 698 1010 698 1063 665 c 132,-1,51
 1116 632 1116 632 1150 579 c 132,-1,52
 1184 526 1184 526 1198 461 c 132,-1,53
 1212 396 1212 396 1212 332 c 260,54,55
 1212 268 1212 268 1198 202 c 132,-1,56
 1184 136 1184 136 1150 82 c 132,-1,57
 1116 28 1116 28 1063 -5 c 132,-1,58
 1010 -38 1010 -38 932 -38 c 260,59,60
 854 -38 854 -38 801 -5 c 132,-1,61
 748 28 748 28 715 82 c 132,-1,62
 682 136 682 136 668 202 c 132,-1,63
 654 268 654 268 654 332 c 260,44,45
852 332 m 132,-1,65
 852 274 852 274 853 220 c 132,-1,66
 854 166 854 166 861 124 c 132,-1,67
 868 82 868 82 885 56 c 132,-1,68
 902 30 902 30 932 30 c 132,-1,70
 962 30 962 30 979 56 c 132,-1,71
 996 82 996 82 1003 124 c 132,-1,72
 1010 166 1010 166 1012 219 c 132,-1,73
 1014 272 1014 272 1014 332 c 4,74,75
 1014 390 1014 390 1012 443 c 132,-1,76
 1010 496 1010 496 1003 538 c 132,-1,77
 996 580 996 580 979 605 c 132,-1,78
 962 630 962 630 932 630 c 132,-1,80
 902 630 902 630 885 605 c 132,-1,81
 868 580 868 580 861 538 c 132,-1,82
 854 496 854 496 853 443 c 132,-1,83
 852 390 852 390 852 332 c 132,-1,65
EndSplineSet
Fore
SplineSet
827 332 m 128,-1,1
 827 390 827 390 828 444 c 0,2,3
 830 570 830 570 859 612.5 c 128,-1,4
 888 655 888 655 931.5 655 c 128,-1,5
 975 655 975 655 997.5 622 c 128,-1,6
 1020 589 1020 589 1027.5 544 c 128,-1,7
 1035 499 1035 499 1037 444.5 c 128,-1,8
 1039 390 1039 390 1039 331 c 128,-1,9
 1039 272 1039 272 1037 218 c 0,10,11
 1032 93 1032 93 1004 49 c 128,-1,12
 976 5 976 5 932 5 c 128,-1,13
 888 5 888 5 866 38.5 c 128,-1,14
 844 72 844 72 836.5 118 c 128,-1,15
 829 164 829 164 828 219 c 128,-1,0
 827 274 827 274 827 332 c 128,-1,1
679 332 m 0,16,17
 680 100 680 100 814 16 c 0,18,19
 861 -14 861 -14 930 -14 c 0,20,21
 930 -14 930 -14 932 -14 c 0,22,23
 1002 -14 1002 -14 1050 16 c 128,-1,24
 1098 46 1098 46 1129 96 c 128,-1,25
 1160 146 1160 146 1173.5 208.5 c 128,-1,26
 1187 271 1187 271 1187 332 c 0,27,28
 1186 560 1186 560 1050 644 c 0,29,30
 1003 674 1003 674 934 674 c 0,31,32
 934 674 934 674 932 674 c 0,33,34
 862 674 862 674 814 644 c 128,-1,35
 766 614 766 614 736 565 c 0,36,37
 679 472 679 472 679 332 c 0,16,17
453 1088 m 0,38,39
 453 1069 453 1069 453 1047 c 0,40,41
 453 1038 453 1038 453 1023 c 0,42,43
 453 993 453 993 452 940 c 0,44,45
 450 848 450 848 414 794 c 0,46,47
 393 761 393 761 350 761 c 0,48,49
 349 761 349 761 348 761 c 0,50,51
 249 761 249 761 244 976 c 0,52,53
 243 1032 243 1032 243 1087 c 128,-1,54
 243 1142 243 1142 244.5 1231 c 128,-1,55
 246 1320 246 1320 275 1365.5 c 128,-1,56
 304 1411 304 1411 348 1411 c 128,-1,57
 392 1411 392 1411 414 1378 c 0,58,59
 450 1325 450 1325 451.5 1234.5 c 128,-1,60
 453 1144 453 1144 453 1088 c 0,38,39
1108 1332 m 1,61,-1
 1083 1368 l 1,62,-1
 185 100 l 1,63,-1
 208 66 l 1,64,-1
 1108 1332 l 1,61,-1
348 743 m 0,65,66
 419 743 419 743 467.5 772.5 c 128,-1,67
 516 802 516 802 546 851.5 c 128,-1,68
 576 901 576 901 589.5 964 c 128,-1,69
 603 1027 603 1027 603 1087 c 0,70,71
 603 1089 603 1089 603 1090 c 0,72,73
 603 1318 603 1318 468 1400 c 0,74,75
 421 1430 421 1430 351 1430 c 0,76,77
 350 1430 350 1430 348 1430 c 0,78,79
 276 1430 276 1430 229 1400 c 128,-1,80
 182 1370 182 1370 152 1321 c 128,-1,81
 122 1272 122 1272 108.5 1210.5 c 128,-1,82
 95 1149 95 1149 95 1088 c 0,83,84
 96 856 96 856 230 772 c 0,85,86
 276 743 276 743 344 743 c 0,87,88
 346 743 346 743 348 743 c 0,65,66
852 332 m 128,-1,90
 852 274 852 274 853 220 c 128,-1,91
 854 166 854 166 861 124 c 128,-1,92
 868 82 868 82 885 56 c 128,-1,93
 902 30 902 30 932 30 c 128,-1,94
 962 30 962 30 979 56 c 128,-1,95
 996 82 996 82 1003 124 c 0,96,97
 1014 190 1014 190 1014 290 c 128,-1,98
 1014 390 1014 390 1012 443 c 128,-1,99
 1010 496 1010 496 1003 538 c 128,-1,100
 996 580 996 580 979 605 c 128,-1,101
 962 630 962 630 932 630 c 128,-1,102
 902 630 902 630 885 605 c 128,-1,103
 868 580 868 580 861 538 c 128,-1,104
 854 496 854 496 853 443 c 128,-1,89
 852 390 852 390 852 332 c 128,-1,90
654 332 m 128,-1,106
 654 396 654 396 668 461 c 128,-1,107
 682 526 682 526 715 579 c 128,-1,108
 748 632 748 632 801 665 c 128,-1,109
 854 698 854 698 932 698 c 128,-1,110
 1010 698 1010 698 1063 665 c 128,-1,111
 1116 632 1116 632 1150 579 c 128,-1,112
 1184 526 1184 526 1198 461 c 128,-1,113
 1212 396 1212 396 1212 332 c 128,-1,114
 1212 268 1212 268 1198 202 c 128,-1,115
 1184 136 1184 136 1150 82 c 128,-1,116
 1116 28 1116 28 1063 -5 c 128,-1,117
 1010 -38 1010 -38 932 -38 c 128,-1,118
 854 -38 854 -38 801 -5 c 128,-1,119
 748 28 748 28 715 82 c 128,-1,120
 682 136 682 136 668 202 c 128,-1,105
 654 268 654 268 654 332 c 128,-1,106
348 786 m 128,-1,122
 378 786 378 786 395 812 c 128,-1,123
 412 838 412 838 419 880 c 0,124,125
 428 934 428 934 428 1040 c 128,-1,126
 428 1146 428 1146 427 1199 c 128,-1,127
 426 1252 426 1252 419 1294 c 128,-1,128
 412 1336 412 1336 395 1361 c 128,-1,129
 378 1386 378 1386 348 1386 c 128,-1,130
 318 1386 318 1386 302 1361 c 128,-1,131
 286 1336 286 1336 278 1294 c 0,132,133
 268 1242 268 1242 268 1136 c 128,-1,134
 268 1030 268 1030 269 976 c 128,-1,135
 270 922 270 922 278 880 c 128,-1,136
 286 838 286 838 302 812 c 128,-1,121
 318 786 318 786 348 786 c 128,-1,122
1084 1412 m 1,137,-1
 1138 1332 l 1,138,-1
 208 22 l 1,139,-1
 154 100 l 1,140,-1
 1084 1412 l 1,137,-1
348 718 m 128,-1,142
 270 718 270 718 217 751 c 128,-1,143
 164 784 164 784 131 838 c 128,-1,144
 98 892 98 892 84 958 c 128,-1,145
 70 1024 70 1024 70 1088 c 128,-1,146
 70 1152 70 1152 84 1217 c 128,-1,147
 98 1282 98 1282 131 1335 c 128,-1,148
 164 1388 164 1388 217 1421 c 128,-1,149
 270 1454 270 1454 348 1454 c 128,-1,150
 426 1454 426 1454 480 1421 c 128,-1,151
 534 1388 534 1388 567 1335 c 0,152,153
 628 1237 628 1237 628 1088 c 0,154,155
 628 841 628 841 480 751 c 0,156,141
 426 718 426 718 348 718 c 128,-1,142
EndSplineSet
Validated: 2049
EndChar

StartChar: ampersand
Encoding: 38 38 6
Width: 1370
GlyphClass: 2
Flags: W
LayerCount: 2
Back
SplineSet
66 296 m 4,0,1
 66 372 66 372 86 434 c 132,-1,2
 106 496 106 496 144 546 c 132,-1,3
 182 596 182 596 233 634 c 132,-1,4
 284 672 284 672 346 702 c 5,5,6
 320 748 320 748 300 790 c 132,-1,7
 280 832 280 832 267 874 c 132,-1,8
 254 916 254 916 247 959 c 132,-1,9
 240 1002 240 1002 240 1048 c 4,10,11
 240 1128 240 1128 263 1201 c 132,-1,12
 286 1274 286 1274 331 1330 c 132,-1,13
 376 1386 376 1386 443 1420 c 132,-1,14
 510 1454 510 1454 596 1454 c 4,15,16
 634 1454 634 1454 673 1451 c 132,-1,17
 712 1448 712 1448 750 1436 c 132,-1,18
 788 1424 788 1424 821 1403 c 132,-1,19
 854 1382 854 1382 880 1349 c 132,-1,20
 906 1316 906 1316 920 1270 c 132,-1,21
 934 1224 934 1224 934 1162 c 4,22,23
 934 1104 934 1104 922 1055 c 132,-1,24
 910 1006 910 1006 887 966 c 132,-1,25
 864 926 864 926 833 893 c 132,-1,26
 802 860 802 860 766 834 c 5,27,28
 816 748 816 748 864 672 c 132,-1,29
 912 596 912 596 958 530 c 5,30,-1
 1034 694 l 6,31,32
 1036 700 1036 700 1036 710 c 4,33,34
 1036 722 1036 722 1027 732 c 132,-1,35
 1018 742 1018 742 1001 747 c 132,-1,36
 984 752 984 752 960 755 c 132,-1,37
 936 758 936 758 908 758 c 5,38,-1
 908 830 l 5,39,-1
 1246 830 l 5,40,-1
 1246 758 l 5,41,42
 1214 758 1214 758 1192 754 c 132,-1,43
 1170 750 1170 750 1155 741 c 132,-1,44
 1140 732 1140 732 1130 720 c 132,-1,45
 1120 708 1120 708 1114 694 c 4,46,47
 1086 636 1086 636 1059 580 c 132,-1,48
 1032 524 1032 524 1006 468 c 5,49,50
 1030 438 1030 438 1051 414 c 132,-1,51
 1072 390 1072 390 1091 373 c 132,-1,52
 1110 356 1110 356 1130 347 c 132,-1,53
 1150 338 1150 338 1172 338 c 4,54,55
 1210 338 1210 338 1234 372 c 132,-1,56
 1258 406 1258 406 1258 474 c 5,57,-1
 1304 474 l 5,58,59
 1310 402 1310 402 1310 344 c 4,60,61
 1310 242 1310 242 1289 169 c 132,-1,62
 1268 96 1268 96 1228 50 c 132,-1,63
 1188 4 1188 4 1131 -17 c 132,-1,64
 1074 -38 1074 -38 1000 -38 c 4,65,66
 936 -38 936 -38 882 -15 c 132,-1,67
 828 8 828 8 772 62 c 5,68,69
 748 40 748 40 717 21 c 132,-1,70
 686 2 686 2 648 -11 c 132,-1,71
 610 -24 610 -24 563 -31 c 132,-1,72
 516 -38 516 -38 458 -38 c 4,73,74
 368 -38 368 -38 296 -18 c 132,-1,75
 224 2 224 2 172 44 c 132,-1,76
 120 86 120 86 93 148 c 132,-1,77
 66 210 66 210 66 296 c 4,0,1
736 884 m 5,78,79
 760 914 760 914 779 953 c 132,-1,80
 798 992 798 992 812 1033 c 132,-1,81
 826 1074 826 1074 834 1117 c 132,-1,82
 842 1160 842 1160 842 1202 c 4,83,84
 842 1234 842 1234 835 1263 c 132,-1,85
 828 1292 828 1292 815 1315 c 132,-1,86
 802 1338 802 1338 784 1350 c 132,-1,87
 766 1362 766 1362 742 1362 c 4,88,89
 724 1362 724 1362 706 1349 c 132,-1,90
 688 1336 688 1336 676 1313 c 132,-1,91
 664 1290 664 1290 656 1259 c 132,-1,92
 648 1228 648 1228 648 1194 c 4,93,94
 648 1108 648 1108 672 1029 c 132,-1,95
 696 950 696 950 736 884 c 5,78,79
350 528 m 4,96,97
 350 484 350 484 363 437 c 132,-1,98
 376 390 376 390 398 340 c 132,-1,99
 420 290 420 290 448 245 c 132,-1,100
 476 200 476 200 506 166 c 132,-1,101
 536 132 536 132 567 110 c 132,-1,102
 598 88 598 88 626 88 c 260,103,104
 652 88 652 88 675 96 c 132,-1,105
 698 104 698 104 718 118 c 5,106,107
 686 158 686 158 650 209 c 132,-1,108
 614 260 614 260 573 324 c 132,-1,109
 532 388 532 388 486 465 c 132,-1,110
 440 542 440 542 388 632 c 5,111,112
 370 612 370 612 360 586 c 132,-1,113
 350 560 350 560 350 528 c 4,96,97
EndSplineSet
Fore
SplineSet
933 782 m 1,0,1
 1061 776 1061 776 1061 710 c 0,2,3
 1061 693 1061 693 1057 683 c 2,4,-1
 981 519 l 2,5,6
 974 505 974 505 959.5 505 c 128,-1,7
 945 505 945 505 937 516 c 0,8,9
 844 649 844 649 744 821 c 0,10,11
 740 828 740 828 740 836 c 0,12,13
 740 848 740 848 751 854 c 0,14,15
 909 969 909 969 909 1162 c 0,16,17
 909 1361 909 1361 742 1412 c 0,18,19
 688 1429 688 1429 602 1429 c 128,-1,20
 516 1429 516 1429 454 1397.5 c 128,-1,21
 392 1366 392 1366 350 1314 c 0,22,23
 265 1209 265 1209 265 1065.5 c 128,-1,24
 265 922 265 922 323 801 c 0,25,26
 344 760 344 760 358 734 c 128,-1,27
 372 708 372 708 372 700 c 0,28,29
 372 687 372 687 357 679 c 0,30,31
 91 550 91 550 91 292 c 0,32,33
 91 143 91 143 187 64 c 0,34,35
 281 -13 281 -13 444 -13 c 0,36,37
 446 -13 446 -13 448 -13 c 0,38,39
 652 -13 652 -13 755 80 c 0,40,41
 762 87 762 87 772 87 c 128,-1,42
 782 87 782 87 812 58 c 0,43,44
 885 -13 885 -13 1000 -13 c 0,45,46
 1070 -13 1070 -13 1122 6 c 0,47,48
 1285 66 1285 66 1285 344 c 0,49,50
 1285 388 1285 388 1281 441 c 1,51,52
 1275 376 1275 376 1243.5 344.5 c 128,-1,53
 1212 313 1212 313 1166 313 c 0,54,55
 1165 313 1165 313 1164 313 c 0,56,57
 1121 313 1121 313 1088 342 c 0,58,59
 1049 376 1049 376 1014.5 417.5 c 128,-1,60
 980 459 980 459 980 466 c 0,61,62
 981 476 981 476 1091 704 c 0,63,64
 1122 776 1122 776 1221 782 c 1,65,-1
 1221 805 l 1,66,-1
 933 805 l 1,67,-1
 933 782 l 1,0,1
648 1022 m 128,-1,69
 623 1104 623 1104 623 1168 c 0,70,71
 623 1320 623 1320 691 1369 c 0,72,73
 716 1387 716 1387 742 1387 c 0,74,75
 803 1387 803 1387 835 1330.5 c 128,-1,76
 867 1274 867 1274 867 1195.5 c 128,-1,77
 867 1117 867 1117 834.5 1022 c 128,-1,78
 802 927 802 927 756 868 c 0,79,80
 748 859 748 859 735 859 c 128,-1,81
 722 859 722 859 715 871 c 0,82,68
 673 940 673 940 648 1022 c 128,-1,69
369 649 m 0,83,84
 376 657 376 657 389.5 657 c 128,-1,85
 403 657 403 657 410 645 c 0,86,87
 627 271 627 271 738 134 c 0,88,89
 743 127 743 127 743 116 c 128,-1,90
 743 105 743 105 732 98 c 0,91,92
 680 62 680 62 633 62 c 0,93,94
 591 62 591 62 553 90 c 0,95,96
 449 163 449 163 375 330 c 0,97,98
 325 443 325 443 325 521 c 128,-1,99
 325 599 325 599 369 649 c 0,83,84
388 632 m 1,100,101
 350 590 350 590 350 537 c 128,-1,102
 350 484 350 484 363 437 c 128,-1,103
 376 390 376 390 398 340 c 128,-1,104
 420 290 420 290 448 245 c 128,-1,105
 476 200 476 200 506 166 c 0,106,107
 575 88 575 88 626 88 c 0,108,109
 675 88 675 88 718 118 c 1,110,111
 620 240 620 240 530 391 c 128,-1,112
 440 542 440 542 388 632 c 1,100,101
736 884 m 1,113,114
 807 973 807 973 834 1117 c 0,115,116
 842 1160 842 1160 842 1197 c 128,-1,117
 842 1234 842 1234 835 1263 c 128,-1,118
 828 1292 828 1292 815 1315 c 0,119,120
 788 1362 788 1362 742 1362 c 0,121,122
 683 1362 683 1362 656 1259 c 0,123,124
 648 1228 648 1228 648 1168 c 128,-1,125
 648 1108 648 1108 672 1029 c 128,-1,126
 696 950 696 950 736 884 c 1,113,114
772 62 m 1,127,128
 663 -38 663 -38 458 -38 c 0,129,130
 174 -38 174 -38 93 148 c 0,131,132
 66 210 66 210 66 296 c 0,133,134
 66 567 66 567 346 702 c 1,135,136
 240 890 240 890 240 1048 c 0,137,138
 240 1217 240 1217 331 1330 c 0,139,140
 431 1454 431 1454 596 1454 c 0,141,142
 934 1454 934 1454 934 1162 c 0,143,144
 934 955 934 955 766 834 c 1,145,146
 866 662 866 662 958 530 c 1,147,-1
 1034 694 l 2,148,149
 1036 700 1036 700 1036 710 c 0,150,151
 1036 758 1036 758 908 758 c 1,152,-1
 908 830 l 1,153,-1
 1246 830 l 1,154,-1
 1246 758 l 1,155,156
 1183 758 1183 758 1162 745 c 0,157,158
 1127 724 1127 724 1106.5 680 c 128,-1,159
 1086 636 1086 636 1059 580 c 128,-1,160
 1032 524 1032 524 1006 468 c 1,161,162
 1088 366 1088 366 1130 347 c 0,163,164
 1150 338 1150 338 1180 338 c 128,-1,165
 1210 338 1210 338 1234 372 c 128,-1,166
 1258 406 1258 406 1258 474 c 1,167,-1
 1304 474 l 1,168,169
 1310 402 1310 402 1310 322 c 128,-1,170
 1310 242 1310 242 1289 169 c 128,-1,171
 1268 96 1268 96 1228 50 c 0,172,173
 1151 -38 1151 -38 1013.5 -38 c 128,-1,174
 876 -38 876 -38 772 62 c 1,127,128
EndSplineSet
Validated: 2049
EndChar

StartChar: quotesingle
Encoding: 39 39 7
Width: 434
GlyphClass: 2
Flags: W
LayerCount: 2
Back
SplineSet
192 1122 m 5,0,1
 182 1238 182 1238 174 1262 c 4,2,3
 158 1334 158 1334 152 1360 c 4,4,5
 142 1396 142 1396 133 1431 c 132,-1,6
 124 1466 124 1466 116 1500 c 132,-1,7
 108 1534 108 1534 104 1564 c 132,-1,8
 100 1594 100 1594 100 1620 c 4,9,10
 100 1644 100 1644 110 1664 c 132,-1,11
 120 1684 120 1684 137 1697 c 132,-1,12
 154 1710 154 1710 175 1718 c 132,-1,13
 196 1726 196 1726 218 1726 c 260,14,15
 240 1726 240 1726 260 1718 c 132,-1,16
 280 1710 280 1710 297 1697 c 132,-1,17
 314 1684 314 1684 325 1664 c 132,-1,18
 336 1644 336 1644 336 1620 c 4,19,20
 336 1594 336 1594 331 1564 c 132,-1,21
 326 1534 326 1534 318 1500 c 4,22,23
 312 1468 312 1468 302 1430 c 4,24,25
 292 1396 292 1396 282 1360 c 4,26,27
 270 1312 270 1312 260 1237 c 132,-1,28
 250 1162 250 1162 244 1122 c 5,29,-1
 192 1122 l 5,0,1
EndSplineSet
Fore
SplineSet
291 1489.5 m 128,-1,1
 294 1505 294 1505 302.5 1542.5 c 128,-1,2
 311 1580 311 1580 311 1609 c 0,3,4
 311 1651 311 1651 292.5 1668 c 128,-1,5
 274 1685 274 1685 254.5 1693 c 128,-1,6
 235 1701 235 1701 218 1701 c 0,7,8
 158 1700 158 1700 132 1650 c 0,9,10
 126 1638 126 1638 125 1604 c 0,11,12
 125 1548 125 1548 151 1455 c 128,-1,13
 177 1362 177 1362 191.5 1303 c 128,-1,14
 206 1244 206 1244 215 1147 c 1,15,-1
 222 1147 l 1,16,17
 245 1317 245 1317 253 1348.5 c 128,-1,18
 261 1380 261 1380 274.5 1427 c 128,-1,0
 288 1474 288 1474 291 1489.5 c 128,-1,1
192 1122 m 1,19,20
 182 1238 182 1238 170 1286 c 128,-1,21
 158 1334 158 1334 150 1365 c 128,-1,22
 142 1396 142 1396 133 1431 c 128,-1,23
 124 1466 124 1466 116 1500 c 0,24,25
 100 1568 100 1568 100 1606 c 128,-1,26
 100 1644 100 1644 110 1664 c 128,-1,27
 120 1684 120 1684 137 1697 c 128,-1,28
 154 1710 154 1710 175 1718 c 128,-1,29
 196 1726 196 1726 218 1726 c 128,-1,30
 240 1726 240 1726 260 1718 c 128,-1,31
 280 1710 280 1710 297 1697 c 0,32,33
 336 1667 336 1667 336 1631 c 0,34,35
 336 1560 336 1560 314 1478 c 128,-1,36
 292 1396 292 1396 281 1354 c 128,-1,37
 270 1312 270 1312 260 1237 c 128,-1,38
 250 1162 250 1162 244 1122 c 1,39,-1
 192 1122 l 1,19,20
EndSplineSet
Validated: 1
EndChar

StartChar: parenleft
Encoding: 40 40 8
Width: 582
GlyphClass: 2
Flags: W
LayerCount: 2
Back
SplineSet
102 708 m 260,0,1
 102 952 102 952 133 1132 c 132,-1,2
 164 1312 164 1312 219 1430 c 132,-1,3
 274 1548 274 1548 376 1605 c 132,-1,4
 478 1662 478 1662 576 1662 c 5,5,-1
 576 1596 l 5,6,7
 552 1596 552 1596 510 1584 c 132,-1,8
 468 1572 468 1572 456 1539 c 132,-1,9
 444 1506 444 1506 436 1445 c 132,-1,10
 428 1384 428 1384 424 1286 c 132,-1,11
 420 1188 420 1188 418 1047 c 132,-1,12
 416 906 416 906 416 708 c 260,13,14
 416 512 416 512 418 371 c 132,-1,15
 420 230 420 230 424 131 c 132,-1,16
 428 32 428 32 436 -28 c 132,-1,17
 444 -88 444 -88 456 -122 c 132,-1,18
 468 -156 468 -156 509 -167 c 132,-1,19
 550 -178 550 -178 576 -178 c 5,20,-1
 576 -248 l 5,21,22
 478 -248 478 -248 376 -190 c 132,-1,23
 274 -132 274 -132 219 -13 c 132,-1,24
 164 106 164 106 133 285 c 132,-1,25
 102 464 102 464 102 708 c 260,0,1
EndSplineSet
Fore
SplineSet
242 -2 m 0,0,1
 294 -114 294 -114 382.5 -164.5 c 128,-1,2
 471 -215 471 -215 551 -222 c 1,3,-1
 551 -201 l 1,4,5
 479 -191 479 -191 459.5 -170.5 c 128,-1,6
 440 -150 440 -150 430 -122 c 0,7,8
 407 -61 407 -61 399 134 c 128,-1,9
 391 329 391 329 391 708 c 2,10,-1
 391 807 l 2,11,12
 391 1432 391 1432 433 1548 c 0,13,14
 453 1605 453 1605 551 1619 c 1,15,-1
 551 1636 l 1,16,17
 471 1630 471 1630 382 1580 c 0,18,19
 292 1530 292 1530 240 1417 c 0,20,21
 126 1174 126 1174 126 713 c 0,22,23
 126 711 126 711 126 709 c 0,24,25
 126 245 126 245 242 -2 c 0,0,1
102 708 m 128,-1,27
 102 952 102 952 133 1132 c 128,-1,28
 164 1312 164 1312 219 1430 c 128,-1,29
 274 1548 274 1548 376 1605 c 128,-1,30
 478 1662 478 1662 576 1662 c 1,31,-1
 576 1596 l 1,32,33
 552 1596 552 1596 510 1584 c 128,-1,34
 468 1572 468 1572 456 1539 c 128,-1,35
 444 1506 444 1506 436 1445 c 128,-1,36
 428 1384 428 1384 424 1286 c 0,37,38
 416 1090 416 1090 416 801 c 128,-1,39
 416 512 416 512 418 371 c 128,-1,40
 420 230 420 230 424 131 c 128,-1,41
 428 32 428 32 436 -28 c 128,-1,42
 444 -88 444 -88 456 -122 c 128,-1,43
 468 -156 468 -156 509 -167 c 128,-1,44
 550 -178 550 -178 576 -178 c 1,45,-1
 576 -248 l 1,46,47
 478 -248 478 -248 376 -190 c 128,-1,48
 274 -132 274 -132 219 -13 c 128,-1,49
 164 106 164 106 133 285 c 128,-1,26
 102 464 102 464 102 708 c 128,-1,27
EndSplineSet
Validated: 1
EndChar

StartChar: parenright
Encoding: 41 41 9
Width: 582
GlyphClass: 2
Flags: W
LayerCount: 2
Back
SplineSet
474 708 m 260,0,1
 474 464 474 464 443 285 c 132,-1,2
 412 106 412 106 357 -13 c 132,-1,3
 302 -132 302 -132 200 -190 c 132,-1,4
 98 -248 98 -248 0 -248 c 5,5,6
 0 -248 0 -248 0 -178 c 5,7,8
 26 -178 26 -178 67 -167 c 132,-1,9
 108 -156 108 -156 120 -122 c 132,-1,10
 132 -88 132 -88 140 -28 c 132,-1,11
 148 32 148 32 152 131 c 132,-1,12
 156 230 156 230 158 371 c 132,-1,13
 160 512 160 512 160 708 c 260,14,15
 160 906 160 906 158 1047 c 132,-1,16
 156 1188 156 1188 152 1286 c 132,-1,17
 148 1384 148 1384 140 1445 c 132,-1,18
 132 1506 132 1506 120 1539 c 132,-1,19
 108 1572 108 1572 66 1584 c 132,-1,20
 24 1596 24 1596 0 1596 c 5,21,22
 0 1596 0 1596 0 1662 c 5,23,24
 98 1662 98 1662 200 1605 c 132,-1,25
 302 1548 302 1548 357 1430 c 132,-1,26
 412 1312 412 1312 443 1132 c 132,-1,27
 474 952 474 952 474 708 c 260,0,1
EndSplineSet
Fore
SplineSet
449 708 m 0,0,1
 449 1436 449 1436 188 1583 c 0,2,3
 105 1630 105 1630 25 1636 c 1,4,-1
 25 1619 l 1,5,6
 94 1609 94 1609 115.5 1587.5 c 128,-1,7
 137 1566 137 1566 143 1548 c 0,8,9
 169 1477 169 1477 177 1283.5 c 128,-1,10
 185 1090 185 1090 185 708 c 2,11,-1
 185 610 l 2,12,13
 185 118 185 118 170.5 12 c 128,-1,14
 156 -94 156 -94 146.5 -122 c 128,-1,15
 137 -150 137 -150 120 -166 c 0,16,17
 95 -191 95 -191 25 -201 c 1,18,-1
 25 -222 l 1,19,20
 104 -216 104 -216 194 -165 c 0,21,22
 284 -114 284 -114 336 0 c 0,23,24
 449 244 449 244 449 700 c 0,25,26
 449 704 449 704 449 708 c 0,0,1
474 708 m 128,-1,28
 474 464 474 464 443 285 c 128,-1,29
 412 106 412 106 357 -13 c 128,-1,30
 302 -132 302 -132 200 -190 c 128,-1,31
 98 -248 98 -248 0 -248 c 1,32,-1
 0 -178 l 1,33,34
 26 -178 26 -178 67 -167 c 128,-1,35
 108 -156 108 -156 120 -122 c 128,-1,36
 132 -88 132 -88 140 -28 c 128,-1,37
 148 32 148 32 152 131 c 0,38,39
 160 329 160 329 160 617.5 c 128,-1,40
 160 906 160 906 158 1047 c 128,-1,41
 156 1188 156 1188 152 1286 c 128,-1,42
 148 1384 148 1384 140 1445 c 128,-1,43
 132 1506 132 1506 120 1539 c 128,-1,44
 108 1572 108 1572 66 1584 c 128,-1,45
 24 1596 24 1596 0 1596 c 1,46,-1
 0 1662 l 1,47,48
 98 1662 98 1662 200 1605 c 128,-1,49
 302 1548 302 1548 357 1430 c 128,-1,50
 412 1312 412 1312 443 1132 c 128,-1,27
 474 952 474 952 474 708 c 128,-1,28
EndSplineSet
Validated: 1
EndChar

StartChar: asterisk
Encoding: 42 42 10
Width: 728
VWidth: 1778
GlyphClass: 2
Flags: W
LayerCount: 2
Back
SplineSet
362 614 m 260,0,1
 328 614 328 614 307 635 c 132,-1,2
 286 656 286 656 286 682 c 260,3,4
 286 710 286 710 297 743 c 132,-1,5
 308 776 308 776 322 814 c 4,6,7
 328 830 328 830 335 847 c 132,-1,8
 342 864 342 864 344 882 c 5,9,10
 332 870 332 870 320 857 c 132,-1,11
 308 844 308 844 296 828 c 4,12,13
 286 814 286 814 271 795 c 132,-1,14
 256 776 256 776 240 761 c 132,-1,15
 224 746 224 746 204 734 c 132,-1,16
 184 722 184 722 166 722 c 4,17,18
 150 722 150 722 136 730 c 132,-1,19
 122 738 122 738 112 749 c 132,-1,20
 102 760 102 760 96 774 c 132,-1,21
 90 788 90 788 90 802 c 4,22,23
 90 830 90 830 108 847 c 132,-1,24
 126 864 126 864 153 874 c 132,-1,25
 180 884 180 884 209 888 c 132,-1,26
 238 892 238 892 258 894 c 4,27,28
 276 896 276 896 294 900 c 132,-1,29
 312 904 312 904 330 910 c 5,30,31
 298 920 298 920 258 926 c 4,32,33
 236 928 236 928 206 933 c 132,-1,34
 176 938 176 938 151 948 c 132,-1,35
 126 958 126 958 108 974 c 132,-1,37
 90 990 90 990 90 1018 c 4,38,39
 90 1032 90 1032 96 1047 c 132,-1,40
 102 1062 102 1062 113 1073 c 132,-1,41
 124 1084 124 1084 138 1091 c 132,-1,42
 152 1098 152 1098 166 1098 c 4,43,44
 182 1098 182 1098 202 1086 c 132,-1,45
 222 1074 222 1074 239 1057 c 132,-1,46
 256 1040 256 1040 271 1023 c 132,-1,47
 286 1006 286 1006 296 994 c 4,48,49
 308 980 308 980 320 965 c 132,-1,50
 332 950 332 950 344 938 c 5,51,52
 340 956 340 956 335 973 c 132,-1,53
 330 990 330 990 322 1008 c 4,54,55
 308 1044 308 1044 297 1077 c 132,-1,56
 286 1110 286 1110 286 1136 c 260,57,58
 286 1164 286 1164 307 1185 c 132,-1,59
 328 1206 328 1206 362 1206 c 260,60,61
 396 1206 396 1206 416 1186 c 132,-1,62
 436 1166 436 1166 436 1136 c 4,63,64
 436 1108 436 1108 426 1075 c 132,-1,65
 416 1042 416 1042 400 1008 c 4,66,67
 388 976 388 976 378 938 c 5,68,69
 390 950 390 950 404 963 c 132,-1,70
 418 976 418 976 428 992 c 4,71,72
 442 1010 442 1010 457 1029 c 132,-1,73
 472 1048 472 1048 488 1063 c 132,-1,74
 504 1078 504 1078 521 1088 c 132,-1,75
 538 1098 538 1098 558 1098 c 4,76,77
 574 1098 574 1098 587 1091 c 132,-1,78
 600 1084 600 1084 611 1072 c 132,-1,79
 622 1060 622 1060 627 1046 c 132,-1,80
 632 1032 632 1032 632 1018 c 4,81,82
 632 992 632 992 614 975 c 132,-1,83
 596 958 596 958 569 948 c 132,-1,84
 542 938 542 938 514 933 c 132,-1,85
 486 928 486 928 466 926 c 4,86,87
 448 924 448 924 430 920 c 132,-1,88
 412 916 412 916 396 910 c 5,89,90
 414 906 414 906 431 902 c 132,-1,91
 448 898 448 898 466 894 c 4,92,93
 488 890 488 890 517 885 c 132,-1,94
 546 880 546 880 572 870 c 132,-1,95
 598 860 598 860 616 844 c 132,-1,97
 634 828 634 828 632 802 c 4,98,99
 632 788 632 788 626 773 c 132,-1,100
 620 758 620 758 610 747 c 132,-1,101
 600 736 600 736 587 729 c 132,-1,102
 574 722 574 722 558 722 c 4,103,104
 538 722 538 722 519 734 c 132,-1,105
 500 746 500 746 482 763 c 132,-1,106
 464 780 464 780 450 798 c 132,-1,107
 436 816 436 816 428 830 c 4,108,109
 418 844 418 844 405 857 c 132,-1,110
 392 870 392 870 378 882 c 5,111,112
 386 846 386 846 400 814 c 4,113,114
 414 778 414 778 425 745 c 132,-1,115
 436 712 436 712 436 682 c 4,116,117
 436 654 436 654 416 634 c 132,-1,118
 396 614 396 614 362 614 c 260,0,1
EndSplineSet
Fore
SplineSet
361 846 m 1,0,1
 311 721 311 721 311 693.5 c 128,-1,2
 311 666 311 666 324.5 652.5 c 128,-1,3
 338 639 338 639 362 639 c 128,-1,4
 386 639 386 639 398.5 651.5 c 128,-1,5
 411 664 411 664 411 686 c 0,6,7
 411 719 411 719 389.5 771.5 c 128,-1,8
 368 824 368 824 361 846 c 1,0,1
115 806 m 0,9,10
 115 770 115 770 148 752 c 0,11,12
 156 747 156 747 166 747 c 0,13,14
 207 747 207 747 276 843 c 0,15,16
 289 860 289 860 296 867.5 c 128,-1,17
 303 875 303 875 304 877 c 1,18,19
 282 872 282 872 262 870 c 0,20,21
 116 852 116 852 115 806 c 0,9,10
371 906 m 1,22,23
 371 906 371 906 371 914 c 1,24,25
 365 916 365 916 361 920 c 1,26,27
 358 917 358 917 354 915 c 0,28,29
 355 912 355 912 355 909.5 c 128,-1,30
 355 907 355 907 354 905 c 1,31,32
 358 903 358 903 361 900 c 1,33,34
 366 904 366 904 371 906 c 1,22,23
306 942 m 1,35,36
 303 945 303 945 280 974 c 128,-1,37
 257 1003 257 1003 231.5 1029 c 128,-1,38
 206 1055 206 1055 190.5 1064 c 128,-1,39
 175 1073 175 1073 166.5 1073 c 128,-1,40
 158 1073 158 1073 142 1065 c 0,41,42
 115 1051 115 1051 115 1028 c 0,43,44
 115 1027 115 1027 115 1026 c 0,45,46
 115 964 115 964 250 952 c 0,47,48
 275 950 275 950 306 942 c 1,35,36
362 1181 m 0,49,50
 338 1181 338 1181 324.5 1167.5 c 128,-1,51
 311 1154 311 1154 311 1134 c 0,52,53
 311 1133 311 1133 311 1131 c 0,54,55
 311 1100 311 1100 332 1051 c 0,56,57
 356 992 356 992 361 971 c 1,58,59
 372 1008 372 1008 382 1030 c 0,60,61
 411 1092 411 1092 411 1136.5 c 128,-1,62
 411 1181 411 1181 362 1181 c 0,49,50
462 951 m 0,63,64
 607 966 607 966 607 1022 c 0,65,66
 607 1041 607 1041 591 1057 c 128,-1,67
 575 1073 575 1073 560 1073 c 0,68,69
 518 1073 518 1073 449 978 c 0,70,71
 437 960 437 960 428.5 952 c 128,-1,72
 420 944 420 944 419 943 c 1,73,74
 440 948 440 948 462 951 c 0,63,64
607 802 m 2,75,-1
 607 807 l 2,76,77
 607 819 607 819 599 825 c 0,78,79
 571 850 571 850 518.5 859 c 128,-1,80
 466 868 466 868 454 871 c 2,81,82
 454 871 454 871 438 875 c 128,-1,83
 422 879 422 879 418 879 c 1,84,85
 444 853 444 853 450 842 c 0,86,87
 481 788 481 788 532 755 c 0,88,89
 544 747 544 747 556 747 c 0,90,91
 588 747 588 747 603 782 c 0,92,93
 607 793 607 793 607 802 c 2,75,-1
362 614 m 128,-1,95
 328 614 328 614 307 635 c 128,-1,96
 286 656 286 656 286 683 c 0,97,98
 286 728 286 728 314 796 c 128,-1,99
 342 864 342 864 344 882 c 1,100,101
 314 852 314 852 300 833 c 128,-1,102
 286 814 286 814 271 795 c 128,-1,103
 256 776 256 776 240 761 c 0,104,105
 198 722 198 722 174 722 c 128,-1,106
 150 722 150 722 136 730 c 128,-1,107
 122 738 122 738 112 749 c 0,108,109
 90 773 90 773 90 801.5 c 128,-1,110
 90 830 90 830 108 847 c 128,-1,111
 126 864 126 864 153 874 c 0,112,113
 188 887 188 887 232 892 c 0,114,115
 293 898 293 898 330 910 c 1,116,117
 298 920 298 920 267 924 c 128,-1,118
 236 928 236 928 206 933 c 128,-1,119
 176 938 176 938 151 948 c 0,120,121
 90 972 90 972 90 1018 c 0,122,123
 90 1067 90 1067 138 1091 c 0,124,125
 152 1098 152 1098 167 1098 c 128,-1,126
 182 1098 182 1098 202 1086 c 128,-1,127
 222 1074 222 1074 239 1057 c 0,128,129
 276 1020 276 1020 304 985 c 128,-1,130
 332 950 332 950 344 938 c 1,131,132
 335 980 335 980 321 1012 c 0,133,134
 286 1098 286 1098 286 1131 c 128,-1,135
 286 1164 286 1164 307 1185 c 128,-1,136
 328 1206 328 1206 362 1206 c 128,-1,137
 396 1206 396 1206 416 1186 c 128,-1,138
 436 1166 436 1166 436 1137 c 0,139,140
 436 1085 436 1085 400 1008 c 0,141,142
 388 976 388 976 378 938 c 1,143,144
 390 950 390 950 404 963 c 128,-1,145
 418 976 418 976 430 993 c 128,-1,146
 442 1010 442 1010 457 1029 c 128,-1,147
 472 1048 472 1048 488 1063 c 0,148,149
 525 1098 525 1098 549.5 1098 c 128,-1,150
 574 1098 574 1098 587 1091 c 128,-1,151
 600 1084 600 1084 611 1072 c 0,152,153
 632 1049 632 1049 632 1020.5 c 128,-1,154
 632 992 632 992 614 975 c 128,-1,155
 596 958 596 958 569 948 c 0,156,157
 526 932 526 932 487 928 c 0,158,159
 428 922 428 922 396 910 c 1,160,161
 414 906 414 906 431 902 c 128,-1,162
 448 898 448 898 468 894 c 128,-1,163
 488 890 488 890 517 885 c 128,-1,164
 546 880 546 880 572 870 c 0,165,166
 632 847 632 847 632 806 c 0,167,168
 632 804 632 804 632 802 c 0,169,170
 632 753 632 753 587 729 c 0,171,172
 574 722 574 722 556 722 c 128,-1,173
 538 722 538 722 519 734 c 128,-1,174
 500 746 500 746 482 763 c 0,175,176
 448 795 448 795 433 820 c 0,177,178
 413 852 413 852 378 882 c 1,179,180
 386 846 386 846 400 812 c 0,181,182
 436 725 436 725 436 689.5 c 128,-1,183
 436 654 436 654 416 634 c 128,-1,94
 396 614 396 614 362 614 c 128,-1,95
EndSplineSet
Validated: 2049
EndChar

StartChar: plus
Encoding: 43 43 11
Width: 888
GlyphClass: 2
Flags: W
LayerCount: 2
Back
SplineSet
382 428 m 5,0,-1
 126 428 l 5,1,-1
 126 552 l 5,2,3
 126 552 126 552 382 552 c 5,4,5
 382 552 382 552 382 808 c 5,6,-1
 506 808 l 5,7,-1
 506 552 l 5,8,-1
 762 552 l 5,9,-1
 762 428 l 5,10,-1
 506 428 l 5,11,12
 506 428 506 428 506 174 c 5,13,-1
 382 174 l 5,14,-1
 382 428 l 5,0,-1
EndSplineSet
Fore
SplineSet
382 453 m 2,0,1
 392 453 392 453 399.5 445.5 c 128,-1,2
 407 438 407 438 407 428 c 2,3,-1
 407 199 l 1,4,-1
 481 199 l 1,5,-1
 481 428 l 2,6,7
 481 438 481 438 488.5 445.5 c 128,-1,8
 496 453 496 453 506 453 c 2,9,-1
 737 453 l 1,10,-1
 737 527 l 1,11,-1
 506 527 l 2,12,13
 496 527 496 527 488.5 534.5 c 128,-1,14
 481 542 481 542 481 552 c 2,15,-1
 481 783 l 1,16,-1
 407 783 l 1,17,-1
 407 552 l 2,18,19
 407 542 407 542 399.5 534.5 c 128,-1,20
 392 527 392 527 382 527 c 2,21,-1
 151 527 l 1,22,-1
 151 453 l 1,23,-1
 382 453 l 2,0,1
382 428 m 1,24,-1
 126 428 l 1,25,-1
 126 552 l 1,26,-1
 382 552 l 1,27,-1
 382 808 l 1,28,-1
 506 808 l 1,29,-1
 506 552 l 1,30,-1
 762 552 l 1,31,-1
 762 428 l 1,32,-1
 506 428 l 1,33,-1
 506 174 l 1,34,-1
 382 174 l 1,35,-1
 382 428 l 1,24,-1
EndSplineSet
Validated: 1
EndChar

StartChar: comma
Encoding: 44 44 12
Width: 618
VWidth: 1454
GlyphClass: 2
Flags: W
LayerCount: 2
Back
SplineSet
118 160 m 4,0,1
 118 196 118 196 134 227 c 132,-1,2
 150 258 150 258 174 282 c 132,-1,3
 198 306 198 306 231 319 c 132,-1,4
 264 332 264 332 304 332 c 4,5,6
 350 332 350 332 386 318 c 132,-1,7
 422 304 422 304 449 277 c 132,-1,8
 476 250 476 250 491 210 c 132,-1,9
 506 170 506 170 506 118 c 4,10,11
 506 34 506 34 479 -30 c 132,-1,12
 452 -94 452 -94 407 -142 c 132,-1,13
 362 -190 362 -190 306 -222 c 132,-1,14
 250 -254 250 -254 188 -268 c 5,15,-1
 168 -242 l 5,16,17
 224 -222 224 -222 260 -192 c 132,-1,18
 296 -162 296 -162 319 -130 c 132,-1,19
 342 -98 342 -98 351 -71 c 132,-1,20
 360 -44 360 -44 360 -28 c 4,21,22
 360 -10 360 -10 342 -3 c 132,-1,23
 324 4 324 4 296 8 c 4,24,25
 270 12 270 12 238 19 c 132,-1,26
 206 26 206 26 180 41 c 132,-1,27
 154 56 154 56 136 84 c 132,-1,28
 118 112 118 112 118 160 c 4,0,1
EndSplineSet
Fore
SplineSet
307 307 m 0,0,1
 234 307 234 307 188.5 261 c 128,-1,2
 143 215 143 215 143 167 c 0,3,4
 144 119 144 119 158 97 c 0,5,6
 172 74 172 74 194 62 c 0,7,8
 221 46 221 46 287.5 35 c 128,-1,9
 354 24 354 24 369.5 9 c 128,-1,10
 385 -6 385 -6 385 -27 c 0,11,12
 385 -121 385 -121 280 -208 c 1,13,14
 405 -142 405 -142 456 -20 c 0,15,16
 481 40 481 40 481 102 c 0,17,18
 481 255 481 255 377 295 c 0,19,20
 345 307 345 307 307 307 c 0,0,1
136 84 m 128,-1,22
 118 112 118 112 118 154 c 128,-1,23
 118 196 118 196 134 227 c 128,-1,24
 150 258 150 258 174 282 c 0,25,26
 224 332 224 332 287 332 c 128,-1,27
 350 332 350 332 386 318 c 128,-1,28
 422 304 422 304 449 277 c 0,29,30
 506 220 506 220 506 127 c 128,-1,31
 506 34 506 34 479 -30 c 128,-1,32
 452 -94 452 -94 407 -142 c 0,33,34
 316 -239 316 -239 188 -268 c 1,35,-1
 168 -242 l 1,36,37
 263 -208 263 -208 319 -130 c 0,38,39
 360 -73 360 -73 360 -41.5 c 128,-1,40
 360 -10 360 -10 342 -3 c 128,-1,41
 324 4 324 4 297 8 c 128,-1,42
 270 12 270 12 238 19 c 128,-1,43
 206 26 206 26 180 41 c 128,-1,21
 154 56 154 56 136 84 c 128,-1,22
EndSplineSet
Validated: 1
EndChar

StartChar: hyphen
Encoding: 45 45 13
Width: 888
GlyphClass: 2
Flags: W
LayerCount: 2
Back
SplineSet
126 550 m 5,0,-1
 762 550 l 5,1,-1
 762 426 l 5,2,-1
 126 426 l 5,3,-1
 126 550 l 5,0,-1
EndSplineSet
Fore
SplineSet
737 525 m 1,0,-1
 151 525 l 1,1,-1
 151 451 l 1,2,-1
 737 451 l 1,3,-1
 737 525 l 1,0,-1
126 550 m 1,4,-1
 762 550 l 1,5,-1
 762 426 l 1,6,-1
 126 426 l 1,7,-1
 126 550 l 1,4,-1
EndSplineSet
Validated: 1
EndChar

StartChar: period
Encoding: 46 46 14
Width: 624
VWidth: 1500
GlyphClass: 2
Flags: W
LayerCount: 2
Back
SplineSet
124 152 m 260,0,1
 124 190 124 190 140 225 c 132,-1,2
 156 260 156 260 182 286 c 132,-1,3
 208 312 208 312 242 326 c 132,-1,4
 276 340 276 340 318 340 c 4,5,6
 356 340 356 340 391 326 c 132,-1,7
 426 312 426 312 452 286 c 132,-1,8
 478 260 478 260 493 225 c 132,-1,9
 508 190 508 190 508 152 c 260,10,11
 508 114 508 114 493 79 c 132,-1,12
 478 44 478 44 452 18 c 132,-1,13
 426 -8 426 -8 391 -22 c 132,-1,14
 356 -36 356 -36 318 -36 c 4,15,16
 278 -36 278 -36 243 -22 c 132,-1,17
 208 -8 208 -8 182 18 c 132,-1,18
 156 44 156 44 140 79 c 132,-1,19
 124 114 124 114 124 152 c 260,0,1
EndSplineSet
Fore
SplineSet
149 152 m 128,-1,1
 149 119 149 119 163 88.5 c 128,-1,2
 177 58 177 58 199.5 35.5 c 128,-1,3
 222 13 222 13 252.5 1 c 128,-1,4
 283 -11 283 -11 317 -11 c 128,-1,5
 351 -11 351 -11 381.5 1 c 128,-1,6
 412 13 412 13 434.5 35.5 c 128,-1,7
 457 58 457 58 470 88.5 c 128,-1,8
 483 119 483 119 483 152 c 0,9,10
 483 186 483 186 470 216 c 0,11,12
 456 246 456 246 434 268 c 0,13,14
 388 314 388 314 317 315 c 0,15,16
 210 315 210 315 163 215 c 0,17,0
 149 185 149 185 149 152 c 128,-1,1
124 152 m 128,-1,19
 124 190 124 190 140 225 c 128,-1,20
 156 260 156 260 182 286 c 0,21,22
 236 340 236 340 318 340 c 0,23,24
 398 340 398 340 452 286 c 0,25,26
 508 230 508 230 508 152 c 128,-1,27
 508 74 508 74 452 18 c 0,28,29
 398 -36 398 -36 318 -36 c 0,30,31
 193 -36 193 -36 140 79 c 0,32,18
 124 114 124 114 124 152 c 128,-1,19
EndSplineSet
Validated: 1
EndChar

StartChar: slash
Encoding: 47 47 15
Width: 804
GlyphClass: 2
Flags: W
LayerCount: 2
Back
SplineSet
832 1536 m 5,0,-1
 932 1484 l 5,1,-1
 -22 -484 l 5,2,-1
 -126 -432 l 5,3,-1
 832 1536 l 5,0,-1
EndSplineSet
Fore
SplineSet
899 1473 m 1,0,-1
 843 1502 l 1,1,-1
 -93 -421 l 1,2,-1
 -33 -450 l 1,3,-1
 899 1473 l 1,0,-1
832 1536 m 1,4,-1
 932 1484 l 1,5,-1
 -22 -484 l 1,6,-1
 -126 -432 l 1,7,-1
 832 1536 l 1,4,-1
EndSplineSet
Validated: 1
EndChar

StartChar: zero
Encoding: 48 48 16
Width: 1308
GlyphClass: 2
Flags: W
LayerCount: 2
Back
SplineSet
594 711 m 132,-1,1
 594 758 594 758 611 791 c 132,-1,2
 628 824 628 824 654 824 c 132,-1,4
 680 824 680 824 697 791 c 132,-1,5
 714 758 714 758 714 711 c 132,-1,6
 714 664 714 664 697 631 c 132,-1,7
 680 598 680 598 654 598 c 132,-1,9
 628 598 628 598 611 631 c 132,-1,0
 594 664 594 664 594 711 c 132,-1,1
204 708 m 4,10,11
 204 806 204 806 213 901 c 132,-1,12
 222 996 222 996 243 1079 c 132,-1,13
 264 1162 264 1162 298 1231 c 132,-1,14
 332 1300 332 1300 381 1350 c 132,-1,15
 430 1400 430 1400 498 1427 c 132,-1,16
 566 1454 566 1454 656 1454 c 4,17,18
 744 1454 744 1454 811 1427 c 132,-1,19
 878 1400 878 1400 928 1350 c 132,-1,20
 978 1300 978 1300 1011 1231 c 132,-1,21
 1044 1162 1044 1162 1065 1079 c 132,-1,22
 1086 996 1086 996 1095 902 c 132,-1,23
 1104 808 1104 808 1104 708 c 260,24,25
 1104 610 1104 610 1095 516 c 132,-1,26
 1086 422 1086 422 1065 339 c 132,-1,27
 1044 256 1044 256 1011 186 c 132,-1,28
 978 116 978 116 928 66 c 132,-1,29
 878 16 878 16 811 -11 c 132,-1,30
 744 -38 744 -38 656 -38 c 260,31,32
 568 -38 568 -38 499 -11 c 132,-1,33
 430 16 430 16 381 66 c 132,-1,34
 332 116 332 116 298 186 c 132,-1,35
 264 256 264 256 243 339 c 132,-1,36
 222 422 222 422 213 515 c 132,-1,37
 204 608 204 608 204 708 c 4,10,11
656 30 m 132,-1,39
 686 30 686 30 703 61 c 132,-1,40
 720 92 720 92 730 170 c 132,-1,41
 740 248 740 248 743 379 c 132,-1,42
 746 510 746 510 746 708 c 132,-1,44
 746 906 746 906 743 1038 c 132,-1,45
 740 1170 740 1170 730 1247 c 132,-1,46
 720 1324 720 1324 702 1355 c 132,-1,47
 684 1386 684 1386 656 1386 c 4,48,49
 626 1386 626 1386 607 1355 c 132,-1,50
 588 1324 588 1324 579 1247 c 132,-1,51
 570 1170 570 1170 567 1039 c 132,-1,52
 564 908 564 908 564 708 c 132,-1,54
 564 508 564 508 567 378 c 132,-1,55
 570 248 570 248 579 170 c 132,-1,56
 588 92 588 92 607 61 c 132,-1,57
 626 30 626 30 656 30 c 132,-1,39
EndSplineSet
Fore
SplineSet
619 711 m 128,-1,1
 619 670 619 670 631 646.5 c 128,-1,2
 643 623 643 623 654 623 c 128,-1,3
 665 623 665 623 677 646.5 c 128,-1,4
 689 670 689 670 689 711 c 128,-1,5
 689 752 689 752 677 775.5 c 128,-1,6
 665 799 665 799 654 799 c 128,-1,7
 643 799 643 799 631 775.5 c 128,-1,0
 619 752 619 752 619 711 c 128,-1,1
229 707 m 0,8,9
 230 122 230 122 510 12 c 0,10,11
 574 -13 574 -13 656 -13 c 0,12,13
 890 -13 890 -13 988 197 c 0,14,15
 1079 390 1079 390 1079 709 c 0,16,17
 1079 1290 1079 1290 802 1404 c 0,18,19
 739 1429 739 1429 655 1429 c 0,20,21
 493 1429 493 1429 399 1333 c 0,22,23
 229 1159 229 1159 229 707 c 0,8,9
754.5 165 m 128,-1,25
 744 84 744 84 722.5 44.5 c 128,-1,26
 701 5 701 5 656.5 5 c 128,-1,27
 612 5 612 5 588 44.5 c 128,-1,28
 564 84 564 84 554.5 165 c 128,-1,29
 545 246 545 246 542 377 c 128,-1,30
 539 508 539 508 539 708 c 128,-1,31
 539 908 539 908 542 1040 c 0,32,33
 548 1306 548 1306 580 1358.5 c 128,-1,34
 612 1411 612 1411 655 1411 c 128,-1,35
 698 1411 698 1411 721.5 1372 c 128,-1,36
 745 1333 745 1333 755 1252.5 c 128,-1,37
 765 1172 765 1172 768 1039 c 128,-1,38
 771 906 771 906 771 708 c 128,-1,39
 771 510 771 510 768 378 c 128,-1,24
 765 246 765 246 754.5 165 c 128,-1,25
656 30 m 128,-1,41
 686 30 686 30 703 61 c 128,-1,42
 720 92 720 92 730 170 c 128,-1,43
 740 248 740 248 743 379 c 128,-1,44
 746 510 746 510 746 708 c 128,-1,45
 746 906 746 906 743 1038 c 128,-1,46
 740 1170 740 1170 730 1247 c 0,47,48
 712 1386 712 1386 656 1386 c 0,49,50
 595 1386 595 1386 579 1247 c 0,51,52
 564 1119 564 1119 564 813.5 c 128,-1,53
 564 508 564 508 567 378 c 128,-1,54
 570 248 570 248 579 170 c 128,-1,55
 588 92 588 92 607 61 c 128,-1,40
 626 30 626 30 656 30 c 128,-1,41
656 -38 m 0,56,57
 204 -38 204 -38 204 708 c 0,58,59
 204 925 204 925 234 1043.5 c 128,-1,60
 264 1162 264 1162 298 1231 c 128,-1,61
 332 1300 332 1300 381 1350 c 0,62,63
 483 1454 483 1454 656 1454 c 0,64,65
 1104 1454 1104 1454 1104 708 c 0,66,67
 1104 493 1104 493 1074 374.5 c 128,-1,68
 1044 256 1044 256 1011 186 c 128,-1,69
 978 116 978 116 928 66 c 0,70,71
 824 -38 824 -38 656 -38 c 0,56,57
594 711 m 128,-1,73
 594 758 594 758 611 791 c 128,-1,74
 628 824 628 824 654 824 c 128,-1,75
 680 824 680 824 697 791 c 128,-1,76
 714 758 714 758 714 711 c 128,-1,77
 714 664 714 664 697 631 c 128,-1,78
 680 598 680 598 654 598 c 128,-1,79
 628 598 628 598 611 631 c 128,-1,72
 594 664 594 664 594 711 c 128,-1,73
EndSplineSet
Validated: 2049
EndChar

StartChar: one
Encoding: 49 49 17
Width: 812
GlyphClass: 2
Flags: W
LayerCount: 2
Back
SplineSet
140 80 m 5,0,-1
 240 80 l 5,1,-1
 240 1244 l 5,2,-1
 140 1244 l 5,3,-1
 140 1324 l 5,4,5
 214 1324 214 1324 271 1351 c 132,-1,6
 328 1378 328 1378 364 1418 c 5,7,-1
 604 1418 l 5,8,-1
 604 80 l 5,9,-1
 702 80 l 5,10,-1
 702 0 l 5,11,-1
 140 0 l 5,12,-1
 140 80 l 5,0,-1
EndSplineSet
Fore
SplineSet
375 1393 m 1,0,1
 290 1308 290 1308 165 1300 c 1,2,-1
 165 1269 l 1,3,-1
 240 1269 l 2,4,5
 250 1269 250 1269 257.5 1261.5 c 128,-1,6
 265 1254 265 1254 265 1244 c 2,7,-1
 265 80 l 2,8,9
 265 70 265 70 257.5 62.5 c 128,-1,10
 250 55 250 55 240 55 c 2,11,-1
 165 55 l 1,12,-1
 165 25 l 1,13,-1
 677 25 l 1,14,-1
 677 55 l 1,15,-1
 604 55 l 2,16,17
 594 55 594 55 586.5 62.5 c 128,-1,18
 579 70 579 70 579 80 c 2,19,-1
 579 1393 l 1,20,-1
 375 1393 l 1,0,1
140 1324 m 1,21,22
 279 1324 279 1324 364 1418 c 1,23,-1
 604 1418 l 1,24,-1
 604 80 l 1,25,-1
 702 80 l 1,26,-1
 702 0 l 1,27,-1
 140 0 l 1,28,-1
 140 80 l 1,29,-1
 240 80 l 1,30,-1
 240 1244 l 1,31,-1
 140 1244 l 1,32,-1
 140 1324 l 1,21,22
EndSplineSet
Validated: 1
EndChar

StartChar: two
Encoding: 50 50 18
Width: 1166
GlyphClass: 2
Flags: W
LayerCount: 2
Back
SplineSet
186 98 m 5,0,1
 232 166 232 166 280 248 c 4,2,3
 330 330 330 330 376 418 c 4,4,5
 424 506 424 506 466 600 c 4,6,7
 510 694 510 694 542 787 c 132,-1,8
 574 880 574 880 593 971 c 132,-1,9
 612 1062 612 1062 612 1144 c 4,10,11
 612 1214 612 1214 602 1260 c 132,-1,12
 592 1306 592 1306 574 1334 c 132,-1,13
 556 1362 556 1362 532 1373 c 132,-1,14
 508 1384 508 1384 482 1384 c 4,15,16
 452 1384 452 1384 422 1374 c 5,17,18
 446 1360 446 1360 468 1338 c 132,-1,19
 490 1316 490 1316 504 1286 c 4,20,21
 520 1256 520 1256 528 1222 c 4,22,23
 536 1186 536 1186 536 1148 c 4,24,25
 536 1096 536 1096 522 1052 c 132,-1,27
 508 1008 508 1008 483 974 c 132,-1,28
 458 940 458 940 426 922 c 132,-1,30
 394 904 394 904 354 904 c 260,31,32
 316 904 316 904 283 922 c 132,-1,33
 250 940 250 940 224 974 c 132,-1,34
 198 1008 198 1008 184 1052 c 132,-1,36
 170 1096 170 1096 170 1148 c 4,37,38
 170 1222 170 1222 198 1280 c 132,-1,40
 226 1338 226 1338 279 1377 c 132,-1,41
 332 1416 332 1416 405 1435 c 132,-1,42
 478 1454 478 1454 566 1454 c 4,43,44
 616 1454 616 1454 664 1444 c 4,45,46
 714 1434 714 1434 758 1412 c 132,-1,48
 802 1390 802 1390 838 1357 c 132,-1,49
 874 1324 874 1324 902 1275 c 132,-1,50
 930 1226 930 1226 944 1164 c 4,51,52
 960 1102 960 1102 960 1024 c 4,53,54
 960 940 960 940 942 876 c 4,55,56
 926 810 926 810 894 758 c 4,57,58
 864 704 864 704 820 664 c 4,59,60
 764 612 764 612 724 592 c 4,61,62
 626 542 626 542 616 536 c 4,63,64
 570 518 570 518 524 498 c 4,65,66
 524 498 524 498 500 450 c 5,67,-1
 886 450 l 5,68,69
 906 486 906 486 920 524 c 4,70,71
 934 560 934 560 946 598 c 5,72,-1
 980 596 l 5,73,-1
 938 0 l 5,74,-1
 186 0 l 5,75,-1
 186 98 l 5,0,1
EndSplineSet
Fore
SplineSet
480 1409 m 0,0,1
 481 1409 481 1409 481 1409 c 0,2,3
 636 1409 636 1409 637 1138 c 0,4,5
 637 1060 637 1060 608.5 921.5 c 128,-1,6
 580 783 580 783 489 590 c 1,7,8
 408 408 408 408 301 235 c 0,9,10
 255 156 255 156 211 90 c 1,11,-1
 211 25 l 1,12,-1
 915 25 l 1,13,-1
 951 534 l 1,14,15
 948 524 948 524 938 500 c 0,16,17
 921 456 921 456 904 432 c 0,18,19
 896 425 896 425 886 425 c 2,20,-1
 500 425 l 2,21,22
 490 425 490 425 482.5 432.5 c 128,-1,23
 475 440 475 440 475 447.5 c 128,-1,24
 475 455 475 455 478 461 c 2,25,-1
 502 509 l 2,26,27
 508 520 508 520 605 559 c 0,28,29
 622 568 622 568 686 600 c 0,30,31
 756 635 756 635 806 685 c 0,32,33
 809 688 809 688 829 707.5 c 128,-1,34
 849 727 849 727 860.5 748.5 c 128,-1,35
 872 770 872 770 887.5 795 c 128,-1,36
 903 820 903 820 910.5 851 c 128,-1,37
 918 882 918 882 926.5 913 c 128,-1,38
 935 944 935 944 935 1022 c 0,39,40
 935 1236 935 1236 821 1339 c 0,41,42
 753 1401 753 1401 659 1419 c 1,43,44
 659 1419 659 1419 636.5 1424 c 128,-1,45
 614 1429 614 1429 547.5 1429 c 128,-1,46
 481 1429 481 1429 412 1411 c 0,47,48
 271 1374 271 1374 221 1269 c 0,49,50
 195 1216 195 1216 195 1158 c 0,51,52
 195 1036 195 1036 261 970 c 0,53,54
 302 929 302 929 360.5 929 c 128,-1,55
 419 929 419 929 463 989 c 0,56,57
 511 1054 511 1054 511 1137 c 128,-1,58
 511 1220 511 1220 482 1274 c 1,59,60
 482 1288 482 1288 456 1314 c 0,61,62
 430 1340 430 1340 418 1347 c 0,63,64
 397 1359 397 1359 397 1373 c 0,65,66
 397 1374 397 1374 397 1374 c 128,-1,67
 397 1374 397 1374 397 1375 c 0,68,69
 397 1409 397 1409 476 1409 c 0,70,71
 478 1409 478 1409 480 1409 c 0,0,1
886 450 m 1,72,73
 917 505 917 505 946 598 c 1,74,-1
 980 596 l 1,75,-1
 938 0 l 1,76,-1
 186 0 l 1,77,-1
 186 98 l 1,78,79
 350 341 350 341 466 600 c 1,80,81
 612 912 612 912 612 1148 c 128,-1,82
 612 1384 612 1384 482 1384 c 0,83,84
 452 1384 452 1384 422 1374 c 1,85,86
 536 1307 536 1307 536 1148 c 0,87,88
 536 1046 536 1046 483 974 c 0,89,90
 432 904 432 904 354 904 c 0,91,92
 278 904 278 904 224 974 c 0,93,94
 170 1045 170 1045 170 1133.5 c 128,-1,95
 170 1222 170 1222 198 1280 c 128,-1,96
 226 1338 226 1338 279 1377 c 0,97,98
 384 1454 384 1454 566 1454 c 0,99,100
 800 1454 800 1454 902 1275 c 0,101,102
 960 1173 960 1173 960 1024 c 0,103,104
 960 865 960 865 894 758 c 0,105,106
 864 704 864 704 814 658 c 128,-1,107
 764 612 764 612 695 577 c 128,-1,108
 626 542 626 542 616 536 c 0,109,110
 570 518 570 518 524 498 c 1,111,-1
 500 450 l 1,112,-1
 886 450 l 1,72,73
EndSplineSet
Validated: 1
EndChar

StartChar: three
Encoding: 51 51 19
Width: 1178
GlyphClass: 2
Flags: W
LayerCount: 2
Back
SplineSet
182 270 m 4,0,1
 182 322 182 322 197 366 c 132,-1,2
 212 410 212 410 237 443 c 132,-1,3
 262 476 262 476 294 496 c 4,4,5
 326 514 326 514 366 514 c 260,6,7
 404 514 404 514 438 495 c 132,-1,8
 472 476 472 476 496 443 c 132,-1,9
 520 410 520 410 535 366 c 132,-1,10
 550 322 550 322 550 270 c 4,11,12
 550 232 550 232 542 198 c 132,-1,13
 534 164 534 164 520 135 c 132,-1,14
 506 106 506 106 485 83 c 132,-1,15
 464 60 464 60 440 46 c 5,16,17
 458 40 458 40 477 37 c 132,-1,18
 496 34 496 34 512 34 c 4,19,20
 544 34 544 34 569 48 c 132,-1,21
 594 62 594 62 612 97 c 132,-1,22
 630 132 630 132 640 190 c 132,-1,23
 650 248 650 248 650 336 c 4,24,25
 650 414 650 414 636 472 c 132,-1,26
 622 530 622 530 596 571 c 132,-1,27
 570 612 570 612 534 636 c 132,-1,28
 498 660 498 660 452 664 c 5,29,-1
 452 772 l 5,30,31
 496 778 496 778 531 806 c 132,-1,32
 566 834 566 834 593 879 c 132,-1,33
 620 924 620 924 636 984 c 132,-1,34
 652 1044 652 1044 652 1118 c 4,35,36
 652 1190 652 1190 641 1240 c 132,-1,37
 630 1290 630 1290 612 1322 c 132,-1,38
 594 1354 594 1354 568 1367 c 132,-1,39
 542 1380 542 1380 514 1380 c 4,40,41
 492 1380 492 1380 467 1377 c 132,-1,42
 442 1374 442 1374 414 1360 c 5,43,44
 444 1352 444 1352 472 1329 c 132,-1,45
 500 1306 500 1306 519 1275 c 132,-1,46
 538 1244 538 1244 549 1204 c 132,-1,47
 560 1164 560 1164 560 1118 c 4,48,49
 560 1066 560 1066 545 1022 c 132,-1,50
 530 978 530 978 506 946 c 132,-1,51
 482 914 482 914 449 894 c 132,-1,52
 416 874 416 874 378 874 c 260,53,54
 340 874 340 874 306 894 c 132,-1,55
 272 914 272 914 248 946 c 132,-1,56
 224 978 224 978 209 1023 c 132,-1,57
 194 1068 194 1068 194 1118 c 4,58,59
 194 1194 194 1194 221 1255 c 132,-1,60
 248 1316 248 1316 298 1361 c 132,-1,61
 348 1406 348 1406 419 1430 c 132,-1,62
 490 1454 490 1454 578 1454 c 4,63,64
 626 1454 626 1454 674 1445 c 132,-1,65
 722 1436 722 1436 767 1416 c 132,-1,66
 812 1396 812 1396 849 1366 c 132,-1,67
 886 1336 886 1336 915 1294 c 132,-1,68
 944 1252 944 1252 960 1197 c 132,-1,69
 976 1142 976 1142 976 1074 c 4,70,71
 976 908 976 908 877 825 c 132,-1,72
 778 742 778 742 572 738 c 5,73,74
 668 736 668 736 748 716 c 132,-1,75
 828 696 828 696 884 653 c 132,-1,76
 940 610 940 610 971 541 c 132,-1,77
 1002 472 1002 472 1002 372 c 4,78,79
 1002 266 1002 266 974 188 c 132,-1,80
 946 110 946 110 894 60 c 132,-1,81
 842 10 842 10 766 -14 c 132,-1,82
 690 -38 690 -38 598 -38 c 132,-1,84
 506 -38 506 -38 429 -19 c 132,-1,85
 352 0 352 0 297 39 c 132,-1,86
 242 78 242 78 212 135 c 132,-1,87
 182 192 182 192 182 270 c 4,0,1
EndSplineSet
Fore
SplineSet
512 9 m 0,0,1
 415 10 415 10 415 46 c 0,2,3
 416 60 416 60 432 70 c 0,4,5
 473 95 473 95 499 149 c 128,-1,6
 525 203 525 203 525 260.5 c 128,-1,7
 525 318 525 318 511 358 c 0,8,9
 483 441 483 441 426 473 c 0,10,11
 398 489 398 489 366 489 c 0,12,13
 334 488 334 488 306 472 c 0,14,15
 278 456 278 456 256 427 c 0,16,17
 206 364 206 364 206 282 c 0,18,19
 206 198 206 198 234 146 c 0,20,21
 261 94 261 94 312 58.5 c 128,-1,22
 363 23 363 23 436 5 c 0,23,24
 510 -13 510 -13 598 -13 c 0,25,26
 977 -13 977 -13 977 370 c 0,27,28
 977 633 977 633 741 692 c 0,29,30
 665 711 665 711 613 712 c 128,-1,31
 561 713 561 713 554 720.5 c 128,-1,32
 547 728 547 728 547 738 c 128,-1,33
 547 748 547 748 554 755.5 c 128,-1,34
 561 763 561 763 572 763 c 0,35,36
 786 767 786 767 876 858 c 0,37,38
 951 934 951 934 951 1066 c 0,39,40
 951 1307 951 1307 757 1393 c 0,41,42
 676 1429 676 1429 585 1429 c 0,43,44
 404 1429 404 1429 303 1332 c 0,45,46
 219 1248 219 1248 219 1118 c 0,47,48
 219 1072 219 1072 233 1031 c 0,49,50
 260 950 260 950 319 916 c 0,51,52
 347 899 347 899 387 899 c 128,-1,53
 427 899 427 899 465 937 c 0,54,55
 535 1007 535 1007 535 1104 c 0,56,57
 534 1245 534 1245 456 1309 c 0,58,59
 432 1329 432 1329 417 1333.5 c 128,-1,60
 402 1338 402 1338 396 1344 c 128,-1,61
 390 1350 390 1350 389 1360 c 0,62,63
 389 1379 389 1379 403 1382 c 0,64,65
 448 1405 448 1405 498 1405 c 0,66,67
 593 1405 593 1405 635 1331 c 128,-1,68
 677 1257 677 1257 677 1149 c 128,-1,69
 677 1041 677 1041 654 954.5 c 128,-1,70
 631 868 631 868 579 816 c 128,-1,71
 527 764 527 764 477 751 c 1,72,-1
 477 686 l 1,73,74
 537 674 537 674 582 629 c 0,75,76
 675 536 675 536 675 336 c 0,77,78
 675 79 675 79 581 26 c 0,79,80
 550 9 550 9 512 9 c 0,0,1
652 1118 m 0,81,82
 652 1380 652 1380 514 1380 c 0,83,84
 454 1380 454 1380 414 1360 c 1,85,86
 477 1343 477 1343 519 1275 c 0,87,88
 560 1208 560 1208 560 1137 c 128,-1,89
 560 1066 560 1066 545 1022 c 128,-1,90
 530 978 530 978 506 946 c 128,-1,91
 482 914 482 914 449 894 c 128,-1,92
 416 874 416 874 378 874 c 128,-1,93
 340 874 340 874 306 894 c 128,-1,94
 272 914 272 914 248 946 c 0,95,96
 194 1018 194 1018 194 1106 c 128,-1,97
 194 1194 194 1194 221 1255 c 128,-1,98
 248 1316 248 1316 298 1361 c 0,99,100
 401 1454 401 1454 578 1454 c 0,101,102
 805 1454 805 1454 915 1294 c 0,103,104
 976 1206 976 1206 976 1057 c 128,-1,105
 976 908 976 908 877 825 c 128,-1,106
 778 742 778 742 572 738 c 1,107,108
 885 731 885 731 971 541 c 0,109,110
 1002 472 1002 472 1002 369 c 128,-1,111
 1002 266 1002 266 974 188 c 128,-1,112
 946 110 946 110 894 60 c 128,-1,113
 842 10 842 10 766 -14 c 128,-1,114
 690 -38 690 -38 598 -38 c 128,-1,115
 506 -38 506 -38 429 -19 c 128,-1,116
 352 0 352 0 297 39 c 0,117,118
 182 121 182 121 182 270 c 0,119,120
 182 370 182 370 237 443 c 0,121,122
 291 514 291 514 366 514 c 0,123,124
 444 514 444 514 496 443 c 0,125,126
 550 369 550 369 550 270 c 0,127,128
 550 154 550 154 485 83 c 0,129,130
 464 60 464 60 440 46 c 1,131,132
 476 34 476 34 510 34 c 128,-1,133
 544 34 544 34 569 48 c 128,-1,134
 594 62 594 62 612 97 c 0,135,136
 650 171 650 171 650 336 c 0,137,138
 650 559 650 559 534 636 c 0,139,140
 498 660 498 660 452 664 c 1,141,-1
 452 772 l 1,142,143
 536 783 536 783 593 879 c 0,144,145
 652 977 652 977 652 1118 c 0,81,82
EndSplineSet
Validated: 1
EndChar

StartChar: four
Encoding: 52 52 20
Width: 1122
GlyphClass: 2
Flags: W
LayerCount: 2
Back
SplineSet
158 448 m 5,0,-1
 578 1434 l 5,1,-1
 852 1434 l 5,2,-1
 852 448 l 5,3,-1
 972 448 l 5,4,-1
 972 360 l 5,5,-1
 852 360 l 5,6,-1
 852 80 l 5,7,-1
 952 80 l 5,8,-1
 952 0 l 5,9,-1
 388 0 l 5,10,-1
 388 80 l 5,11,-1
 488 80 l 5,12,-1
 488 360 l 5,13,-1
 158 360 l 5,14,-1
 158 448 l 5,0,-1
488 448 m 5,15,-1
 488 1012 l 5,16,-1
 250 448 l 5,17,-1
 488 448 l 5,15,-1
EndSplineSet
Fore
SplineSet
183 385 m 1,0,-1
 488 385 l 2,1,2
 498 385 498 385 505.5 377.5 c 128,-1,3
 513 370 513 370 513 360 c 2,4,-1
 513 80 l 2,5,6
 513 70 513 70 505.5 62.5 c 128,-1,7
 498 55 498 55 488 55 c 2,8,-1
 413 55 l 1,9,-1
 413 25 l 1,10,-1
 927 25 l 1,11,-1
 927 55 l 1,12,-1
 852 55 l 2,13,14
 842 55 842 55 834.5 62.5 c 128,-1,15
 827 70 827 70 827 80 c 2,16,-1
 827 360 l 2,17,18
 827 370 827 370 834.5 377.5 c 128,-1,19
 842 385 842 385 852 385 c 2,20,-1
 947 385 l 1,21,-1
 947 423 l 1,22,-1
 852 423 l 2,23,24
 842 423 842 423 834.5 430.5 c 128,-1,25
 827 438 827 438 827 448 c 2,26,-1
 827 1409 l 1,27,-1
 595 1409 l 1,28,-1
 183 443 l 1,29,-1
 183 385 l 1,0,-1
488 423 m 2,30,-1
 250 423 l 2,31,32
 240 423 240 423 232.5 430.5 c 128,-1,33
 225 438 225 438 225 445 c 128,-1,34
 225 452 225 452 227 458 c 2,35,-1
 465 1022 l 1,36,37
 473 1037 473 1037 485.5 1037 c 128,-1,38
 498 1037 498 1037 505.5 1029.5 c 128,-1,39
 513 1022 513 1022 513 1012 c 2,40,-1
 513 448 l 2,41,42
 513 438 513 438 505.5 430.5 c 128,-1,43
 498 423 498 423 488 423 c 2,30,-1
488 448 m 1,44,-1
 488 1012 l 1,45,-1
 250 448 l 1,46,-1
 488 448 l 1,44,-1
158 448 m 1,47,-1
 578 1434 l 1,48,-1
 852 1434 l 1,49,-1
 852 448 l 1,50,-1
 972 448 l 1,51,-1
 972 360 l 1,52,-1
 852 360 l 1,53,-1
 852 80 l 1,54,-1
 952 80 l 1,55,-1
 952 0 l 1,56,-1
 388 0 l 1,57,-1
 388 80 l 1,58,-1
 488 80 l 1,59,-1
 488 360 l 1,60,-1
 158 360 l 1,61,-1
 158 448 l 1,47,-1
EndSplineSet
Validated: 1
EndChar

StartChar: five
Encoding: 53 53 21
Width: 1182
GlyphClass: 2
Flags: W
LayerCount: 2
Back
SplineSet
948 1428 m 5,0,-1
 954 1272 l 6,1,2
 954 1208 954 1208 934 1141 c 132,-1,3
 914.0005 1073.995 914.0005 1073.995 879 1035 c 4,4,5
 817.0005 966 817.0005 966 698 966 c 4,6,7
 612.9995 966 612.9995 966 495 1026 c 4,8,9
 470.974255833 1038.01287208 470.974255833 1038.01287208 416.5 1055 c 132,-1,10
 362.1106 1071.96066667 362.1106 1071.96066667 357 1074 c 5,11,-1
 320 702 l 5,12,13
 398 754.0005 398 754.0005 471 778 c 132,-1,14
 544.0005 802 544.0005 802 629 802 c 132,-1,15
 714.0005 802 714.0005 802 778 780 c 132,-1,16
 842.0005 757.9995 842.0005 757.9995 889 709 c 4,17,18
 986.0005 608.0005 986.0005 608.0005 986 402 c 4,19,20
 986 52.9995 986 52.9995 730 -16 c 4,21,22
 647.9995 -38.00005 647.9995 -38.00005 555 -38 c 132,-1,23
 462 -38 462 -38 393 -24 c 132,-1,24
 324 -10.00005 324 -10.00005 274 25 c 4,25,26
 167.9995 98.99995 167.9995 98.99995 168 270 c 4,27,28
 168 421.0005 168 421.0005 281 479 c 4,29,30
 314 495.9995 314 495.9995 350 496 c 4,31,32
 426.9995 496 426.9995 496 481 433 c 4,33,34
 533.9995 371.9995 533.9995 371.9995 534 270 c 4,35,36
 534 195 534 195 508 144 c 4,37,38
 469 67.99995 469 67.99995 408 36 c 5,39,40
 457.9995 25.99995 457.9995 25.99995 488 26 c 132,-1,41
 518 26 518 26 546 45 c 132,-1,42
 574.0005 64.00005 574.0005 64.00005 594 102 c 4,43,44
 637.9995 186 637.9995 186 638 334 c 4,45,46
 638 644.0005 638 644.0005 444 644 c 4,47,48
 364.9995 644 364.9995 644 270 582 c 5,49,-1
 244 638 l 5,50,-1
 302 1418 l 5,51,52
 353 1416.005 353 1416.005 405.5 1404.5 c 132,-1,53
 457.904718693 1393.01588022 457.904718693 1393.01588022 476 1390 c 6,54,-1
 569 1374.5 l 6,55,56
 644 1362.005 644 1362.005 698 1362 c 4,57,58
 831.0005 1362 831.0005 1362 914 1428 c 5,59,-1
 948 1428 l 5,0,-1
EndSplineSet
Fore
SplineSet
444 669 m 0,0,1
 663 669 663 669 663 329 c 0,2,3
 663 93 663 93 560 24 c 0,4,5
 525 1 525 1 476 1 c 0,6,7
 453 1 453 1 426 6 c 0,8,9
 396 12 396 12 389.5 19 c 128,-1,10
 383 26 383 26 383 40 c 128,-1,11
 383 54 383 54 396 58 c 0,12,13
 509 117 509 117 509 282 c 0,14,15
 509 363 509 363 462 417 c 128,-1,16
 415 471 415 471 355 471 c 128,-1,17
 295 471 295 471 244 421 c 128,-1,18
 193 371 193 371 193 270 c 0,19,20
 194 42 194 42 400 0 c 0,21,22
 473 -16 473 -16 545 -16 c 0,23,24
 636 -16 636 -16 726 9 c 0,25,26
 961 72 961 72 961 405 c 0,27,28
 961 692 961 692 768 758 c 0,29,30
 713 777 713 777 637 777 c 0,31,32
 633 777 633 777 629 777 c 0,33,34
 478 777 478 777 334 681 c 0,35,36
 327 676 327 676 318.5 676 c 128,-1,37
 310 676 310 676 302.5 684 c 128,-1,38
 295 692 295 692 295 697.5 c 128,-1,39
 295 703 295 703 332 1076 c 0,40,41
 333 1085 333 1085 340 1092 c 0,42,43
 352 1104 352 1104 366 1098 c 0,44,45
 469 1067 469 1067 506 1048 c 0,46,47
 618 991 618 991 712 991 c 0,48,49
 861 991 861 991 910 1149 c 0,50,51
 929 1211 929 1211 929 1272 c 1,52,-1
 924 1403 l 1,53,-1
 923 1403 l 1,54,55
 835 1337 835 1337 698 1337 c 0,56,57
 642 1337 642 1337 565 1350 c 2,58,-1
 472 1365 l 2,59,60
 453 1368 453 1368 407.5 1378 c 128,-1,61
 362 1388 362 1388 325 1392 c 1,62,-1
 269 643 l 1,63,-1
 281 618 l 1,64,65
 368 669 368 669 444 669 c 0,0,1
629 802 m 0,66,67
 986 802 986 802 986 402 c 0,68,69
 986 53 986 53 730 -16 c 0,70,71
 648 -38 648 -38 555 -38 c 0,72,73
 364 -38 364 -38 266 30.5 c 128,-1,74
 168 99 168 99 168 260 c 128,-1,75
 168 421 168 421 281 479 c 0,76,77
 314 496 314 496 350 496 c 0,78,79
 427 496 427 496 480.5 434 c 128,-1,80
 534 372 534 372 534 284 c 0,81,82
 534 103 534 103 408 36 c 1,83,84
 458 26 458 26 488 26 c 0,85,86
 554 26 554 26 596 106 c 128,-1,87
 638 186 638 186 638 334 c 0,88,89
 638 644 638 644 444 644 c 0,90,91
 365 644 365 644 270 582 c 1,92,-1
 244 638 l 1,93,-1
 302 1418 l 1,94,95
 353 1416 353 1416 405.5 1404.5 c 128,-1,96
 458 1393 458 1393 476 1390 c 2,97,-1
 569 1374 l 2,98,99
 644 1362 644 1362 698 1362 c 0,100,101
 831 1362 831 1362 914 1428 c 1,102,-1
 948 1428 l 1,103,-1
 954 1272 l 1,104,105
 954 1208 954 1208 934 1141 c 0,106,107
 882 966 882 966 715 966 c 0,108,109
 613 966 613 966 495 1026 c 0,110,111
 471 1038 471 1038 416.5 1055 c 128,-1,112
 362 1072 362 1072 357 1074 c 1,113,-1
 320 702 l 1,114,115
 470 802 470 802 629 802 c 0,66,67
EndSplineSet
Validated: 1
EndChar

StartChar: six
Encoding: 54 54 22
Width: 1224
GlyphClass: 2
Flags: W
LayerCount: 2
Back
SplineSet
198 670 m 132,-1,1
 198 776 198 776 207 876 c 132,-1,2
 216 976 216 976 235 1063 c 132,-1,3
 254 1150 254 1150 287 1222 c 132,-1,4
 320 1294 320 1294 370 1346 c 132,-1,5
 420 1398 420 1398 488 1426 c 132,-1,6
 556 1454 556 1454 646 1454 c 4,7,8
 732 1454 732 1454 796 1434 c 132,-1,9
 860 1414 860 1414 904 1377 c 132,-1,10
 948 1340 948 1340 972 1288 c 132,-1,11
 996 1236 996 1236 996 1176 c 4,12,13
 996 1126 996 1126 983 1088 c 132,-1,14
 970 1050 970 1050 949 1024 c 132,-1,15
 928 998 928 998 897 984 c 132,-1,16
 866 970 866 970 832 970 c 260,17,18
 796 970 796 970 765 984 c 132,-1,19
 734 998 734 998 710 1024 c 132,-1,20
 686 1050 686 1050 674 1088 c 132,-1,21
 662 1126 662 1126 662 1176 c 4,22,23
 662 1256 662 1256 693 1303 c 132,-1,24
 724 1350 724 1350 784 1366 c 5,25,26
 770 1370 770 1370 753 1372 c 132,-1,27
 736 1374 736 1374 722 1374 c 4,28,29
 670 1374 670 1374 638 1349 c 132,-1,30
 606 1324 606 1324 589 1260 c 132,-1,31
 572 1196 572 1196 566 1092 c 132,-1,32
 560 988 560 988 558 832 c 5,33,34
 578 846 578 846 602 860 c 132,-1,35
 626 874 626 874 653 886 c 132,-1,36
 680 898 680 898 708 905 c 132,-1,37
 736 912 736 912 762 912 c 4,38,39
 824 912 824 912 875 880 c 132,-1,40
 926 848 926 848 961 792 c 132,-1,41
 996 736 996 736 1015 658 c 132,-1,42
 1034 580 1034 580 1034 486 c 4,43,44
 1034 424 1034 424 1027 362 c 132,-1,45
 1020 300 1020 300 1002 241 c 132,-1,46
 984 182 984 182 955 132 c 132,-1,47
 926 82 926 82 883 44 c 132,-1,48
 840 6 840 6 781 -16 c 132,-1,49
 722 -38 722 -38 648 -38 c 4,50,51
 562 -38 562 -38 495 -15 c 132,-1,52
 428 8 428 8 379 51 c 132,-1,53
 330 94 330 94 295 156 c 132,-1,54
 260 218 260 218 239 296 c 132,-1,55
 218 374 218 374 208 469 c 132,-1,56
 198 564 198 564 198 670 c 132,-1,1
636 40 m 4,57,58
 652 40 652 40 669 53 c 132,-1,59
 686 66 686 66 699 102 c 132,-1,60
 712 138 712 138 720 199 c 132,-1,61
 728 260 728 260 728 358 c 4,62,63
 728 452 728 452 722 523 c 132,-1,64
 716 594 716 594 702 640 c 132,-1,65
 688 686 688 686 666 709 c 132,-1,66
 644 732 644 732 612 732 c 4,67,68
 586 732 586 732 558 718 c 5,69,-1
 558 698 l 6,70,71
 558 536 558 536 559 413 c 132,-1,72
 560 290 560 290 568 207 c 132,-1,73
 576 124 576 124 592 82 c 132,-1,74
 608 40 608 40 636 40 c 4,57,58
EndSplineSet
Fore
SplineSet
558 832 m 1,0,1
 672 912 672 912 748 912 c 128,-1,2
 824 912 824 912 875 880 c 128,-1,3
 926 848 926 848 961 792 c 0,4,5
 1034 675 1034 675 1034 486 c 0,6,7
 1034 78 1034 78 781 -16 c 0,8,9
 722 -38 722 -38 642 -38 c 128,-1,10
 562 -38 562 -38 495 -15 c 128,-1,11
 428 8 428 8 379 51 c 128,-1,12
 330 94 330 94 295 156 c 128,-1,13
 260 218 260 218 239 296 c 128,-1,14
 218 374 218 374 208 469 c 128,-1,15
 198 564 198 564 198 670 c 128,-1,16
 198 776 198 776 207 876 c 128,-1,17
 216 976 216 976 235 1063 c 128,-1,18
 254 1150 254 1150 287 1222 c 128,-1,19
 320 1294 320 1294 370 1346 c 0,20,21
 474 1454 474 1454 646 1454 c 0,22,23
 895 1454 895 1454 972 1288 c 0,24,25
 996 1236 996 1236 996 1181 c 128,-1,26
 996 1126 996 1126 983 1088 c 128,-1,27
 970 1050 970 1050 949 1024 c 0,28,29
 905 970 905 970 832 970 c 0,30,31
 760 970 760 970 710 1024 c 0,32,33
 662 1076 662 1076 662 1176 c 0,34,35
 662 1333 662 1333 784 1366 c 1,36,37
 756 1374 756 1374 713 1374 c 128,-1,38
 670 1374 670 1374 638 1349 c 128,-1,39
 606 1324 606 1324 589 1260 c 0,40,41
 562 1159 562 1159 558 832 c 1,0,1
636 40 m 0,42,43
 728 40 728 40 728 358 c 0,44,45
 728 555 728 555 708 620.5 c 128,-1,46
 688 686 688 686 666 709 c 128,-1,47
 644 732 644 732 615 732 c 128,-1,48
 586 732 586 732 558 718 c 1,49,-1
 558 698 l 2,50,51
 558 311 558 311 567 217 c 0,52,53
 584 40 584 40 636 40 c 0,42,43
636 15 m 0,54,55
 593 15 593 15 572.5 66.5 c 128,-1,56
 552 118 552 118 544 204 c 0,57,58
 534 310 534 310 533 698 c 2,59,-1
 533 718 l 2,60,61
 533 736 533 736 547 740 c 0,62,63
 580 757 580 757 612 757 c 0,64,65
 612 757 612 757 613 757 c 0,66,67
 728 757 728 757 747 526 c 0,68,69
 753 454 753 454 753 316 c 128,-1,70
 753 178 753 178 730.5 114 c 128,-1,71
 708 50 708 50 684 32.5 c 128,-1,72
 660 15 660 15 636 15 c 0,54,55
622.5 1368.5 m 128,-1,74
 661 1399 661 1399 735 1399 c 0,75,76
 809 1398 809 1398 809 1366 c 0,77,78
 809 1344 809 1344 790 1342 c 0,79,80
 687 1314 687 1314 687 1173 c 0,81,82
 687 1045 687 1045 776 1006 c 0,83,84
 800 995 800 995 830 995 c 0,85,86
 860 994 860 994 887 1006 c 0,87,88
 912 1018 912 1018 930 1040 c 0,89,90
 970 1091 970 1091 971 1160 c 0,91,92
 971 1353 971 1353 789 1410 c 0,93,94
 729 1429 729 1429 645 1429 c 0,95,96
 483 1429 483 1429 391 1332 c 128,-1,97
 299 1235 299 1235 261 1063 c 0,98,99
 223 892 223 892 223 672 c 0,100,101
 223 222 223 222 395 70 c 0,102,103
 489 -13 489 -13 648 -13 c 0,104,105
 898 -13 898 -13 978 249 c 0,106,107
 1009 350 1009 350 1009 464 c 0,108,109
 1009 768 1009 768 862 859 c 0,110,111
 818 887 818 887 758 887 c 0,112,113
 688 887 688 887 572 812 c 0,114,115
 554 801 554 801 543.5 811.5 c 128,-1,116
 533 822 533 822 533 832 c 0,117,118
 537 1163 537 1163 560.5 1250.5 c 128,-1,73
 584 1338 584 1338 622.5 1368.5 c 128,-1,74
EndSplineSet
Validated: 1
EndChar

StartChar: seven
Encoding: 55 55 23
Width: 1134
GlyphClass: 2
Flags: W
LayerCount: 2
Back
SplineSet
822 1152 m 4,0,1
 784 1118 784 1118 729 1088 c 132,-1,2
 673.9995 1058 673.9995 1058 617 1050 c 4,3,4
 564 1043 564 1043 551 1043 c 4,5,6
 550 1044 550 1044 549 1044 c 4,7,8
 538 1044 538 1044 521 1045 c 132,-1,9
 504 1046 504 1046 458 1046 c 132,-1,10
 412 1046 412 1046 412 1050 c 4,11,12
 412 1052 412 1052 368 1055 c 132,-1,13
 324.0005 1058 324.0005 1058 294 1058 c 4,14,15
 280.0005 1058 280.0005 1058 270 1026 c 4,16,17
 259.798010712 993.360367253 259.798010712 993.360367253 251 965.5 c 4,18,19
 242 937 242 937 242 838 c 5,20,-1
 200 838 l 5,21,-1
 200 1442 l 5,22,-1
 246 1442 l 5,23,-1
 246 1360 l 5,24,25
 319.9995 1448.005 319.9995 1448.005 433 1448 c 4,26,27
 479.9995 1448 479.9995 1448 589.5 1411 c 132,-1,28
 699 1373.995 699 1373.995 754 1374 c 4,29,30
 842.9995 1374 842.9995 1374 912 1454 c 5,31,-1
 964 1454 l 5,32,-1
 964 1178 l 6,33,34
 964 1164.005 964 1164.005 924 1056 c 4,35,36
 883.9995 949.9995 883.9995 949.9995 862 886 c 132,-1,37
 839.9995 821.9995 839.9995 821.9995 816 753 c 4,38,39
 694.0005 400.9995 694.0005 400.9995 694 244 c 4,40,41
 694 -38 694 -38 530 -38 c 4,42,43
 450.0005 -38 450.0005 -38 402 39 c 132,-1,44
 354 115.99995 354 115.99995 354 212 c 132,-1,45
 354 308 354 308 370 371 c 132,-1,46
 386.0005 434 386.0005 434 420 507 c 132,-1,47
 454.0005 580.0005 454.0005 580.0005 517 662 c 132,-1,48
 580 744.0005 580 744.0005 702.5 874 c 132,-1,49
 825.0005 1004.0005 825.0005 1004.0005 858 1089 c 4,50,51
 880.0005 1146 880.0005 1146 880 1167 c 4,52,53
 880 1178 880 1178 875 1180 c 4,54,55
 873.0005 1181.005 873.0005 1181.005 870 1180 c 4,56,57
 853.9995 1181.005 853.9995 1181.005 822 1152 c 4,0,1
EndSplineSet
Fore
SplineSet
530 -13 m 0,0,1
 669 -13 669 -13 669 244 c 0,2,3
 669 405 669 405 792 761 c 2,4,5
 792 761 792 761 826 859.5 c 128,-1,6
 860 958 860 958 898 1058.5 c 128,-1,7
 936 1159 936 1159 937.5 1168.5 c 128,-1,8
 939 1178 939 1178 939 1429 c 1,9,-1
 923 1429 l 1,10,11
 849 1349 849 1349 754 1349 c 0,12,13
 695 1349 695 1349 585.5 1386 c 128,-1,14
 476 1423 476 1423 433 1423 c 0,15,16
 331 1423 331 1423 265 1344 c 0,17,18
 257 1335 257 1335 245 1335 c 128,-1,19
 233 1335 233 1335 225 1346 c 1,20,-1
 225 965 l 1,21,22
 225 965 225 965 243 1024 c 128,-1,23
 261 1083 261 1083 293 1083 c 0,24,25
 402 1083 402 1083 424 1072 c 0,26,27
 433 1071 433 1071 490 1071 c 128,-1,28
 547 1071 547 1071 556 1068 c 0,29,30
 703 1078 703 1078 805 1171 c 0,31,32
 844 1206 844 1206 874 1206 c 0,33,34
 878 1206 878 1206 891.5 1200 c 128,-1,35
 905 1194 905 1194 905 1167.5 c 128,-1,36
 905 1141 905 1141 875.5 1065.5 c 128,-1,37
 846 990 846 990 722.5 859 c 128,-1,38
 599 728 599 728 537.5 647.5 c 128,-1,39
 476 567 476 567 443 496.5 c 128,-1,40
 410 426 410 426 394.5 365.5 c 128,-1,41
 379 305 379 305 379 214 c 128,-1,42
 379 123 379 123 421.5 55 c 128,-1,43
 464 -13 464 -13 530 -13 c 0,0,1
551 1043 m 0,44,45
 550 1044 550 1044 481 1044 c 128,-1,46
 412 1044 412 1044 412 1051 c 128,-1,47
 412 1058 412 1058 294 1058 c 0,48,49
 280 1058 280 1058 270 1026 c 128,-1,50
 260 994 260 994 251 966 c 128,-1,51
 242 938 242 938 242 838 c 1,52,-1
 200 838 l 1,53,-1
 200 1442 l 1,54,-1
 246 1442 l 1,55,-1
 246 1360 l 1,56,57
 320 1448 320 1448 433 1448 c 0,58,59
 480 1448 480 1448 589.5 1411 c 128,-1,60
 699 1374 699 1374 754 1374 c 0,61,62
 843 1374 843 1374 912 1454 c 1,63,-1
 964 1454 l 1,64,-1
 964 1178 l 2,65,66
 964 1164 964 1164 924 1057 c 128,-1,67
 884 950 884 950 862 886 c 128,-1,68
 840 822 840 822 816 753 c 0,69,70
 694 401 694 401 694 244 c 0,71,72
 694 -38 694 -38 530 -38 c 0,73,74
 450 -38 450 -38 402 39 c 128,-1,75
 354 116 354 116 354 212 c 128,-1,76
 354 308 354 308 370 371 c 128,-1,77
 386 434 386 434 420 507 c 128,-1,78
 454 580 454 580 517 662 c 128,-1,79
 580 744 580 744 702.5 874 c 128,-1,80
 825 1004 825 1004 852.5 1075 c 128,-1,81
 880 1146 880 1146 880 1164.5 c 128,-1,82
 880 1183 880 1183 870 1180 c 1,83,84
 854 1182 854 1182 819 1150 c 0,85,86
 701 1044 701 1044 551 1043 c 0,44,45
EndSplineSet
Validated: 1
EndChar

StartChar: eight
Encoding: 56 56 24
Width: 1196
GlyphClass: 2
Flags: W
LayerCount: 2
Back
SplineSet
178 313 m 4,0,1
 178 425.0005 178 425.0005 231 499 c 4,2,3
 256.0005 533.9995 256.0005 533.9995 318.5 585 c 132,-1,4
 381.0005 636 381.0005 636 419 654 c 5,5,6
 249.9995 856.0005 249.9995 856.0005 230 1033 c 4,7,8
 222.9995 1093 222.9995 1093 228 1125 c 4,9,10
 241.0005 1198.995 241.0005 1198.995 241.75 1202.75 c 4,11,12
 248.998731245 1262.99861041 248.998731245 1262.99861041 312 1332 c 4,13,14
 423 1453.995 423 1453.995 602 1454 c 4,15,16
 852.0005 1454 852.0005 1454 928 1284 c 4,17,18
 953.9995 1225.995 953.9995 1225.995 954 1138 c 4,19,20
 954 985 954 985 793 810 c 5,21,22
 806.0005 810 806.0005 810 847 757.5 c 4,23,24
 884.9995 709.0005 884.9995 709.0005 905.943 684.057 c 4,25,26
 963 613.9995 963 613.9995 982 563 c 4,27,28
 1025.995 441.9995 1025.995 441.9995 1020 387 c 4,29,30
 997.005 154.9995 997.005 154.9995 901 68.5 c 4,31,32
 782.9995 -38 782.9995 -38 560 -38 c 4,33,34
 405.9995 -38 405.9995 -38 302 41 c 4,35,36
 177.9995 135.9995 177.9995 135.9995 178 313 c 4,0,1
668 912 m 5,37,38
 698 958 698 958 728 1034 c 132,-1,39
 758 1110 758 1110 758 1168 c 4,40,41
 758 1368.73 758 1368.73 638 1382 c 4,42,43
 569 1389.995 569 1389.995 516 1322 c 4,44,45
 482 1278 482 1278 477 1249 c 132,-1,46
 472 1220 472 1220 472 1179 c 4,47,48
 472 1113 472 1113 530 1043 c 132,-1,49
 588.0005 972.9995 588.0005 972.9995 668 912 c 5,37,38
440 440 m 5,50,51
 393.9995 378.9995 393.9995 378.9995 394 296 c 6,52,-1
 395 258 l 6,53,54
 396.0005 220.0005 396.0005 220.0005 410 171 c 4,55,56
 438.9995 72 438.9995 72 493 43 c 4,57,58
 521.9995 28 521.9995 28 552 28 c 6,59,-1
 592 28 l 6,60,61
 629.9995 29.99995 629.9995 29.99995 674 61 c 4,62,63
 716 92.00005 716 92.00005 731 124 c 132,-1,64
 746 155.9995 746 155.9995 745 169 c 5,65,66
 739 182.0005 739 182.0005 735 218 c 4,67,68
 720 350 720 350 522 535 c 5,69,-1
 440 440 l 5,50,51
EndSplineSet
Fore
SplineSet
267 1200 m 1,0,1
 267 1200 267 1200 251 1090 c 1,2,3
 251 893 251 893 438 670 c 0,4,5
 444 664 444 664 444 651 c 128,-1,6
 444 638 444 638 419.5 626 c 128,-1,7
 395 614 395 614 334.5 565.5 c 128,-1,8
 274 517 274 517 251 484 c 0,9,10
 203 417 203 417 203 313 c 0,11,12
 203 148 203 148 308.5 67.5 c 128,-1,13
 414 -13 414 -13 560 -13 c 0,14,15
 773 -13 773 -13 884 87 c 0,16,17
 973 167 973 167 995 389 c 1,18,19
 995 389 995 389 996 422 c 0,20,21
 996 454 996 454 969 526 c 0,22,23
 942 600 942 600 904 647 c 128,-1,24
 866 694 866 694 833.5 735.5 c 128,-1,25
 801 777 801 777 788 785 c 1,26,27
 768 788 768 788 768 810 c 0,28,29
 768 820 768 820 775 827 c 0,30,31
 929 995 929 995 929 1138 c 0,32,33
 929 1429 929 1429 602 1429 c 0,34,35
 434 1429 434 1429 331 1315 c 0,36,37
 273 1252 273 1252 267 1200 c 1,0,1
447 1179 m 0,38,39
 447 1222 447 1222 452.5 1255 c 128,-1,40
 458 1288 458 1288 504.5 1348 c 128,-1,41
 551 1408 551 1408 617.5 1408 c 128,-1,42
 684 1408 684 1408 733.5 1359 c 128,-1,43
 783 1310 783 1310 783 1168 c 0,44,45
 783 1105 783 1105 751.5 1025.5 c 128,-1,46
 720 946 720 946 689 898 c 0,47,48
 682 887 682 887 671 887 c 128,-1,49
 660 887 660 887 653 892 c 0,50,51
 447 1050 447 1050 447 1179 c 0,38,39
420 455 m 1,52,53
 420 455 420 455 504 553 c 0,54,55
 511 560 511 560 521.5 560 c 128,-1,56
 532 560 532 560 539 553 c 0,57,58
 744 362 744 362 760 221 c 0,59,60
 764 189 764 189 767 181.5 c 128,-1,61
 770 174 770 174 770 161 c 128,-1,62
 770 148 770 148 753 111.5 c 128,-1,63
 736 75 736 75 689 41 c 1,64,65
 689 41 689 41 688 41 c 0,66,67
 638 6 638 6 593 3 c 1,68,69
 593 3 593 3 554 3 c 0,70,71
 433 3 433 3 386 164 c 0,72,73
 371 216 371 216 370 257 c 2,74,-1
 369 286 l 1,75,76
 369 286 369 286 369 296 c 0,77,78
 369 387 369 387 420 455 c 1,52,53
440 440 m 1,79,80
 394 379 394 379 394 296 c 1,81,-1
 395 258 l 2,82,83
 396 220 396 220 410 171 c 0,84,85
 452 28 452 28 552 28 c 2,86,-1
 592 28 l 1,87,88
 630 30 630 30 674 61 c 0,89,90
 716 92 716 92 731 124 c 128,-1,91
 746 156 746 156 745 169 c 1,92,93
 739 182 739 182 735 218 c 0,94,95
 720 350 720 350 522 535 c 1,96,-1
 440 440 l 1,79,80
668 912 m 1,97,98
 698 958 698 958 728 1034 c 128,-1,99
 758 1110 758 1110 758 1168 c 0,100,101
 758 1369 758 1369 638 1382 c 0,102,103
 631 1383 631 1383 624 1383 c 0,104,105
 564 1383 564 1383 516 1322 c 0,106,107
 482 1278 482 1278 477 1249 c 128,-1,108
 472 1220 472 1220 472 1166.5 c 128,-1,109
 472 1113 472 1113 530 1043 c 128,-1,110
 588 973 588 973 668 912 c 1,97,98
178 313 m 0,111,112
 178 425 178 425 231 499 c 0,113,114
 256 534 256 534 318.5 585 c 128,-1,115
 381 636 381 636 419 654 c 1,116,117
 250 856 250 856 230 1033 c 0,118,119
 227 1059 227 1059 227 1085 c 0,120,121
 227 1143 227 1143 242 1203 c 1,122,123
 249 1263 249 1263 312 1332 c 0,124,125
 423 1454 423 1454 602 1454 c 0,126,127
 852 1454 852 1454 928 1284 c 0,128,129
 954 1226 954 1226 954 1138 c 0,130,131
 954 985 954 985 793 810 c 1,132,133
 806 810 806 810 845.5 760 c 128,-1,134
 885 710 885 710 924 662 c 0,135,136
 962 614 962 614 994 528 c 0,137,138
 1020 456 1020 456 1021 405 c 0,139,140
 1021 395 1021 395 1020 387 c 0,141,142
 997 154 997 154 901 68 c 0,143,144
 783 -38 783 -38 560 -38 c 0,145,146
 406 -38 406 -38 302 41 c 0,147,148
 178 136 178 136 178 313 c 0,111,112
EndSplineSet
Validated: 2049
EndChar

StartChar: nine
Encoding: 57 57 25
Width: 1222
GlyphClass: 2
Flags: W
LayerCount: 2
Back
SplineSet
226 242 m 4,0,1
 226 292 226 292 238 329 c 132,-1,2
 250 366 250 366 272 393 c 132,-1,3
 294 420 294 420 324 433 c 132,-1,4
 354 446 354 446 390 446 c 260,5,6
 426 446 426 446 457 433 c 132,-1,7
 488 420 488 420 511 393 c 132,-1,8
 534 366 534 366 547 328 c 132,-1,9
 560 290 560 290 560 242 c 4,10,11
 560 162 560 162 528 115 c 132,-1,12
 496 68 496 68 436 52 c 5,13,14
 450 48 450 48 468 46 c 132,-1,15
 486 44 486 44 500 44 c 4,16,17
 552 44 552 44 583 69 c 132,-1,18
 614 94 614 94 632 157 c 132,-1,19
 650 220 650 220 656 324 c 132,-1,20
 662 428 662 428 664 586 c 5,21,22
 644 572 644 572 620 557 c 132,-1,23
 596 542 596 542 569 530 c 132,-1,24
 542 518 542 518 514 512 c 132,-1,25
 486 506 486 506 458 506 c 4,26,27
 396 506 396 506 345 538 c 132,-1,28
 294 570 294 570 259 626 c 132,-1,29
 224 682 224 682 205 760 c 132,-1,30
 186 838 186 838 186 932 c 4,31,32
 186 994 186 994 194 1056 c 132,-1,33
 202 1118 202 1118 220 1176 c 132,-1,34
 238 1234 238 1234 267 1285 c 132,-1,35
 296 1336 296 1336 339 1374 c 132,-1,36
 382 1412 382 1412 440 1433 c 132,-1,37
 498 1454 498 1454 574 1454 c 4,38,39
 700 1454 700 1454 787 1404 c 132,-1,40
 874 1354 874 1354 926 1261 c 132,-1,41
 978 1168 978 1168 1000 1038 c 132,-1,42
 1022 908 1022 908 1022 748 c 4,43,44
 1022 642 1022 642 1014 541 c 132,-1,45
 1006 440 1006 440 986 353 c 132,-1,46
 966 266 966 266 934 194 c 132,-1,47
 902 122 902 122 852 70 c 132,-1,48
 802 18 802 18 734 -10 c 132,-1,49
 666 -38 666 -38 576 -38 c 4,50,51
 490 -38 490 -38 425 -18 c 132,-1,52
 360 2 360 2 316 40 c 132,-1,53
 272 78 272 78 249 129 c 132,-1,54
 226 180 226 180 226 242 c 4,0,1
608 684 m 4,55,56
 634 684 634 684 664 698 c 5,57,-1
 664 718 l 6,58,59
 664 880 664 880 663 1003 c 132,-1,60
 662 1126 662 1126 654 1209 c 132,-1,61
 646 1292 646 1292 629 1334 c 132,-1,62
 612 1376 612 1376 584 1376 c 4,63,64
 568 1376 568 1376 551 1364 c 132,-1,65
 534 1352 534 1352 522 1316 c 132,-1,66
 510 1280 510 1280 502 1218 c 132,-1,67
 494 1156 494 1156 494 1058 c 4,68,69
 494 964 494 964 500 894 c 132,-1,70
 506 824 506 824 519 778 c 132,-1,71
 532 732 532 732 554 708 c 132,-1,72
 576 684 576 684 608 684 c 4,55,56
EndSplineSet
Fore
SplineSet
664 586 m 1,0,1
 550 506 550 506 473 506 c 128,-1,2
 396 506 396 506 345 538 c 128,-1,3
 294 570 294 570 259 626 c 0,4,5
 186 743 186 743 186 932 c 0,6,7
 186 1143 186 1143 267 1285 c 0,8,9
 363 1454 363 1454 574 1454 c 0,10,11
 930 1454 930 1454 1000 1038 c 0,12,13
 1022 908 1022 908 1022 775 c 128,-1,14
 1022 642 1022 642 1014 541 c 128,-1,15
 1006 440 1006 440 986 353 c 128,-1,16
 966 266 966 266 934 194 c 128,-1,17
 902 122 902 122 852 70 c 0,18,19
 748 -38 748 -38 576 -38 c 0,20,21
 324 -38 324 -38 249 129 c 0,22,23
 226 180 226 180 226 236 c 128,-1,24
 226 292 226 292 238 329 c 128,-1,25
 250 366 250 366 272 393 c 128,-1,26
 294 420 294 420 324 433 c 128,-1,27
 354 446 354 446 390 446 c 128,-1,28
 426 446 426 446 457 433 c 128,-1,29
 488 420 488 420 511 393 c 0,30,31
 560 335 560 335 560 242 c 0,32,33
 560 85 560 85 436 52 c 1,34,35
 464 44 464 44 508 44 c 128,-1,36
 552 44 552 44 583 69 c 128,-1,37
 614 94 614 94 632 157 c 0,38,39
 660 254 660 254 664 586 c 1,0,1
554 708 m 128,-1,41
 576 684 576 684 605 684 c 128,-1,42
 634 684 634 684 664 698 c 1,43,-1
 664 718 l 2,44,45
 664 1105 664 1105 655 1199 c 0,46,47
 638 1376 638 1376 584 1376 c 0,48,49
 542 1376 542 1376 522 1316 c 0,50,51
 494 1232 494 1232 494 1098 c 128,-1,52
 494 964 494 964 500 894 c 128,-1,53
 506 824 506 824 519 778 c 128,-1,40
 532 732 532 732 554 708 c 128,-1,41
689 698 m 2,54,55
 689 688 689 688 675 673.5 c 128,-1,56
 661 659 661 659 613 659 c 128,-1,57
 565 659 565 659 537.5 689 c 128,-1,58
 510 719 510 719 496 769 c 0,59,60
 470 860 470 860 470 1048 c 0,61,62
 470 1052 470 1052 469 1056 c 0,63,64
 469 1237 469 1237 491 1302 c 0,65,66
 513 1368 513 1368 536.5 1384.5 c 128,-1,67
 560 1401 560 1401 584 1401 c 0,68,69
 628 1401 628 1401 649 1349.5 c 128,-1,70
 670 1298 670 1298 678 1212 c 0,71,72
 688 1106 688 1106 689 718 c 2,73,-1
 689 698 l 2,54,55
598.5 49 m 128,-1,75
 561 19 561 19 486 19 c 0,76,77
 411 20 411 20 411 52 c 0,78,79
 411 74 411 74 430 76 c 0,80,81
 535 105 535 105 535 242 c 0,82,83
 535 333 535 333 485 385 c 0,84,85
 449 421 449 421 388 421 c 128,-1,86
 327 421 327 421 289 374.5 c 128,-1,87
 251 328 251 328 251 228.5 c 128,-1,88
 251 129 251 129 332 59 c 0,89,90
 414 -13 414 -13 578 -13 c 0,91,92
 815 -13 815 -13 911 204 c 0,93,94
 997 398 997 398 997 748 c 0,95,96
 997 1083 997 1083 904 1249 c 0,97,98
 803 1429 803 1429 574 1429 c 0,99,100
 326 1429 326 1429 244 1169 c 0,101,102
 211 1063 211 1063 211 952 c 0,103,104
 211 651 211 651 358 559 c 0,105,106
 403 531 403 531 456.5 531 c 128,-1,107
 510 531 510 531 554 550.5 c 128,-1,108
 598 570 598 570 628 590.5 c 128,-1,109
 658 611 658 611 665.5 611.5 c 128,-1,110
 673 612 673 612 681 604 c 128,-1,111
 689 596 689 596 689 586 c 0,112,113
 685 251 685 251 660.5 165 c 128,-1,74
 636 79 636 79 598.5 49 c 128,-1,75
EndSplineSet
Validated: 1
EndChar

StartChar: less
Encoding: 60 60 28
Width: 582
GlyphClass: 2
Flags: W
LayerCount: 2
Back
SplineSet
-4 490 m 5,0,-1
 502 972 l 5,1,-1
 590 884 l 5,2,-1
 174 490 l 5,3,-1
 590 94 l 5,4,-1
 502 6 l 5,5,-1
 -4 490 l 5,0,-1
EndSplineSet
Fore
SplineSet
157 508 m 2,0,-1
 554 884 l 1,1,-1
 502 937 l 1,2,-1
 32 490 l 1,3,-1
 502 41 l 1,4,-1
 554 94 l 1,5,6
 157 472 157 472 153 475.5 c 128,-1,7
 149 479 149 479 149 490 c 128,-1,8
 149 501 149 501 157 508 c 2,0,-1
-4 490 m 1,9,-1
 502 972 l 1,10,-1
 590 884 l 1,11,-1
 174 490 l 1,12,-1
 590 94 l 1,13,-1
 502 6 l 1,14,-1
 -4 490 l 1,9,-1
EndSplineSet
Validated: 1
EndChar

StartChar: greater
Encoding: 62 62 30
Width: 582
GlyphClass: 2
Flags: W
LayerCount: 2
Back
SplineSet
594 490 m 5,0,-1
 88 6 l 5,1,-1
 0 94 l 5,2,-1
 416 490 l 5,3,-1
 0 884 l 5,4,-1
 88 972 l 5,5,-1
 594 490 l 5,0,-1
EndSplineSet
Fore
SplineSet
433 472 m 2,0,-1
 36 94 l 1,1,-1
 88 41 l 1,2,-1
 558 490 l 1,3,-1
 88 937 l 1,4,-1
 36 884 l 1,5,6
 433 508 433 508 437 504.5 c 128,-1,7
 441 501 441 501 441 490 c 128,-1,8
 441 479 441 479 433 472 c 2,0,-1
594 490 m 1,9,-1
 88 6 l 1,10,-1
 0 94 l 1,11,-1
 416 490 l 1,12,-1
 0 884 l 1,13,-1
 88 972 l 1,14,-1
 594 490 l 1,9,-1
EndSplineSet
Validated: 1
EndChar

StartChar: at
Encoding: 64 64 32
Width: 2080
GlyphClass: 2
Flags: W
LayerCount: 2
Back
SplineSet
1460 140 m 4,0,1
 1536 140 1536 140 1602 216 c 4,2,3
 1656 278 1656 278 1704 356 c 4,4,5
 1750 432 1750 432 1779 531 c 132,-1,6
 1808 630 1808 630 1808 736 c 4,7,8
 1808 884 1808 884 1750 1008 c 132,-1,9
 1692 1132 1692 1132 1578 1224 c 132,-1,10
 1464 1316 1464 1316 1343 1369 c 132,-1,11
 1222 1422 1222 1422 1088 1422 c 4,12,13
 950 1422 950 1422 844 1394 c 132,-1,14
 738 1366 738 1366 659 1314 c 132,-1,15
 580 1262 580 1262 501 1186 c 132,-1,16
 422 1110 422 1110 374 1013 c 132,-1,17
 326 916 326 916 291 800 c 132,-1,18
 256 684 256 684 256 550 c 4,19,20
 256 352 256 352 321 213 c 132,-1,21
 386 74 386 74 481 -15 c 132,-1,22
 576 -104 576 -104 708 -145 c 132,-1,23
 840 -186 840 -186 1044 -186 c 4,24,25
 1164 -186 1164 -186 1275 -162 c 132,-1,26
 1386 -138 1386 -138 1485 -99 c 132,-1,27
 1584 -60 1584 -60 1674 -10 c 132,-1,28
 1764 40 1764 40 1842 92 c 5,29,30
 1842 92 1842 92 1890 30 c 5,31,32
 1852 -6 1852 -6 1799 -52 c 132,-1,33
 1746 -98 1746 -98 1679 -145 c 132,-1,34
 1612 -192 1612 -192 1533 -237 c 132,-1,35
 1454 -282 1454 -282 1385 -316 c 132,-1,36
 1316 -350 1316 -350 1221 -371 c 132,-1,37
 1126 -392 1126 -392 1054 -392 c 4,38,39
 908 -392 908 -392 804 -368 c 132,-1,40
 700 -344 700 -344 602 -303 c 132,-1,41
 504 -262 504 -262 423 -193 c 132,-1,42
 342 -124 342 -124 273 -13 c 132,-1,43
 204 98 204 98 160 238 c 132,-1,44
 116 378 116 378 116 542 c 4,45,46
 116 674 116 674 143 810 c 132,-1,47
 170 946 170 946 233 1068 c 132,-1,48
 296 1190 296 1190 381 1288 c 132,-1,49
 466 1386 466 1386 575 1463 c 132,-1,50
 684 1540 684 1540 826 1584 c 132,-1,51
 968 1628 968 1628 1166 1628 c 4,52,53
 1210 1628 1210 1628 1288 1608 c 132,-1,54
 1366 1588 1366 1588 1455 1544 c 132,-1,55
 1544 1500 1544 1500 1637 1432 c 132,-1,56
 1730 1364 1730 1364 1800 1268 c 132,-1,57
 1870 1172 1870 1172 1911 1048 c 132,-1,58
 1952 924 1952 924 1952 768 c 4,59,60
 1952 672 1952 672 1930 579 c 4,61,62
 1907 480 1907 480 1860 386 c 4,63,64
 1817 299 1817 299 1774 248 c 4,65,66
 1671 125 1671 125 1596 74 c 28,67,68
 1548 42 1548 42 1446 12 c 4,69,70
 1380 -8 1380 -8 1320 -8 c 4,71,72
 1262 -8 1262 -8 1221 13 c 132,-1,73
 1180 34 1180 34 1153 69 c 132,-1,74
 1126 104 1126 104 1114 147 c 132,-1,75
 1102 190 1102 190 1100 232 c 5,76,77
 1084 180 1084 180 1060 136 c 132,-1,78
 1036 92 1036 92 1002 60 c 132,-1,79
 968 28 968 28 921 10 c 132,-1,80
 874 -8 874 -8 812 -8 c 4,81,82
 740 -8 740 -8 681 26 c 132,-1,83
 622 60 622 60 580 121 c 132,-1,84
 538 182 538 182 517 269 c 132,-1,85
 496 356 496 356 496 464 c 4,86,87
 496 648 496 648 531 784 c 132,-1,88
 566 920 566 920 627 1008 c 132,-1,89
 688 1096 688 1096 770 1139 c 132,-1,90
 852 1182 852 1182 942 1182 c 4,91,92
 1008 1182 1008 1182 1055 1157 c 132,-1,93
 1102 1132 1102 1132 1132 1090 c 132,-1,94
 1162 1048 1162 1048 1177 992 c 132,-1,95
 1192 936 1192 936 1194 868 c 5,96,97
 1194 868 1194 868 1228 1076 c 5,98,-1
 1540 1076 l 5,99,100
 1526 1026 1526 1026 1511 955 c 132,-1,101
 1496 884 1496 884 1481 804 c 132,-1,102
 1466 724 1466 724 1455 640 c 132,-1,103
 1444 556 1444 556 1435 477 c 132,-1,104
 1426 398 1426 398 1421 329 c 132,-1,105
 1416 260 1416 260 1416 212 c 4,106,107
 1416 172 1416 172 1429 156 c 132,-1,108
 1442 140 1442 140 1460 140 c 4,0,1
872 398 m 4,109,110
 872 316 872 316 879 264 c 132,-1,111
 886 212 886 212 898 183 c 132,-1,112
 910 154 910 154 925 143 c 132,-1,113
 940 132 940 132 958 132 c 4,114,115
 990 132 990 132 1024 178 c 132,-1,116
 1058 224 1058 224 1085 309 c 132,-1,117
 1112 394 1112 394 1130 513 c 132,-1,118
 1148 632 1148 632 1148 776 c 4,119,120
 1148 838 1148 838 1144 888 c 132,-1,121
 1140 938 1140 938 1131 975 c 132,-1,122
 1122 1012 1122 1012 1107 1031 c 132,-1,123
 1092 1050 1092 1050 1070 1050 c 4,124,125
 1034 1050 1034 1050 998 1004 c 132,-1,126
 962 958 962 958 934 873 c 132,-1,127
 906 788 906 788 889 667 c 132,-1,128
 872 546 872 546 872 398 c 4,109,110
EndSplineSet
Fore
SplineSet
1836 58 m 1,0,1
 1427 -211 1427 -211 1044 -211 c 0,2,3
 1039 -211 1039 -211 1035 -211 c 0,4,5
 833 -211 833 -211 695 -168 c 0,6,7
 434 -87 434 -87 298 202 c 0,8,9
 231 346 231 346 231 517 c 128,-1,10
 231 688 231 688 267 806 c 0,11,12
 302 924 302 924 352 1025 c 0,13,14
 440 1202 440 1202 646 1335 c 0,15,16
 816 1447 816 1447 1088 1447 c 0,17,18
 1343 1447 1343 1447 1594 1243 c 0,19,20
 1833 1050 1833 1050 1833 736 c 0,21,22
 1833 443 1833 443 1621 200 c 0,23,24
 1547 115 1547 115 1460 115 c 0,25,26
 1429 115 1429 115 1410 139 c 128,-1,27
 1391 163 1391 163 1391 231 c 0,28,29
 1391 234 1391 234 1391 238 c 0,30,31
 1391 343 1391 343 1419 559 c 0,32,33
 1450 795 1450 795 1507 1051 c 1,34,-1
 1249 1051 l 1,35,-1
 1219 864 l 2,36,37
 1216 843 1216 843 1195 843 c 128,-1,38
 1174 843 1174 843 1171 859 c 1,39,40
 1173 818 1173 818 1173 724 c 0,41,42
 1172 630 1172 630 1154 509 c 0,43,44
 1129 348 1129 348 1093 256 c 1,45,46
 1096 257 1096 257 1103 257 c 128,-1,47
 1110 257 1110 257 1118 250 c 0,48,49
 1126 242 1126 242 1126 218 c 0,50,51
 1131 89 1131 89 1232 35 c 0,52,53
 1268 17 1268 17 1322 17 c 128,-1,54
 1376 17 1376 17 1457 41 c 128,-1,55
 1538 65 1538 65 1596 104.5 c 128,-1,56
 1654 144 1654 144 1755 264 c 0,57,58
 1796 313 1796 313 1838 397 c 0,59,60
 1927 576 1927 576 1927 748 c 128,-1,61
 1927 920 1927 920 1887 1040 c 128,-1,62
 1847 1160 1847 1160 1779.5 1253 c 128,-1,63
 1712 1346 1712 1346 1622 1412 c 0,64,65
 1532 1480 1532 1480 1444 1522 c 0,66,67
 1277 1603 1277 1603 1166 1603 c 0,68,69
 818 1603 818 1603 589 1443 c 0,70,71
 380 1296 380 1296 256 1057 c 0,72,73
 142 835 142 835 141 542 c 0,74,75
 141 249 141 249 294 0 c 0,76,77
 416 -198 416 -198 612 -280 c 0,78,79
 708 -320 708 -320 809.5 -343.5 c 128,-1,80
 911 -367 911 -367 1017 -367 c 128,-1,81
 1123 -367 1123 -367 1215.5 -346.5 c 128,-1,82
 1308 -326 1308 -326 1375 -293 c 0,83,84
 1624 -170 1624 -170 1783 -33 c 0,85,86
 1824 3 1824 3 1856 33 c 1,87,-1
 1836 58 l 1,0,1
1050 172 m 1,88,89
 1006 107 1006 107 958 107 c 0,90,91
 847 107 847 107 847 398 c 0,92,93
 847 688 847 688 911 882 c 0,94,95
 947 990 947 990 989 1032.5 c 128,-1,96
 1031 1075 1031 1075 1071.5 1075 c 128,-1,97
 1112 1075 1112 1075 1137 1032 c 1,98,99
 1080 1157 1080 1157 942 1157 c 0,100,101
 760 1157 760 1157 647 993 c 0,102,103
 521 811 521 811 521 464 c 0,104,105
 521 207 521 207 637 91 c 0,106,107
 712 17 712 17 818 17 c 0,108,109
 978 17 978 17 1050 172 c 1,88,89
1070 1050 m 0,110,111
 1034 1050 1034 1050 998 1004 c 128,-1,112
 962 958 962 958 934 873 c 0,113,114
 872 685 872 685 872 408.5 c 128,-1,115
 872 132 872 132 958 132 c 0,116,117
 990 132 990 132 1024 178 c 128,-1,118
 1058 224 1058 224 1085 309 c 0,119,120
 1148 507 1148 507 1148 778.5 c 128,-1,121
 1148 1050 1148 1050 1070 1050 c 0,110,111
1421 329 m 128,-1,123
 1416 260 1416 260 1416 200 c 128,-1,124
 1416 140 1416 140 1460 140 c 0,125,126
 1536 140 1536 140 1596 209 c 128,-1,127
 1656 278 1656 278 1703 355 c 0,128,129
 1808 527 1808 527 1808 736 c 0,130,131
 1808 1038 1808 1038 1578 1224 c 0,132,133
 1333 1422 1333 1422 1088 1422 c 0,134,135
 823 1422 823 1422 659 1314 c 0,136,137
 457 1181 457 1181 374 1013 c 0,138,139
 256 775 256 775 256 563.5 c 128,-1,140
 256 352 256 352 321 213 c 128,-1,141
 386 74 386 74 481 -15 c 128,-1,142
 576 -104 576 -104 708 -145 c 128,-1,143
 840 -186 840 -186 1044 -186 c 0,144,145
 1425 -186 1425 -186 1842 92 c 1,146,-1
 1890 30 l 1,147,148
 1676 -172 1676 -172 1385 -316 c 0,149,150
 1316 -350 1316 -350 1221 -371 c 128,-1,151
 1126 -392 1126 -392 1017 -392 c 128,-1,152
 908 -392 908 -392 804 -368 c 128,-1,153
 700 -344 700 -344 602 -303 c 128,-1,154
 504 -262 504 -262 423 -193 c 128,-1,155
 342 -124 342 -124 273 -13 c 0,156,157
 116 240 116 240 116 542 c 0,158,159
 116 982 116 982 381 1288 c 0,160,161
 569 1504 569 1504 826 1584 c 0,162,163
 968 1628 968 1628 1166 1628 c 0,164,165
 1285 1628 1285 1628 1455 1544 c 0,166,167
 1680 1433 1680 1433 1800 1268 c 0,168,169
 1952 1060 1952 1060 1952 768 c 0,170,171
 1952 570 1952 570 1860 386 c 0,172,173
 1817 299 1817 299 1774 248 c 0,174,175
 1671 125 1671 125 1609.5 83.5 c 128,-1,176
 1548 42 1548 42 1464 17 c 128,-1,177
 1380 -8 1380 -8 1321 -8 c 128,-1,178
 1262 -8 1262 -8 1221 13 c 128,-1,179
 1180 34 1180 34 1153 69 c 0,180,181
 1105 131 1105 131 1100 232 c 1,182,183
 1026 -8 1026 -8 812 -8 c 0,184,185
 669 -8 669 -8 580 121 c 0,186,187
 496 243 496 243 496 445.5 c 128,-1,188
 496 648 496 648 531 784 c 128,-1,189
 566 920 566 920 627 1008 c 0,190,191
 748 1182 748 1182 942 1182 c 0,192,193
 1066 1182 1066 1182 1132 1090 c 0,194,195
 1190 1009 1190 1009 1194 868 c 1,196,-1
 1228 1076 l 1,197,-1
 1540 1076 l 1,198,199
 1488 889 1488 889 1466 722.5 c 128,-1,200
 1444 556 1444 556 1435 477 c 128,-1,122
 1426 398 1426 398 1421 329 c 128,-1,123
EndSplineSet
Validated: 1
EndChar

StartChar: A
Encoding: 65 65 33
Width: 1492
GlyphClass: 2
Flags: W
LayerCount: 2
Back
SplineSet
64 80 m 5,0,1
 122 80 122 80 152 90 c 132,-1,2
 182 100 182 100 192 130 c 6,3,-1
 558 1418 l 5,4,-1
 868 1418 l 5,5,-1
 1296 80 l 5,6,-1
 1422 80 l 5,7,-1
 1422 0 l 5,8,-1
 616 0 l 5,9,-1
 616 80 l 5,10,-1
 754 80 l 5,11,-1
 656 424 l 5,12,-1
 342 424 l 5,13,-1
 258 134 l 6,14,15
 258 132 258 132 258 124 c 4,16,17
 258 110 258 110 268 102 c 132,-1,18
 278 94 278 94 296 89 c 132,-1,19
 314 84 314 84 337 82 c 132,-1,20
 360 80 360 80 390 80 c 5,21,-1
 390 0 l 5,22,-1
 64 0 l 5,23,-1
 64 80 l 5,0,1
632 504 m 5,24,-1
 496 974 l 5,25,-1
 364 504 l 5,26,-1
 632 504 l 5,24,-1
EndSplineSet
Fore
SplineSet
365 25 m 1,0,-1
 365 55 l 1,1,2
 313 58 313 58 288 65 c 0,3,4
 233 80 233 80 233 124 c 2,5,-1
 233 134 l 2,6,7
 233 138 233 138 234 141 c 2,8,-1
 318 431 l 2,9,10
 324 449 324 449 342 449 c 2,11,-1
 656 449 l 2,12,13
 677 449 677 449 680 431 c 1,14,-1
 778 87 l 2,15,16
 779 83 779 83 779 76.5 c 128,-1,17
 779 70 779 70 771.5 62.5 c 128,-1,18
 764 55 764 55 754 55 c 2,19,-1
 641 55 l 1,20,-1
 641 25 l 1,21,-1
 1397 25 l 1,22,-1
 1397 55 l 1,23,-1
 1296 55 l 2,24,25
 1278 55 1278 55 1272 72 c 2,26,-1
 850 1393 l 1,27,-1
 577 1393 l 1,28,29
 216 123 216 123 216 122 c 0,30,31
 202 80 202 80 167.5 68.5 c 128,-1,32
 133 57 133 57 89 56 c 1,33,-1
 89 25 l 1,34,-1
 365 25 l 1,0,-1
632 479 m 2,35,-1
 364 479 l 2,36,37
 354 479 354 479 346.5 486.5 c 128,-1,38
 339 494 339 494 339 500.5 c 128,-1,39
 339 507 339 507 340 511 c 2,40,-1
 472 981 l 2,41,42
 478 999 478 999 492 999 c 0,43,44
 517 999 517 999 520 981 c 1,45,-1
 656 511 l 2,46,47
 657 507 657 507 657 500.5 c 128,-1,48
 657 494 657 494 649.5 486.5 c 128,-1,49
 642 479 642 479 632 479 c 2,35,-1
632 504 m 1,50,-1
 496 974 l 1,51,-1
 364 504 l 1,52,-1
 632 504 l 1,50,-1
258 124 m 0,53,54
 258 80 258 80 390 80 c 1,55,-1
 390 0 l 1,56,-1
 64 0 l 1,57,-1
 64 80 l 1,58,59
 122 80 122 80 152 90 c 128,-1,60
 182 100 182 100 192 130 c 1,61,-1
 558 1418 l 1,62,-1
 868 1418 l 1,63,-1
 1296 80 l 1,64,-1
 1422 80 l 1,65,-1
 1422 0 l 1,66,-1
 616 0 l 1,67,-1
 616 80 l 1,68,-1
 754 80 l 1,69,-1
 656 424 l 1,70,-1
 342 424 l 1,71,-1
 258 134 l 1,72,73
 258 134 258 134 258 124 c 0,53,54
EndSplineSet
Validated: 1
EndChar

StartChar: B
Encoding: 66 66 34
Width: 1378
GlyphClass: 2
Flags: W
LayerCount: 2
Back
SplineSet
92 80 m 5,0,-1
 218 80 l 5,1,-1
 218 1340 l 5,2,-1
 92 1340 l 5,3,-1
 92 1418 l 5,4,-1
 812 1418 l 6,5,6
 904 1418 904 1418 983 1402 c 132,-1,7
 1062 1386 1062 1386 1121 1346 c 132,-1,8
 1180 1306 1180 1306 1214 1239 c 132,-1,9
 1248 1172 1248 1172 1248 1070 c 4,10,11
 1248 986 1248 986 1223 925 c 132,-1,12
 1198 864 1198 864 1148 824 c 132,-1,13
 1098 784 1098 784 1018 765 c 132,-1,14
 938 746 938 746 828 744 c 5,15,16
 888 744 888 744 948 739 c 132,-1,17
 1008 734 1008 734 1061 721 c 132,-1,18
 1114 708 1114 708 1160 684 c 132,-1,19
 1206 660 1206 660 1242 620 c 4,20,21
 1274 580 1274 580 1294 522 c 4,22,23
 1314 466 1314 466 1314 386 c 4,24,25
 1314 272 1314 272 1284 196 c 132,-1,26
 1254 120 1254 120 1196 77 c 132,-1,27
 1138 34 1138 34 1054 17 c 132,-1,28
 970 0 970 0 864 0 c 6,29,-1
 92 0 l 5,30,-1
 92 80 l 5,0,-1
706 774 m 5,31,32
 738 774 738 774 766 785 c 132,-1,33
 794 796 794 796 815 828 c 132,-1,34
 836 860 836 860 847 916 c 132,-1,35
 858 972 858 972 858 1062 c 260,36,37
 858 1152 858 1152 847 1208 c 132,-1,38
 836 1264 836 1264 815 1294 c 132,-1,39
 794 1324 794 1324 766 1335 c 132,-1,40
 738 1346 738 1346 706 1346 c 5,41,-1
 706 774 l 5,31,32
706 80 m 5,42,43
 744 80 744 80 773 89 c 132,-1,44
 802 98 802 98 821 127 c 132,-1,45
 840 156 840 156 849 210 c 132,-1,46
 858 264 858 264 858 354 c 4,47,48
 858 534 858 534 821 617 c 132,-1,49
 784 700 784 700 706 700 c 5,50,-1
 706 80 l 5,42,43
EndSplineSet
Fore
SplineSet
218 1365 m 2,0,1
 228 1365 228 1365 235.5 1357.5 c 128,-1,2
 243 1350 243 1350 243 1340 c 2,3,-1
 243 80 l 2,4,5
 243 70 243 70 235.5 62.5 c 128,-1,6
 228 55 228 55 218 55 c 2,7,-1
 117 55 l 1,8,-1
 117 25 l 1,9,-1
 864 25 l 2,10,11
 1086 25 1086 25 1181 97 c 0,12,13
 1289 178 1289 178 1289 386 c 0,14,15
 1289 588 1289 588 1148 662 c 0,16,17
 1068 704 1068 704 977.5 711.5 c 128,-1,18
 887 719 887 719 852.5 719 c 128,-1,19
 818 719 818 719 810.5 726.5 c 128,-1,20
 803 734 803 734 803 744 c 128,-1,21
 803 754 803 754 810 761.5 c 128,-1,22
 817 769 817 769 876 770 c 0,23,24
 934 770 934 770 1018 790 c 0,25,26
 1222 838 1222 838 1223 1070 c 0,27,28
 1223 1329 1223 1329 978 1378 c 0,29,30
 906 1393 906 1393 862 1393 c 2,31,32
 862 1393 862 1393 117 1393 c 1,33,-1
 117 1365 l 1,34,-1
 218 1365 l 2,0,1
681 774 m 2,35,-1
 681 1346 l 2,36,37
 681 1356 681 1356 688.5 1363.5 c 128,-1,38
 696 1371 696 1371 719.5 1371 c 128,-1,39
 743 1371 743 1371 775 1358 c 0,40,41
 848 1329 848 1329 872 1213 c 0,42,43
 883 1154 883 1154 883 1062 c 0,44,45
 883 801 883 801 775 762 c 0,46,47
 744 749 744 749 720 749 c 0,48,49
 682 749 682 749 681 774 c 2,35,-1
681 80 m 2,50,-1
 681 700 l 2,51,52
 681 710 681 710 688.5 717.5 c 128,-1,53
 696 725 696 725 706 725 c 0,54,55
 802 725 802 725 842.5 632 c 128,-1,56
 883 539 883 539 883 400.5 c 128,-1,57
 883 262 883 262 873 204 c 0,58,59
 854 88 854 88 780 65 c 0,60,61
 748 55 748 55 722 55 c 0,62,63
 682 55 682 55 681 80 c 2,50,-1
706 80 m 1,64,65
 790 80 790 80 821 127 c 0,66,67
 858 183 858 183 858 358.5 c 128,-1,68
 858 534 858 534 821 617 c 128,-1,69
 784 700 784 700 706 700 c 1,70,-1
 706 80 l 1,64,65
706 774 m 1,71,72
 780 774 780 774 815 828 c 0,73,74
 858 894 858 894 858 1062 c 0,75,76
 858 1299 858 1299 766 1335 c 0,77,78
 738 1346 738 1346 706 1346 c 1,79,-1
 706 774 l 1,71,72
92 80 m 1,80,-1
 218 80 l 1,81,-1
 218 1340 l 1,82,-1
 92 1340 l 1,83,-1
 92 1418 l 1,84,-1
 812 1418 l 2,85,86
 1123 1418 1123 1418 1214 1239 c 0,87,88
 1248 1172 1248 1172 1248 1079 c 128,-1,89
 1248 986 1248 986 1223 925 c 128,-1,90
 1198 864 1198 864 1148 824 c 0,91,92
 1053 748 1053 748 828 744 c 1,93,94
 1130 744 1130 744 1242 620 c 1,95,96
 1314 530 1314 530 1314 401 c 128,-1,97
 1314 272 1314 272 1284 196 c 128,-1,98
 1254 120 1254 120 1196 77 c 0,99,100
 1092 0 1092 0 864 0 c 2,101,-1
 92 0 l 1,102,-1
 92 80 l 1,80,-1
EndSplineSet
Validated: 2049
EndChar

StartChar: C
Encoding: 67 67 35
Width: 1324
GlyphClass: 2
Flags: W
LayerCount: 2
Back
SplineSet
86 676 m 4,0,1
 86 842 86 842 124 984 c 132,-1,2
 162 1126 162 1126 237 1231 c 132,-1,3
 312 1336 312 1336 425 1395 c 132,-1,4
 538 1454 538 1454 688 1454 c 4,5,6
 796 1454 796 1454 891 1408 c 132,-1,7
 986 1362 986 1362 1064 1256 c 5,8,-1
 1150 1440 l 5,9,-1
 1200 1440 l 5,10,-1
 1200 790 l 5,11,-1
 1146 790 l 5,12,13
 1120 950 1120 950 1076 1055 c 132,-1,14
 1032 1160 1032 1160 980 1222 c 132,-1,15
 928 1284 928 1284 872 1310 c 132,-1,16
 816 1336 816 1336 766 1336 c 4,17,18
 742 1336 742 1336 717 1331 c 132,-1,19
 692 1326 692 1326 671 1306 c 132,-1,20
 650 1286 650 1286 630 1249 c 132,-1,21
 610 1212 610 1212 597 1149 c 132,-1,22
 584 1086 584 1086 576 993 c 132,-1,23
 568 900 568 900 568 768 c 4,24,25
 568 630 568 630 574 527 c 132,-1,26
 580 424 580 424 592 347 c 132,-1,27
 604 270 604 270 621 220 c 132,-1,28
 638 170 638 170 663 140 c 132,-1,29
 688 110 688 110 719 98 c 132,-1,30
 750 86 750 86 786 86 c 4,31,32
 858 86 858 86 919 117 c 132,-1,33
 980 148 980 148 1028 213 c 132,-1,34
 1076 278 1076 278 1107 383 c 132,-1,35
 1138 488 1138 488 1146 632 c 5,36,-1
 1208 632 l 5,37,38
 1202 490 1202 490 1172 369 c 132,-1,39
 1142 248 1142 248 1081 157 c 132,-1,40
 1020 66 1020 66 923 14 c 132,-1,41
 826 -38 826 -38 684 -38 c 4,42,43
 548 -38 548 -38 438 14 c 132,-1,44
 328 66 328 66 249 161 c 132,-1,45
 170 256 170 256 128 387 c 132,-1,46
 86 518 86 518 86 676 c 4,0,1
EndSplineSet
Fore
SplineSet
302 140 m 0,0,1
 455 -13 455 -13 687 -13 c 0,2,3
 937 -12 937 -12 1061 172 c 0,4,5
 1164 326 1164 326 1182 607 c 1,6,-1
 1169 607 l 1,7,8
 1141 203 1141 203 930 95 c 0,9,10
 864 61 864 61 780 61 c 0,11,12
 649 61 649 61 598 211 c 0,13,14
 543 372 543 372 543 765 c 0,15,16
 543 1135 543 1135 607 1260 c 0,17,18
 651 1343 651 1343 710 1355 c 0,19,20
 740 1361 740 1361 781 1361 c 128,-1,21
 822 1361 822 1361 883 1332.5 c 128,-1,22
 944 1304 944 1304 999 1238 c 0,23,24
 1118 1097 1118 1097 1167 815 c 1,25,-1
 1175 815 l 1,26,-1
 1175 1415 l 1,27,-1
 1166 1415 l 1,28,-1
 1087 1245 l 2,29,30
 1080 1231 1080 1231 1065.5 1231 c 128,-1,31
 1051 1231 1051 1231 1044 1241 c 0,32,33
 906 1429 906 1429 688 1429 c 0,34,35
 409 1429 409 1429 257 1216 c 0,36,37
 111 1011 111 1011 111 671 c 128,-1,38
 111 331 111 331 302 140 c 0,0,1
688 1454 m 0,39,40
 918 1454 918 1454 1064 1256 c 1,41,-1
 1150 1440 l 1,42,-1
 1200 1440 l 1,43,-1
 1200 790 l 1,44,-1
 1146 790 l 1,45,46
 1099 1080 1099 1080 980 1222 c 0,47,48
 884 1336 884 1336 766 1336 c 0,49,50
 702 1336 702 1336 676 1311 c 128,-1,51
 650 1286 650 1286 630 1249 c 128,-1,52
 610 1212 610 1212 597 1149 c 0,53,54
 568 1008 568 1008 568 819 c 128,-1,55
 568 630 568 630 574 527 c 128,-1,56
 580 424 580 424 592 347 c 128,-1,57
 604 270 604 270 621 220 c 128,-1,58
 638 170 638 170 663 140 c 0,59,60
 708 86 708 86 783 86 c 128,-1,61
 858 86 858 86 919 117 c 128,-1,62
 980 148 980 148 1028 213 c 0,63,64
 1130 352 1130 352 1146 632 c 1,65,-1
 1208 632 l 1,66,67
 1188 156 1188 156 923 14 c 0,68,69
 826 -38 826 -38 687 -38 c 128,-1,70
 548 -38 548 -38 438 14 c 128,-1,71
 328 66 328 66 249 161 c 0,72,73
 86 357 86 357 86 676 c 0,74,75
 86 1020 86 1020 237 1231 c 0,76,77
 396 1454 396 1454 688 1454 c 0,39,40
EndSplineSet
Validated: 1
EndChar

StartChar: D
Encoding: 68 68 36
Width: 1452
GlyphClass: 2
Flags: W
LayerCount: 2
Back
SplineSet
92 80 m 5,0,-1
 216 80 l 5,1,-1
 216 1340 l 5,2,-1
 92 1340 l 5,3,-1
 92 1418 l 5,4,-1
 884 1418 l 6,5,6
 996 1418 996 1418 1087 1371 c 132,-1,7
 1178 1324 1178 1324 1242 1232 c 132,-1,8
 1306 1140 1306 1140 1340 1008 c 132,-1,9
 1374 876 1374 876 1374 708 c 4,10,11
 1374 538 1374 538 1340 407 c 132,-1,12
 1306 276 1306 276 1242 185 c 132,-1,13
 1178 94 1178 94 1088 47 c 132,-1,14
 998 0 998 0 884 0 c 6,15,-1
 92 0 l 5,16,-1
 92 80 l 5,0,-1
706 80 m 5,17,18
 738 80 738 80 766 89 c 132,-1,19
 794 98 794 98 815 124 c 132,-1,20
 836 150 836 150 850 195 c 132,-1,21
 864 240 864 240 874 309 c 132,-1,22
 884 378 884 378 889 477 c 132,-1,23
 894 576 894 576 894 708 c 260,24,25
 894 842 894 842 889 940 c 132,-1,26
 884 1038 884 1038 874 1108 c 132,-1,27
 864 1178 864 1178 850 1223 c 132,-1,28
 836 1268 836 1268 815 1293 c 132,-1,29
 794 1318 794 1318 767 1329 c 132,-1,30
 740 1340 740 1340 706 1340 c 5,31,-1
 706 80 l 5,17,18
EndSplineSet
Fore
SplineSet
216 1365 m 2,0,1
 226 1365 226 1365 233.5 1357.5 c 128,-1,2
 241 1350 241 1350 241 1340 c 2,3,-1
 241 80 l 2,4,5
 241 70 241 70 233.5 62.5 c 128,-1,6
 226 55 226 55 216 55 c 2,7,-1
 117 55 l 1,8,-1
 117 25 l 1,9,-1
 884 25 l 2,10,11
 1099 25 1099 25 1222 199 c 0,12,13
 1349 380 1349 380 1349 707 c 0,14,15
 1349 1100 1349 1100 1170 1279 c 0,16,17
 1056 1393 1056 1393 884 1393 c 2,18,-1
 117 1393 l 1,19,-1
 117 1365 l 1,20,-1
 216 1365 l 2,0,1
681 80 m 2,21,-1
 681 1340 l 2,22,23
 681 1350 681 1350 688.5 1357.5 c 128,-1,24
 696 1365 696 1365 706 1365 c 0,25,26
 831 1365 831 1365 873 1232 c 0,27,28
 919 1085 919 1085 919 765 c 128,-1,29
 919 445 919 445 904 339.5 c 128,-1,30
 889 234 889 234 873 186 c 0,31,32
 842 87 842 87 774 65 c 0,33,34
 742 55 742 55 719 55 c 0,35,36
 681 55 681 55 681 80 c 2,21,-1
706 80 m 1,37,38
 779 80 779 80 815 124 c 0,39,40
 894 222 894 222 894 708 c 0,41,42
 894 1199 894 1199 815 1293 c 0,43,44
 776 1340 776 1340 706 1340 c 1,45,-1
 706 80 l 1,37,38
92 80 m 1,46,-1
 216 80 l 1,47,-1
 216 1340 l 1,48,-1
 92 1340 l 1,49,-1
 92 1418 l 1,50,-1
 884 1418 l 2,51,52
 1113 1418 1113 1418 1242 1232 c 0,53,54
 1374 1042 1374 1042 1374 708 c 0,55,56
 1374 373 1374 373 1242 185 c 0,57,58
 1112 0 1112 0 884 0 c 2,59,-1
 92 0 l 1,60,-1
 92 80 l 1,46,-1
EndSplineSet
Validated: 1
EndChar

StartChar: E
Encoding: 69 69 37
Width: 1350
GlyphClass: 2
Flags: W
LayerCount: 2
Back
SplineSet
92 80 m 5,0,-1
 216 80 l 5,1,-1
 216 1340 l 5,2,-1
 92 1340 l 5,3,-1
 92 1418 l 5,4,-1
 1192 1418 l 5,5,-1
 1192 930 l 5,6,-1
 1142 930 l 5,7,-1
 946 1340 l 5,8,-1
 706 1340 l 5,9,-1
 706 744 l 5,10,-1
 814 744 l 5,11,-1
 908 1074 l 5,12,-1
 952 1074 l 5,13,-1
 952 334 l 5,14,-1
 908 334 l 5,15,-1
 814 666 l 5,16,-1
 706 666 l 5,17,-1
 706 80 l 5,18,-1
 970 80 l 5,19,-1
 1176 534 l 5,20,-1
 1224 534 l 5,21,-1
 1224 0 l 5,22,-1
 92 0 l 5,23,-1
 92 80 l 5,0,-1
EndSplineSet
Fore
SplineSet
92 80 m 1,0,-1
 216 80 l 1,1,-1
 216 1340 l 1,2,-1
 92 1340 l 1,3,-1
 92 1418 l 1,4,-1
 1192 1418 l 1,5,-1
 1192 930 l 1,6,-1
 1142 930 l 1,7,-1
 946 1340 l 1,8,-1
 706 1340 l 1,9,-1
 706 744 l 1,10,-1
 814 744 l 1,11,-1
 908 1074 l 1,12,-1
 952 1074 l 1,13,-1
 952 334 l 1,14,-1
 908 334 l 1,15,-1
 814 666 l 1,16,-1
 706 666 l 1,17,-1
 706 80 l 1,18,-1
 970 80 l 1,19,-1
 1176 534 l 1,20,-1
 1224 534 l 1,21,-1
 1224 0 l 1,22,-1
 92 0 l 1,23,-1
 92 80 l 1,0,-1
216 1365 m 2,24,25
 226 1365 226 1365 233.5 1357.5 c 128,-1,26
 241 1350 241 1350 241 1340 c 2,27,-1
 241 80 l 2,28,29
 241 70 241 70 233.5 62.5 c 128,-1,30
 226 55 226 55 216 55 c 2,31,-1
 117 55 l 1,32,-1
 117 25 l 1,33,-1
 1199 25 l 1,34,-1
 1199 509 l 1,35,-1
 1192 509 l 1,36,-1
 993 70 l 2,37,38
 985 55 985 55 970 55 c 2,39,-1
 706 55 l 2,40,41
 696 55 696 55 688.5 62.5 c 128,-1,42
 681 70 681 70 681 80 c 2,43,-1
 681 666 l 2,44,45
 681 676 681 676 688.5 683.5 c 128,-1,46
 696 691 696 691 706 691 c 2,47,-1
 814 691 l 2,48,49
 835 691 835 691 838 673 c 1,50,-1
 927 359 l 1,51,-1
 927 1049 l 1,52,-1
 838 737 l 2,53,54
 832 719 832 719 814 719 c 2,55,-1
 706 719 l 2,56,57
 696 719 696 719 688.5 726.5 c 128,-1,58
 681 734 681 734 681 744 c 2,59,-1
 681 1340 l 2,60,61
 681 1350 681 1350 688.5 1357.5 c 128,-1,62
 696 1365 696 1365 706 1365 c 2,63,-1
 946 1365 l 2,64,65
 962 1365 962 1365 969 1351 c 2,66,-1
 1158 955 l 1,67,-1
 1167 955 l 1,68,-1
 1167 1393 l 1,69,-1
 117 1393 l 1,70,-1
 117 1365 l 1,71,-1
 216 1365 l 2,24,25
EndSplineSet
Validated: 1
EndChar

StartChar: F
Encoding: 70 70 38
Width: 1254
GlyphClass: 2
Flags: W
LayerCount: 2
Back
SplineSet
92 80 m 5,0,-1
 216 80 l 5,1,-1
 216 1340 l 5,2,-1
 92 1340 l 5,3,-1
 92 1418 l 5,4,-1
 1158 1418 l 5,5,-1
 1158 882 l 5,6,-1
 1110 882 l 5,7,-1
 910 1340 l 5,8,-1
 706 1340 l 5,9,-1
 706 670 l 5,10,-1
 820 670 l 5,11,-1
 908 1000 l 5,12,-1
 952 1000 l 5,13,-1
 952 258 l 5,14,-1
 908 258 l 5,15,-1
 820 590 l 5,16,-1
 706 590 l 5,17,-1
 706 80 l 5,18,-1
 882 80 l 5,19,-1
 882 0 l 5,20,-1
 92 0 l 5,21,-1
 92 80 l 5,0,-1
EndSplineSet
Fore
SplineSet
216 1365 m 2,0,1
 226 1365 226 1365 233.5 1357.5 c 128,-1,2
 241 1350 241 1350 241 1340 c 2,3,-1
 241 80 l 2,4,5
 241 70 241 70 233.5 62.5 c 128,-1,6
 226 55 226 55 216 55 c 2,7,-1
 117 55 l 1,8,-1
 117 25 l 1,9,-1
 857 25 l 1,10,-1
 857 55 l 1,11,-1
 706 55 l 2,12,13
 696 55 696 55 688.5 62.5 c 128,-1,14
 681 70 681 70 681 80 c 2,15,-1
 681 590 l 2,16,17
 681 600 681 600 688.5 607.5 c 128,-1,18
 696 615 696 615 706 615 c 2,19,-1
 820 615 l 2,20,21
 839 615 839 615 844 596 c 2,22,-1
 927 284 l 1,23,-1
 927 974 l 1,24,-1
 844 664 l 1,25,26
 838 645 838 645 820 645 c 2,27,-1
 706 645 l 2,28,29
 696 645 696 645 688.5 652.5 c 128,-1,30
 681 660 681 660 681 670 c 2,31,-1
 681 1340 l 2,32,33
 681 1350 681 1350 688.5 1357.5 c 128,-1,34
 696 1365 696 1365 706 1365 c 2,35,-1
 910 1365 l 2,36,37
 927 1365 927 1365 933 1350 c 2,38,-1
 1126 907 l 1,39,-1
 1133 907 l 1,40,-1
 1133 1393 l 1,41,-1
 117 1393 l 1,42,-1
 117 1365 l 1,43,-1
 216 1365 l 2,0,1
92 80 m 1,44,-1
 216 80 l 1,45,-1
 216 1340 l 1,46,-1
 92 1340 l 1,47,-1
 92 1418 l 1,48,-1
 1158 1418 l 1,49,-1
 1158 882 l 1,50,-1
 1110 882 l 1,51,-1
 910 1340 l 1,52,-1
 706 1340 l 1,53,-1
 706 670 l 1,54,-1
 820 670 l 1,55,-1
 908 1000 l 1,56,-1
 952 1000 l 1,57,-1
 952 258 l 1,58,-1
 908 258 l 1,59,-1
 820 590 l 1,60,-1
 706 590 l 1,61,-1
 706 80 l 1,62,-1
 882 80 l 1,63,-1
 882 0 l 1,64,-1
 92 0 l 1,65,-1
 92 80 l 1,44,-1
EndSplineSet
Validated: 1
EndChar

StartChar: G
Encoding: 71 71 39
Width: 1362
GlyphClass: 2
Flags: W
LayerCount: 2
Back
SplineSet
86 676 m 4,0,1
 86 842 86 842 123 983 c 132,-1,2
 160 1124 160 1124 234 1230 c 132,-1,3
 308 1336 308 1336 418 1395 c 132,-1,4
 528 1454 528 1454 676 1454 c 4,5,6
 782 1454 782 1454 881 1410 c 132,-1,7
 980 1366 980 1366 1068 1256 c 5,8,-1
 1154 1440 l 5,9,-1
 1202 1440 l 5,10,-1
 1202 790 l 5,11,-1
 1146 790 l 5,12,13
 1120 950 1120 950 1077 1055 c 132,-1,14
 1034 1160 1034 1160 982 1222 c 132,-1,15
 930 1284 930 1284 874 1310 c 132,-1,16
 818 1336 818 1336 768 1336 c 4,17,18
 744 1336 744 1336 719 1331 c 132,-1,19
 694 1326 694 1326 673 1306 c 132,-1,20
 652 1286 652 1286 632 1249 c 132,-1,21
 612 1212 612 1212 599 1149 c 132,-1,22
 586 1086 586 1086 578 993 c 132,-1,23
 570 900 570 900 570 768 c 4,24,25
 570 570 570 570 576 433 c 132,-1,26
 582 296 582 296 596 211 c 132,-1,27
 610 126 610 126 634 89 c 132,-1,28
 658 52 658 52 692 52 c 4,29,30
 720 52 720 52 737 68 c 132,-1,31
 754 84 754 84 761 119 c 132,-1,32
 768 154 768 154 770 210 c 132,-1,33
 772 266 772 266 772 348 c 6,34,-1
 772 632 l 5,35,-1
 642 632 l 5,36,-1
 642 712 l 5,37,-1
 1316 712 l 5,38,-1
 1316 632 l 5,39,-1
 1202 632 l 5,40,-1
 1202 -38 l 5,41,-1
 1160 -38 l 5,42,43
 1126 12 1126 12 1089 31 c 132,-1,44
 1052 50 1052 50 1014 50 c 132,-1,46
 976 50 976 50 937 37 c 132,-1,47
 898 24 898 24 854 8 c 4,48,49
 804 -8 804 -8 746 -23 c 132,-1,50
 688 -38 688 -38 618 -38 c 4,51,52
 498 -38 498 -38 400 18 c 132,-1,53
 302 74 302 74 232 170 c 132,-1,54
 162 266 162 266 124 397 c 132,-1,55
 86 528 86 528 86 676 c 4,0,1
EndSplineSet
Fore
SplineSet
1015 75 m 0,0,1
 1106 75 1106 75 1173 -13 c 1,2,-1
 1177 -13 l 1,3,-1
 1177 632 l 2,4,5
 1177 642 1177 642 1184.5 649.5 c 128,-1,6
 1192 657 1192 657 1202 657 c 2,7,-1
 1291 657 l 1,8,-1
 1291 687 l 1,9,-1
 667 687 l 1,10,-1
 667 657 l 1,11,-1
 772 657 l 2,12,13
 782 657 782 657 789.5 649.5 c 128,-1,14
 797 642 797 642 797 632 c 2,15,-1
 797 348 l 2,16,17
 797 170 797 170 787 121 c 0,18,19
 768 27 768 27 693 27 c 0,20,21
 692 27 692 27 692 27 c 0,22,23
 602 27 602 27 572 204 c 0,24,25
 546 366 546 366 545 689 c 0,26,27
 545 1136 545 1136 609 1260 c 0,28,29
 653 1343 653 1343 712 1355 c 0,30,31
 742 1361 742 1361 783 1361 c 128,-1,32
 824 1361 824 1361 885 1332.5 c 128,-1,33
 946 1304 946 1304 1001 1238 c 0,34,35
 1117 1100 1117 1100 1167 815 c 1,36,-1
 1177 815 l 1,37,-1
 1177 1415 l 1,38,-1
 1170 1415 l 1,39,-1
 1091 1245 l 2,40,41
 1084 1231 1084 1231 1070 1231 c 128,-1,42
 1056 1231 1056 1231 1048 1240 c 0,43,44
 897 1429 897 1429 676 1429 c 0,45,46
 403 1429 403 1429 254 1215 c 0,47,48
 111 1010 111 1010 111 676 c 0,49,50
 111 532 111 532 155 380 c 128,-1,51
 199 228 199 228 307 120 c 0,52,53
 440 -13 440 -13 618 -13 c 0,54,55
 708 -13 708 -13 799 17.5 c 128,-1,56
 890 48 890 48 931 61.5 c 128,-1,57
 972 75 972 75 1015 75 c 0,0,1
1160 -38 m 1,58,59
 1100 50 1100 50 1014 50 c 0,60,61
 970 50 970 50 887 21 c 128,-1,62
 804 -8 804 -8 746 -23 c 128,-1,63
 688 -38 688 -38 593 -38 c 128,-1,64
 498 -38 498 -38 400 18 c 128,-1,65
 302 74 302 74 232 170 c 0,66,67
 86 370 86 370 86 676 c 0,68,69
 86 1018 86 1018 234 1230 c 0,70,71
 390 1454 390 1454 676 1454 c 0,72,73
 910 1454 910 1454 1068 1256 c 1,74,-1
 1154 1440 l 1,75,-1
 1202 1440 l 1,76,-1
 1202 790 l 1,77,-1
 1146 790 l 1,78,79
 1098 1083 1098 1083 982 1222 c 0,80,81
 886 1336 886 1336 768 1336 c 0,82,83
 704 1336 704 1336 678 1311 c 128,-1,84
 652 1286 652 1286 632 1249 c 128,-1,85
 612 1212 612 1212 599 1149 c 0,86,87
 570 1008 570 1008 570 789 c 128,-1,88
 570 570 570 570 576 433 c 128,-1,89
 582 296 582 296 596 211 c 0,90,91
 622 52 622 52 692 52 c 0,92,93
 748 52 748 52 761 119 c 0,94,95
 772 174 772 174 772 348 c 2,96,-1
 772 632 l 1,97,-1
 642 632 l 1,98,-1
 642 712 l 1,99,-1
 1316 712 l 1,100,-1
 1316 632 l 1,101,-1
 1202 632 l 1,102,-1
 1202 -38 l 1,103,-1
 1160 -38 l 1,58,59
EndSplineSet
Validated: 1
EndChar

StartChar: H
Encoding: 72 72 40
Width: 1634
GlyphClass: 2
Flags: W
LayerCount: 2
Back
SplineSet
92 80 m 5,0,-1
 216 80 l 5,1,-1
 216 1340 l 5,2,-1
 92 1340 l 5,3,-1
 92 1418 l 5,4,-1
 776 1418 l 5,5,-1
 776 1340 l 5,6,-1
 706 1340 l 5,7,-1
 706 798 l 5,8,-1
 928 798 l 5,9,-1
 928 1340 l 5,10,-1
 856 1340 l 5,11,-1
 856 1418 l 5,12,-1
 1540 1418 l 5,13,-1
 1540 1340 l 5,14,-1
 1418 1340 l 5,15,-1
 1418 80 l 5,16,-1
 1540 80 l 5,17,-1
 1540 0 l 5,18,-1
 856 0 l 5,19,-1
 856 80 l 5,20,-1
 928 80 l 5,21,-1
 928 720 l 5,22,-1
 706 720 l 5,23,-1
 706 80 l 5,24,-1
 776 80 l 5,25,-1
 776 0 l 5,26,-1
 92 0 l 5,27,-1
 92 80 l 5,0,-1
EndSplineSet
Fore
SplineSet
216 1365 m 2,0,1
 226 1365 226 1365 233.5 1357.5 c 128,-1,2
 241 1350 241 1350 241 1340 c 2,3,-1
 241 80 l 2,4,5
 241 70 241 70 233.5 62.5 c 128,-1,6
 226 55 226 55 216 55 c 2,7,-1
 117 55 l 1,8,-1
 117 25 l 1,9,-1
 751 25 l 1,10,-1
 751 55 l 1,11,-1
 706 55 l 2,12,13
 696 55 696 55 688.5 62.5 c 128,-1,14
 681 70 681 70 681 80 c 2,15,-1
 681 720 l 2,16,17
 681 730 681 730 688.5 737.5 c 128,-1,18
 696 745 696 745 706 745 c 2,19,-1
 928 745 l 2,20,21
 938 745 938 745 945.5 737.5 c 128,-1,22
 953 730 953 730 953 720 c 2,23,-1
 953 80 l 2,24,25
 953 70 953 70 945.5 62.5 c 128,-1,26
 938 55 938 55 928 55 c 2,27,-1
 881 55 l 1,28,-1
 881 25 l 1,29,-1
 1515 25 l 1,30,-1
 1515 55 l 1,31,-1
 1418 55 l 2,32,33
 1408 55 1408 55 1400.5 62.5 c 128,-1,34
 1393 70 1393 70 1393 80 c 2,35,-1
 1393 1340 l 2,36,37
 1393 1350 1393 1350 1400.5 1357.5 c 128,-1,38
 1408 1365 1408 1365 1418 1365 c 2,39,-1
 1515 1365 l 1,40,-1
 1515 1393 l 1,41,-1
 881 1393 l 1,42,-1
 881 1365 l 1,43,-1
 928 1365 l 2,44,45
 938 1365 938 1365 945.5 1357.5 c 128,-1,46
 953 1350 953 1350 953 1340 c 2,47,-1
 953 798 l 2,48,49
 953 788 953 788 945.5 780.5 c 128,-1,50
 938 773 938 773 928 773 c 2,51,-1
 706 773 l 2,52,53
 696 773 696 773 688.5 780.5 c 128,-1,54
 681 788 681 788 681 798 c 2,55,-1
 681 1340 l 2,56,57
 681 1350 681 1350 688.5 1357.5 c 128,-1,58
 696 1365 696 1365 706 1365 c 2,59,-1
 751 1365 l 1,60,-1
 751 1393 l 1,61,-1
 117 1393 l 1,62,-1
 117 1365 l 1,63,-1
 216 1365 l 2,0,1
92 80 m 1,64,-1
 216 80 l 1,65,-1
 216 1340 l 1,66,-1
 92 1340 l 1,67,-1
 92 1418 l 1,68,-1
 776 1418 l 1,69,-1
 776 1340 l 1,70,-1
 706 1340 l 1,71,-1
 706 798 l 1,72,-1
 928 798 l 1,73,-1
 928 1340 l 1,74,-1
 856 1340 l 1,75,-1
 856 1418 l 1,76,-1
 1540 1418 l 1,77,-1
 1540 1340 l 1,78,-1
 1418 1340 l 1,79,-1
 1418 80 l 1,80,-1
 1540 80 l 1,81,-1
 1540 0 l 1,82,-1
 856 0 l 1,83,-1
 856 80 l 1,84,-1
 928 80 l 1,85,-1
 928 720 l 1,86,-1
 706 720 l 1,87,-1
 706 80 l 1,88,-1
 776 80 l 1,89,-1
 776 0 l 1,90,-1
 92 0 l 1,91,-1
 92 80 l 1,64,-1
EndSplineSet
Validated: 1
EndChar

StartChar: I
Encoding: 73 73 41
Width: 922
GlyphClass: 2
Flags: W
LayerCount: 2
Back
SplineSet
92 80 m 5,0,-1
 216 80 l 5,1,-1
 216 1340 l 5,2,-1
 92 1340 l 5,3,-1
 92 1418 l 5,4,-1
 830 1418 l 5,5,-1
 830 1340 l 5,6,-1
 706 1340 l 5,7,-1
 706 80 l 5,8,-1
 830 80 l 5,9,-1
 830 0 l 5,10,-1
 92 0 l 5,11,-1
 92 80 l 5,0,-1
EndSplineSet
Fore
SplineSet
216 1365 m 2,0,1
 226 1365 226 1365 233.5 1357.5 c 128,-1,2
 241 1350 241 1350 241 1340 c 2,3,-1
 241 80 l 2,4,5
 241 70 241 70 233.5 62.5 c 128,-1,6
 226 55 226 55 216 55 c 2,7,-1
 117 55 l 1,8,-1
 117 25 l 1,9,-1
 805 25 l 1,10,-1
 805 55 l 1,11,-1
 706 55 l 2,12,13
 696 55 696 55 688.5 62.5 c 128,-1,14
 681 70 681 70 681 80 c 2,15,-1
 681 1340 l 2,16,17
 681 1350 681 1350 688.5 1357.5 c 128,-1,18
 696 1365 696 1365 706 1365 c 2,19,-1
 805 1365 l 1,20,-1
 805 1393 l 1,21,-1
 117 1393 l 1,22,-1
 117 1365 l 1,23,-1
 216 1365 l 2,0,1
92 80 m 1,24,-1
 216 80 l 1,25,-1
 216 1340 l 1,26,-1
 92 1340 l 1,27,-1
 92 1418 l 1,28,-1
 830 1418 l 1,29,-1
 830 1340 l 1,30,-1
 706 1340 l 1,31,-1
 706 80 l 1,32,-1
 830 80 l 1,33,-1
 830 0 l 1,34,-1
 92 0 l 1,35,-1
 92 80 l 1,24,-1
EndSplineSet
Validated: 1
EndChar

StartChar: J
Encoding: 74 74 42
Width: 1020
GlyphClass: 2
Flags: W
LayerCount: 2
Back
SplineSet
62 240 m 4,0,1
 62 278 62 278 74 313 c 132,-1,2
 86 348 86 348 109 374 c 132,-1,3
 132 400 132 400 162 414 c 132,-1,4
 192 428 192 428 230 428 c 4,5,6
 266 428 266 428 297 414 c 132,-1,7
 328 400 328 400 349 374 c 132,-1,8
 370 348 370 348 383 313 c 132,-1,9
 396 278 396 278 396 240 c 4,10,11
 396 178 396 178 367 130 c 132,-1,12
 338 82 338 82 288 62 c 5,13,14
 300 54 300 54 317 50 c 132,-1,15
 334 46 334 46 348 46 c 4,16,17
 376 46 376 46 398 62 c 132,-1,18
 420 78 420 78 432 104 c 132,-1,19
 444 130 444 130 450 164 c 132,-1,20
 456 198 456 198 456 238 c 4,21,22
 456 286 456 286 441 338 c 132,-1,23
 426 390 426 390 408 444 c 4,24,25
 388 502 388 502 370 557 c 132,-1,26
 352 612 352 612 352 660 c 6,27,-1
 352 1340 l 5,28,-1
 230 1340 l 5,29,-1
 230 1418 l 5,30,-1
 966 1418 l 5,31,-1
 966 1340 l 5,32,-1
 844 1340 l 5,33,-1
 844 418 l 6,34,35
 844 284 844 284 820 196 c 132,-1,36
 796 108 796 108 750 56 c 132,-1,37
 704 4 704 4 636 -17 c 132,-1,38
 568 -38 568 -38 476 -38 c 4,39,40
 392 -38 392 -38 317 -19 c 132,-1,41
 242 0 242 0 184 36 c 132,-1,42
 126 72 126 72 94 123 c 132,-1,43
 62 174 62 174 62 240 c 4,0,1
EndSplineSet
Fore
SplineSet
97.5 304.5 m 128,-1,1
 87 274 87 274 87 227.5 c 128,-1,2
 87 181 87 181 115.5 135.5 c 128,-1,3
 144 90 144 90 198 56.5 c 128,-1,4
 252 23 252 23 323.5 5 c 128,-1,5
 395 -13 395 -13 479.5 -13 c 128,-1,6
 564 -13 564 -13 627 6.5 c 128,-1,7
 690 26 690 26 732 73 c 0,8,9
 819 171 819 171 819 412 c 0,10,11
 819 415 819 415 819 418 c 2,12,-1
 819 1340 l 2,13,14
 819 1350 819 1350 826.5 1357.5 c 128,-1,15
 834 1365 834 1365 844 1365 c 2,16,-1
 941 1365 l 1,17,-1
 941 1393 l 1,18,-1
 255 1393 l 1,19,-1
 255 1365 l 1,20,-1
 352 1365 l 2,21,22
 362 1365 362 1365 369.5 1357.5 c 128,-1,23
 377 1350 377 1350 377 1340 c 2,24,-1
 377 660 l 2,25,26
 377 616 377 616 394.5 563 c 128,-1,27
 412 510 412 510 431 454 c 0,28,29
 481 305 481 305 481 228 c 0,30,31
 480 150 480 150 460 106 c 0,32,33
 421 21 421 21 348 21 c 0,34,35
 306 21 306 21 284.5 34.5 c 128,-1,36
 263 48 263 48 263 60 c 0,37,38
 263 82 263 82 279 85 c 0,39,40
 321 102 321 102 346 143.5 c 128,-1,41
 371 185 371 185 371 229 c 0,42,43
 371 314 371 314 321 368 c 0,44,45
 286 403 286 403 242 403 c 128,-1,46
 198 403 198 403 172.5 391 c 128,-1,47
 147 379 147 379 127.5 357 c 128,-1,0
 108 335 108 335 97.5 304.5 c 128,-1,1
288 62 m 1,48,49
 312 46 312 46 344 46 c 128,-1,50
 376 46 376 46 398 62 c 128,-1,51
 420 78 420 78 432 104 c 0,52,53
 456 156 456 156 456 221 c 128,-1,54
 456 286 456 286 441 338 c 128,-1,55
 426 390 426 390 407 446 c 128,-1,56
 388 502 388 502 370 557 c 128,-1,57
 352 612 352 612 352 660 c 2,58,-1
 352 1340 l 1,59,-1
 230 1340 l 1,60,-1
 230 1418 l 1,61,-1
 966 1418 l 1,62,-1
 966 1340 l 1,63,-1
 844 1340 l 1,64,-1
 844 418 l 2,65,66
 844 47 844 47 636 -17 c 0,67,68
 568 -38 568 -38 480 -38 c 128,-1,69
 392 -38 392 -38 317 -19 c 128,-1,70
 242 0 242 0 184 36 c 0,71,72
 62 112 62 112 62 240 c 0,73,74
 62 321 62 321 109 374 c 0,75,76
 157 428 157 428 230 428 c 0,77,78
 340 428 340 428 383 313 c 0,79,80
 396 278 396 278 396 228 c 128,-1,81
 396 178 396 178 367 130 c 128,-1,82
 338 82 338 82 288 62 c 1,48,49
EndSplineSet
Validated: 1
EndChar

StartChar: K
Encoding: 75 75 43
Width: 1570
GlyphClass: 2
Flags: W
LayerCount: 2
Back
SplineSet
92 80 m 5,0,-1
 216 80 l 5,1,-1
 216 1340 l 5,2,-1
 92 1340 l 5,3,-1
 92 1418 l 5,4,-1
 830 1418 l 5,5,-1
 830 1340 l 5,6,-1
 706 1340 l 5,7,-1
 706 712 l 5,8,-1
 1130 1280 l 6,9,10
 1134 1284 1134 1284 1134 1287 c 132,-1,11
 1134 1290 1134 1290 1134 1294 c 4,12,13
 1134 1306 1134 1306 1118 1316 c 132,-1,14
 1102 1326 1102 1326 1077 1331 c 132,-1,15
 1052 1336 1052 1336 1023 1338 c 132,-1,16
 994 1340 994 1340 968 1340 c 5,17,-1
 968 1418 l 5,18,-1
 1406 1418 l 5,19,-1
 1406 1340 l 5,20,21
 1362 1340 1362 1340 1332 1337 c 132,-1,22
 1302 1334 1302 1334 1280 1326 c 132,-1,23
 1258 1318 1258 1318 1243 1306 c 132,-1,24
 1228 1294 1228 1294 1214 1278 c 6,25,-1
 1074 1088 l 5,26,-1
 1410 80 l 5,27,-1
 1500 80 l 5,28,-1
 1500 0 l 5,29,-1
 836 0 l 5,30,-1
 836 80 l 5,31,-1
 908 80 l 5,32,-1
 738 636 l 5,33,-1
 706 594 l 5,34,-1
 706 80 l 5,35,-1
 776 80 l 5,36,-1
 776 0 l 5,37,-1
 92 0 l 5,38,-1
 92 80 l 5,0,-1
EndSplineSet
Fore
SplineSet
993 1365 m 1,0,1
 1159 1359 1159 1359 1159 1294 c 2,2,-1
 1159 1287 l 2,3,4
 1159 1275 1159 1275 1149 1264 c 1,5,-1
 726 697 l 2,6,7
 718 687 718 687 707 687 c 128,-1,8
 696 687 696 687 688.5 694.5 c 128,-1,9
 681 702 681 702 681 712 c 2,10,-1
 681 1340 l 2,11,12
 681 1350 681 1350 688.5 1357.5 c 128,-1,13
 696 1365 696 1365 706 1365 c 2,14,-1
 805 1365 l 1,15,-1
 805 1393 l 1,16,-1
 117 1393 l 1,17,-1
 117 1365 l 1,18,-1
 216 1365 l 2,19,20
 226 1365 226 1365 233.5 1357.5 c 128,-1,21
 241 1350 241 1350 241 1340 c 2,22,-1
 241 80 l 2,23,24
 241 70 241 70 233.5 62.5 c 128,-1,25
 226 55 226 55 216 55 c 2,26,-1
 117 55 l 1,27,-1
 117 25 l 1,28,-1
 751 25 l 1,29,-1
 751 55 l 1,30,-1
 706 55 l 2,31,32
 696 55 696 55 688.5 62.5 c 128,-1,33
 681 70 681 70 681 80 c 2,34,-1
 681 594 l 2,35,36
 681 602 681 602 700 627 c 128,-1,37
 719 652 719 652 723 656 c 0,38,39
 728 660 728 660 738 661 c 0,40,41
 757 661 757 661 762 643 c 2,42,-1
 932 87 l 2,43,44
 933 83 933 83 933 76.5 c 128,-1,45
 933 70 933 70 925.5 62.5 c 128,-1,46
 918 55 918 55 908 55 c 2,47,-1
 861 55 l 1,48,-1
 861 25 l 1,49,-1
 1475 25 l 1,50,-1
 1475 55 l 1,51,-1
 1410 55 l 2,52,53
 1392 55 1392 55 1386 72 c 2,54,-1
 1050 1080 l 2,55,56
 1049 1084 1049 1084 1049 1090 c 128,-1,57
 1049 1096 1049 1096 1054 1103 c 2,58,59
 1054 1103 1054 1103 1195 1294 c 1,60,61
 1210 1312 1210 1312 1238 1334 c 0,62,63
 1274 1362 1274 1362 1381 1365 c 1,64,-1
 1381 1393 l 1,65,-1
 993 1393 l 1,66,-1
 993 1365 l 1,0,1
92 80 m 1,67,-1
 216 80 l 1,68,-1
 216 1340 l 1,69,-1
 92 1340 l 1,70,-1
 92 1418 l 1,71,-1
 830 1418 l 1,72,-1
 830 1340 l 1,73,-1
 706 1340 l 1,74,-1
 706 712 l 1,75,-1
 1130 1280 l 2,76,77
 1134 1284 1134 1284 1134 1287 c 2,78,79
 1134 1287 1134 1287 1134 1296.5 c 128,-1,80
 1134 1306 1134 1306 1118 1316 c 128,-1,81
 1102 1326 1102 1326 1077 1331 c 0,82,83
 1032 1340 1032 1340 968 1340 c 1,84,-1
 968 1418 l 1,85,-1
 1406 1418 l 1,86,-1
 1406 1340 l 1,87,88
 1286 1340 1286 1340 1243 1306 c 0,89,90
 1228 1294 1228 1294 1214 1278 c 1,91,-1
 1074 1088 l 1,92,-1
 1410 80 l 1,93,-1
 1500 80 l 1,94,-1
 1500 0 l 1,95,-1
 836 0 l 1,96,-1
 836 80 l 1,97,-1
 908 80 l 1,98,-1
 738 636 l 1,99,-1
 706 594 l 1,100,-1
 706 80 l 1,101,-1
 776 80 l 1,102,-1
 776 0 l 1,103,-1
 92 0 l 1,104,-1
 92 80 l 1,67,-1
EndSplineSet
Validated: 1
EndChar

StartChar: L
Encoding: 76 76 44
Width: 1270
GlyphClass: 2
Flags: W
LayerCount: 2
Back
SplineSet
92 80 m 5,0,-1
 216 80 l 5,1,-1
 216 1340 l 5,2,-1
 92 1340 l 5,3,-1
 92 1418 l 5,4,-1
 830 1418 l 5,5,-1
 830 1340 l 5,6,-1
 706 1340 l 5,7,-1
 706 80 l 5,8,-1
 932 80 l 5,9,-1
 1110 534 l 5,10,-1
 1158 534 l 5,11,-1
 1158 0 l 5,12,-1
 92 0 l 5,13,-1
 92 80 l 5,0,-1
EndSplineSet
Fore
SplineSet
216 1365 m 2,0,1
 226 1365 226 1365 233.5 1357.5 c 128,-1,2
 241 1350 241 1350 241 1340 c 2,3,-1
 241 80 l 2,4,5
 241 70 241 70 233.5 62.5 c 128,-1,6
 226 55 226 55 216 55 c 2,7,-1
 117 55 l 1,8,-1
 117 25 l 1,9,-1
 1133 25 l 1,10,-1
 1133 509 l 1,11,-1
 1127 509 l 1,12,-1
 955 71 l 2,13,14
 949 55 949 55 932 55 c 2,15,-1
 706 55 l 2,16,17
 696 55 696 55 688.5 62.5 c 128,-1,18
 681 70 681 70 681 80 c 2,19,-1
 681 1340 l 2,20,21
 681 1350 681 1350 688.5 1357.5 c 128,-1,22
 696 1365 696 1365 706 1365 c 2,23,-1
 805 1365 l 1,24,-1
 805 1393 l 1,25,-1
 117 1393 l 1,26,-1
 117 1365 l 1,27,-1
 216 1365 l 2,0,1
92 80 m 1,28,-1
 216 80 l 1,29,-1
 216 1340 l 1,30,-1
 92 1340 l 1,31,-1
 92 1418 l 1,32,-1
 830 1418 l 1,33,-1
 830 1340 l 1,34,-1
 706 1340 l 1,35,-1
 706 80 l 1,36,-1
 932 80 l 1,37,-1
 1110 534 l 1,38,-1
 1158 534 l 1,39,-1
 1158 0 l 1,40,-1
 92 0 l 1,41,-1
 92 80 l 1,28,-1
EndSplineSet
Validated: 1
EndChar

StartChar: M
Encoding: 77 77 45
Width: 1616
GlyphClass: 2
Flags: W
LayerCount: 2
Back
SplineSet
92 80 m 5,0,1
 154 80 154 80 186 89 c 132,-1,2
 218 98 218 98 218 136 c 6,3,-1
 218 1340 l 5,4,-1
 92 1340 l 5,5,-1
 92 1418 l 5,6,-1
 662 1418 l 5,7,-1
 792 826 l 5,8,-1
 930 1418 l 5,9,-1
 1524 1418 l 5,10,-1
 1524 1340 l 5,11,-1
 1398 1340 l 5,12,-1
 1398 80 l 5,13,-1
 1524 80 l 5,14,-1
 1524 0 l 5,15,-1
 806 0 l 5,16,-1
 806 80 l 5,17,-1
 930 80 l 5,18,-1
 930 1128 l 5,19,-1
 668 0 l 5,20,-1
 536 0 l 5,21,-1
 276 1116 l 5,22,-1
 276 142 l 6,23,24
 276 98 276 98 308 89 c 132,-1,25
 340 80 340 80 402 80 c 5,26,-1
 402 0 l 5,27,-1
 92 0 l 5,28,-1
 92 80 l 5,0,1
EndSplineSet
Fore
SplineSet
218 1365 m 2,0,1
 228 1365 228 1365 235.5 1357.5 c 128,-1,2
 243 1350 243 1350 243 1340 c 2,3,-1
 243 136 l 2,4,5
 243 79 243 79 193 65 c 0,6,7
 165 57 165 57 117 55 c 1,8,-1
 117 25 l 1,9,-1
 377 25 l 1,10,-1
 377 55 l 1,11,12
 296 58 296 58 273.5 80.5 c 128,-1,13
 251 103 251 103 251 142 c 2,14,-1
 251 1116 l 2,15,16
 251 1126 251 1126 258.5 1133.5 c 128,-1,17
 266 1141 266 1141 276 1141 c 0,18,19
 297 1141 297 1141 300 1122 c 1,20,-1
 556 25 l 1,21,-1
 648 25 l 1,22,-1
 906 1134 l 2,23,24
 911 1153 911 1153 926 1153 c 0,25,26
 955 1153 955 1153 955 1128 c 2,27,-1
 955 80 l 2,28,29
 955 70 955 70 947.5 62.5 c 128,-1,30
 940 55 940 55 930 55 c 2,31,-1
 831 55 l 1,32,-1
 831 25 l 1,33,-1
 1499 25 l 1,34,-1
 1499 55 l 1,35,-1
 1398 55 l 2,36,37
 1388 55 1388 55 1380.5 62.5 c 128,-1,38
 1373 70 1373 70 1373 80 c 2,39,-1
 1373 1340 l 2,40,41
 1373 1350 1373 1350 1380.5 1357.5 c 128,-1,42
 1388 1365 1388 1365 1398 1365 c 2,43,-1
 1499 1365 l 1,44,-1
 1499 1393 l 1,45,-1
 950 1393 l 1,46,-1
 816 820 l 2,47,48
 811 801 811 801 796 801 c 0,49,50
 770 801 770 801 768 821 c 1,51,-1
 642 1393 l 1,52,-1
 117 1393 l 1,53,-1
 117 1365 l 1,54,-1
 218 1365 l 2,0,1
92 80 m 1,55,56
 154 80 154 80 186 89 c 128,-1,57
 218 98 218 98 218 136 c 2,58,-1
 218 1340 l 1,59,-1
 92 1340 l 1,60,-1
 92 1418 l 1,61,-1
 662 1418 l 1,62,-1
 792 826 l 1,63,-1
 930 1418 l 1,64,-1
 1524 1418 l 1,65,-1
 1524 1340 l 1,66,-1
 1398 1340 l 1,67,-1
 1398 80 l 1,68,-1
 1524 80 l 1,69,-1
 1524 0 l 1,70,-1
 806 0 l 1,71,-1
 806 80 l 1,72,-1
 930 80 l 1,73,-1
 930 1128 l 1,74,-1
 668 0 l 1,75,-1
 536 0 l 1,76,-1
 276 1116 l 1,77,-1
 276 142 l 2,78,79
 276 98 276 98 308 89 c 128,-1,80
 340 80 340 80 402 80 c 1,81,-1
 402 0 l 1,82,-1
 92 0 l 1,83,-1
 92 80 l 1,55,56
EndSplineSet
Validated: 1
EndChar

StartChar: N
Encoding: 78 78 46
Width: 1394
GlyphClass: 2
Flags: W
LayerCount: 2
Back
SplineSet
1128 1280 m 6,0,1
 1128 1340 1128 1340 998 1340 c 5,2,-1
 998 1418 l 5,3,-1
 1340 1418 l 5,4,-1
 1340 1340 l 5,5,6
 1278.005 1340 1278.005 1340 1243 1328 c 132,-1,7
 1208.005 1316 1208.005 1316 1208 1280 c 6,8,-1
 1208 0 l 5,9,-1
 850 0 l 5,10,-1
 319 1023 l 5,11,-1
 319 142 l 6,12,13
 319 112 319 112 367 90 c 4,14,15
 388 79.99995 388 79.99995 474 80 c 5,16,-1
 474 0 l 5,17,-1
 86 0 l 5,18,-1
 86 80 l 5,19,20
 116 81.00005 116 81.00005 144 81 c 4,21,22
 178.0005 81 178.0005 81 195 88 c 4,23,24
 244.0005 107.9995 244.0005 107.9995 244 136 c 6,25,-1
 244 1180 l 5,26,-1
 156 1340 l 5,27,-1
 72 1340 l 5,28,-1
 72 1418 l 5,29,-1
 692 1418 l 5,30,-1
 1128 612 l 5,31,-1
 1128 1280 l 6,0,1
EndSplineSet
Fore
SplineSet
1023 1364 m 1,0,1
 1153 1357 1153 1357 1153 1280 c 2,2,-1
 1153 612 l 2,3,4
 1153 602 1153 602 1145.5 594.5 c 128,-1,5
 1138 587 1138 587 1124 587 c 0,6,7
 1110 587 1110 587 1106 600 c 1,8,-1
 677 1393 l 1,9,-1
 97 1393 l 1,10,-1
 97 1365 l 1,11,-1
 156 1365 l 2,12,13
 174 1365 174 1365 178 1352 c 1,14,-1
 266 1192 l 2,15,16
 269 1186 269 1186 269 1180 c 2,17,-1
 269 136 l 2,18,19
 269 91 269 91 204 65 c 0,20,21
 184 56 184 56 170 56 c 2,22,23
 170 56 170 56 111 56 c 1,24,-1
 111 25 l 1,25,-1
 449 25 l 1,26,-1
 449 55 l 1,27,28
 378 56 378 56 354 68 c 0,29,30
 294 96 294 96 294 142 c 2,31,-1
 294 1023 l 2,32,33
 294 1033 294 1033 301.5 1040.5 c 128,-1,34
 309 1048 309 1048 323 1048 c 0,35,36
 337 1048 337 1048 341 1035 c 1,37,-1
 865 25 l 1,38,-1
 1183 25 l 1,39,-1
 1183 1280 l 2,40,41
 1183 1361 1183 1361 1315 1364 c 1,42,-1
 1315 1393 l 1,43,-1
 1023 1393 l 1,44,-1
 1023 1364 l 1,0,1
1128 1280 m 2,45,46
 1128 1340 1128 1340 998 1340 c 1,47,-1
 998 1418 l 1,48,-1
 1340 1418 l 1,49,-1
 1340 1340 l 1,50,51
 1278 1340 1278 1340 1243 1328 c 128,-1,52
 1208 1316 1208 1316 1208 1280 c 2,53,-1
 1208 0 l 1,54,-1
 850 0 l 1,55,-1
 319 1023 l 1,56,-1
 319 142 l 2,57,58
 319 112 319 112 367 90 c 0,59,60
 388 80 388 80 474 80 c 1,61,-1
 474 0 l 1,62,-1
 86 0 l 1,63,-1
 86 80 l 1,64,65
 116 81 116 81 147 81 c 128,-1,66
 178 81 178 81 195 88 c 0,67,68
 244 108 244 108 244 136 c 2,69,-1
 244 1180 l 1,70,-1
 156 1340 l 1,71,-1
 72 1340 l 1,72,-1
 72 1418 l 1,73,-1
 692 1418 l 1,74,-1
 1128 612 l 1,75,-1
 1128 1280 l 2,45,46
EndSplineSet
Validated: 1
EndChar

StartChar: O
Encoding: 79 79 47
Width: 1378
GlyphClass: 2
Flags: W
LayerCount: 2
Back
SplineSet
88 708 m 4,0,1
 88 806 88 806 102 901 c 132,-1,2
 116 996 116 996 147 1079 c 132,-1,3
 178 1162 178 1162 226 1231 c 132,-1,4
 274 1300 274 1300 342 1350 c 132,-1,5
 410 1400 410 1400 498 1427 c 132,-1,6
 586 1454 586 1454 696 1454 c 260,7,8
 806 1454 806 1454 893 1427 c 132,-1,9
 980 1400 980 1400 1049 1350 c 132,-1,10
 1118 1300 1118 1300 1166 1231 c 132,-1,11
 1214 1162 1214 1162 1245 1079 c 132,-1,12
 1276 996 1276 996 1290 902 c 132,-1,13
 1304 808 1304 808 1304 708 c 260,14,15
 1304 610 1304 610 1290 516 c 132,-1,16
 1276 422 1276 422 1245 339 c 132,-1,17
 1214 256 1214 256 1166 186 c 132,-1,18
 1118 116 1118 116 1049 66 c 132,-1,19
 980 16 980 16 893 -11 c 132,-1,20
 806 -38 806 -38 696 -38 c 260,21,22
 586 -38 586 -38 498 -11 c 132,-1,23
 410 16 410 16 342 66 c 132,-1,24
 274 116 274 116 226 186 c 132,-1,25
 178 256 178 256 147 339 c 132,-1,26
 116 422 116 422 102 515 c 132,-1,27
 88 608 88 608 88 708 c 4,0,1
696 30 m 260,28,29
 732 30 732 30 757 61 c 132,-1,30
 782 92 782 92 797 170 c 132,-1,31
 812 248 812 248 818 379 c 132,-1,32
 824 510 824 510 824 708 c 132,-1,34
 824 906 824 906 818 1038 c 132,-1,35
 812 1170 812 1170 797 1247 c 132,-1,36
 782 1324 782 1324 758 1355 c 132,-1,37
 734 1386 734 1386 696 1386 c 260,38,39
 660 1386 660 1386 635 1355 c 132,-1,40
 610 1324 610 1324 596 1247 c 132,-1,41
 582 1170 582 1170 576 1039 c 132,-1,42
 570 908 570 908 570 708 c 132,-1,44
 570 508 570 508 576 378 c 132,-1,45
 582 248 582 248 596 170 c 132,-1,46
 610 92 610 92 635 61 c 132,-1,47
 660 30 660 30 696 30 c 260,28,29
EndSplineSet
Fore
SplineSet
247 1217 m 0,0,1
 113 1023 113 1023 113 709 c 128,-1,2
 113 395 113 395 247 200 c 0,3,4
 394 -13 394 -13 696 -13 c 0,5,6
 943 -13 943 -13 1091 134 c 0,7,8
 1121 164 1121 164 1145 200 c 0,9,10
 1279 397 1279 397 1279 711 c 128,-1,11
 1279 1025 1279 1025 1145 1217 c 0,12,13
 997 1429 997 1429 697.5 1429 c 128,-1,14
 398 1429 398 1429 247 1217 c 0,0,1
696 5 m 128,-1,16
 648 5 648 5 617.5 43 c 128,-1,17
 587 81 587 81 572 163 c 128,-1,18
 557 245 557 245 551 376 c 128,-1,19
 545 507 545 507 545 708 c 128,-1,20
 545 909 545 909 551 1041 c 0,21,22
 563 1305 563 1305 616 1371 c 0,23,24
 649 1411 649 1411 697.5 1411 c 128,-1,25
 746 1411 746 1411 776 1372.5 c 128,-1,26
 806 1334 806 1334 821.5 1253.5 c 128,-1,27
 837 1173 837 1173 843 1040 c 128,-1,28
 849 907 849 907 849 708 c 128,-1,29
 849 509 849 509 843 377 c 0,30,31
 831 113 831 113 776 45 c 0,32,15
 744 5 744 5 696 5 c 128,-1,16
696 30 m 128,-1,34
 732 30 732 30 757 61 c 128,-1,35
 782 92 782 92 797 170 c 128,-1,36
 812 248 812 248 818 379 c 128,-1,37
 824 510 824 510 824 708 c 128,-1,38
 824 906 824 906 818 1038 c 128,-1,39
 812 1170 812 1170 797 1247 c 128,-1,40
 782 1324 782 1324 758 1355 c 128,-1,41
 734 1386 734 1386 697 1386 c 128,-1,42
 660 1386 660 1386 635 1355 c 128,-1,43
 610 1324 610 1324 596 1247 c 128,-1,44
 582 1170 582 1170 576 1039 c 128,-1,45
 570 908 570 908 570 708 c 128,-1,46
 570 508 570 508 576 378 c 128,-1,47
 582 248 582 248 596 170 c 128,-1,48
 610 92 610 92 635 61 c 128,-1,33
 660 30 660 30 696 30 c 128,-1,34
88 707 m 0,49,50
 88 806 88 806 102 901 c 128,-1,51
 116 996 116 996 147 1079 c 128,-1,52
 178 1162 178 1162 226 1231 c 128,-1,53
 274 1300 274 1300 342 1350 c 128,-1,54
 410 1400 410 1400 498 1427 c 128,-1,55
 586 1454 586 1454 696 1454 c 128,-1,56
 806 1454 806 1454 893 1427 c 128,-1,57
 980 1400 980 1400 1049 1350 c 128,-1,58
 1118 1300 1118 1300 1166 1231 c 128,-1,59
 1214 1162 1214 1162 1245 1079 c 0,60,61
 1304 921 1304 921 1304 708 c 0,62,63
 1304 387 1304 387 1166 186 c 0,64,65
 1012 -38 1012 -38 696 -38 c 0,66,67
 288 -38 288 -38 147 339 c 0,68,69
 88 497 88 497 88 707 c 0,49,50
EndSplineSet
Validated: 1
EndChar

StartChar: P
Encoding: 80 80 48
Width: 1386
GlyphClass: 2
Flags: W
LayerCount: 2
Back
SplineSet
92 80 m 5,0,-1
 216 80 l 5,1,-1
 216 1340 l 5,2,-1
 92 1340 l 5,3,-1
 92 1418 l 5,4,-1
 910 1418 l 6,5,6
 1014 1418 1014 1418 1090 1382 c 132,-1,7
 1166 1346 1166 1346 1216 1284 c 132,-1,8
 1266 1222 1266 1222 1289 1136 c 132,-1,9
 1312 1050 1312 1050 1312 950 c 132,-1,11
 1312 850 1312 850 1286 766 c 132,-1,12
 1260 682 1260 682 1207 623 c 132,-1,13
 1154 564 1154 564 1076 532 c 132,-1,14
 998 500 998 500 898 500 c 6,15,-1
 706 500 l 5,16,-1
 706 80 l 5,17,-1
 830 80 l 5,18,-1
 830 0 l 5,19,-1
 92 0 l 5,20,-1
 92 80 l 5,0,-1
706 572 m 5,21,22
 746 572 746 572 775 598 c 132,-1,23
 804 624 804 624 823 672 c 132,-1,24
 842 720 842 720 850 787 c 132,-1,25
 858 854 858 854 858 936 c 4,26,27
 858 1040 858 1040 850 1118 c 132,-1,28
 842 1196 842 1196 823 1246 c 132,-1,29
 804 1296 804 1296 776 1321 c 132,-1,30
 748 1346 748 1346 706 1346 c 5,31,-1
 706 572 l 5,21,22
EndSplineSet
Fore
SplineSet
216 1365 m 2,0,1
 226 1365 226 1365 233.5 1357.5 c 128,-1,2
 241 1350 241 1350 241 1340 c 2,3,-1
 241 80 l 2,4,5
 241 70 241 70 233.5 62.5 c 128,-1,6
 226 55 226 55 216 55 c 2,7,-1
 117 55 l 1,8,-1
 117 25 l 1,9,-1
 805 25 l 1,10,-1
 805 55 l 1,11,-1
 706 55 l 2,12,13
 696 55 696 55 688.5 62.5 c 128,-1,14
 681 70 681 70 681 80 c 2,15,-1
 681 500 l 2,16,17
 681 510 681 510 688.5 517.5 c 128,-1,18
 696 525 696 525 706 525 c 2,19,-1
 898 525 l 2,20,21
 1084 525 1084 525 1188 640 c 0,22,23
 1286 748 1286 748 1287 950 c 0,24,25
 1287 1262 1287 1262 1079 1359 c 0,26,27
 1008 1393 1008 1393 910 1393 c 2,28,-1
 117 1393 l 1,29,-1
 117 1365 l 1,30,-1
 216 1365 l 2,0,1
883 948 m 0,31,32
 883 548 883 548 706 547 c 0,33,34
 696 547 696 547 688.5 554.5 c 128,-1,35
 681 562 681 562 681 572 c 2,36,-1
 681 1346 l 2,37,38
 681 1356 681 1356 688.5 1363.5 c 128,-1,39
 696 1371 696 1371 706 1371 c 0,40,41
 850 1371 850 1371 875 1121 c 0,42,43
 883 1042 883 1042 883 948 c 0,31,32
706 572 m 1,44,45
 858 572 858 572 858 936 c 0,46,47
 858 1248 858 1248 776 1321 c 0,48,49
 748 1346 748 1346 706 1346 c 1,50,-1
 706 572 l 1,44,45
92 80 m 1,51,-1
 216 80 l 1,52,-1
 216 1340 l 1,53,-1
 92 1340 l 1,54,-1
 92 1418 l 1,55,-1
 910 1418 l 2,56,57
 1108 1418 1108 1418 1216 1284 c 0,58,59
 1312 1165 1312 1165 1312 950 c 0,60,61
 1312 629 1312 629 1076 532 c 0,62,63
 998 500 998 500 898 500 c 2,64,-1
 706 500 l 1,65,-1
 706 80 l 1,66,-1
 830 80 l 1,67,-1
 830 0 l 1,68,-1
 92 0 l 1,69,-1
 92 80 l 1,51,-1
EndSplineSet
Validated: 1
EndChar

StartChar: Q
Encoding: 81 81 49
Width: 1414
GlyphClass: 2
Flags: W
LayerCount: 2
Back
SplineSet
86 708 m 0,25,26
 86 806 86 806 101 901 c 128,-1,27
 116 996 116 996 147 1079 c 128,-1,28
 178 1162 178 1162 226 1231 c 128,-1,29
 274 1300 274 1300 342 1350 c 128,-1,30
 410 1400 410 1400 498 1427 c 128,-1,31
 586 1454 586 1454 696 1454 c 256,32,33
 806 1454 806 1454 893 1427 c 128,-1,34
 980 1400 980 1400 1049 1350 c 128,-1,35
 1118 1300 1118 1300 1166 1231 c 128,-1,36
 1214 1162 1214 1162 1245 1079 c 128,-1,37
 1276 996 1276 996 1290 902 c 128,-1,38
 1304 808 1304 808 1304 708 c 0,39,40
 1304 590 1304 590 1283 479 c 128,-1,41
 1262 368 1262 368 1218 275 c 128,-1,42
 1174 182 1174 182 1102 111 c 128,-1,43
 1030 40 1030 40 932 2 c 1,44,45
 940 -30 940 -30 954 -58 c 128,-1,46
 968 -86 968 -86 989 -106 c 128,-1,47
 1010 -126 1010 -126 1040 -139 c 128,-1,48
 1070 -152 1070 -152 1108 -152 c 0,49,50
 1138 -152 1138 -152 1168 -147 c 128,-1,51
 1198 -142 1198 -142 1222 -123 c 128,-1,52
 1246 -104 1246 -104 1260 -68 c 128,-1,53
 1274 -32 1274 -32 1274 26 c 1,54,-1
 1318 26 l 1,55,56
 1320 -2 1320 -2 1322 -28 c 128,-1,57
 1324 -54 1324 -54 1324 -80 c 0,58,59
 1324 -166 1324 -166 1311 -234 c 128,-1,60
 1298 -302 1298 -302 1272 -347 c 128,-1,61
 1246 -392 1246 -392 1200 -414 c 0,62,63
 1156 -436 1156 -436 1096 -436 c 0,64,65
 1042 -436 1042 -436 1002 -421 c 128,-1,66
 962 -406 962 -406 935 -377 c 128,-1,67
 908 -348 908 -348 889 -309 c 128,-1,68
 870 -270 870 -270 860 -224 c 128,-1,69
 850 -178 850 -178 844 -128 c 128,-1,70
 838 -78 838 -78 834 -24 c 1,71,72
 802 -30 802 -30 768 -34 c 128,-1,73
 734 -38 734 -38 696 -38 c 0,74,75
 586 -38 586 -38 498 -11 c 128,-1,76
 410 16 410 16 342 66 c 128,-1,77
 274 116 274 116 226 186 c 128,-1,78
 178 256 178 256 147 339 c 128,-1,79
 116 422 116 422 101 515 c 128,-1,80
 86 608 86 608 86 708 c 0,25,26
574 394 m 1,81,82
 598 432 598 432 634 455 c 128,-1,83
 670 478 670 478 708 478 c 128,-1,84
 746 478 746 478 772 466 c 128,-1,85
 798 454 798 454 820 434 c 1,86,87
 824 550 824 550 824 708 c 0,88,89
 824 906 824 906 818 1038 c 128,-1,90
 812 1170 812 1170 797 1247 c 128,-1,91
 782 1324 782 1324 758 1355 c 128,-1,92
 734 1386 734 1386 696 1386 c 256,93,94
 660 1386 660 1386 635 1355 c 128,-1,95
 610 1324 610 1324 596 1247 c 128,-1,96
 582 1170 582 1170 576 1039 c 128,-1,97
 570 908 570 908 570 708 c 0,98,99
 570 614 570 614 571 537 c 128,-1,100
 572 460 572 460 574 394 c 1,81,82
578 318 m 1,101,102
 584 236 584 236 593 181 c 128,-1,103
 602 126 602 126 616 93 c 128,-1,104
 630 60 630 60 650 45 c 128,-1,105
 670 30 670 30 696 30 c 0,106,107
 718 30 718 30 737 42 c 128,-1,108
 756 54 756 54 769 81 c 128,-1,109
 782 108 782 108 792 152 c 128,-1,110
 802 196 802 196 808 262 c 1,111,112
 796 322 796 322 769 360 c 128,-1,113
 742 398 742 398 686 398 c 0,114,115
 656 398 656 398 626 375 c 128,-1,116
 596 352 596 352 578 318 c 1,101,102
EndSplineSet
Fore
SplineSet
843 1040 m 128,-1,1
 849 907 849 907 849 681 c 128,-1,2
 849 455 849 455 843 419 c 1,3,4
 886 358 886 358 905.5 280 c 128,-1,5
 925 202 925 202 925 150 c 128,-1,6
 925 98 925 98 930 28 c 1,7,8
 1192 135 1192 135 1258 484 c 0,9,10
 1278 592 1278 592 1279 699 c 0,11,12
 1279 1023 1279 1023 1138 1226 c 128,-1,13
 997 1429 997 1429 696.5 1429 c 128,-1,14
 396 1429 396 1429 247 1217 c 0,15,16
 111 1024 111 1024 111 710.5 c 128,-1,17
 111 397 111 397 247 200 c 0,18,19
 393 -13 393 -13 696 -13 c 0,20,21
 757 -13 757 -13 829 1 c 1,22,-1
 820 52 l 2,23,24
 813 92 813 92 813 133 c 1,25,26
 784 5 784 5 694 5 c 0,27,28
 596 5 596 5 568 176 c 0,29,30
 553 268 553 268 553 321 c 1,31,-1
 549 393 l 1,32,33
 545 526 545 526 545 717.5 c 128,-1,34
 545 909 545 909 551 1041 c 0,35,36
 563 1305 563 1305 616 1371 c 0,37,38
 648 1411 648 1411 697 1411 c 128,-1,39
 746 1411 746 1411 775.5 1373 c 128,-1,40
 805 1335 805 1335 821 1254 c 128,-1,0
 837 1173 837 1173 843 1040 c 128,-1,1
834 -24 m 1,41,42
 759 -38 759 -38 672.5 -38 c 128,-1,43
 586 -38 586 -38 498 -11 c 128,-1,44
 410 16 410 16 342 66 c 0,45,46
 214 160 214 160 150 331 c 128,-1,47
 86 502 86 502 86 708 c 0,48,49
 86 1030 86 1030 226 1231 c 0,50,51
 381 1454 381 1454 696 1454 c 0,52,53
 1105 1454 1105 1454 1245 1079 c 0,54,55
 1304 921 1304 921 1304 708 c 0,56,57
 1304 310 1304 310 1102 111 c 0,58,59
 1030 40 1030 40 932 2 c 1,60,61
 950 -68 950 -68 980 -97 c 0,62,63
 1037 -152 1037 -152 1111 -152 c 128,-1,64
 1185 -152 1185 -152 1216 -128 c 0,65,66
 1274 -82 1274 -82 1274 26 c 1,67,-1
 1318 26 l 1,68,69
 1324 -58 1324 -58 1324 -112 c 128,-1,70
 1324 -166 1324 -166 1311 -234 c 0,71,72
 1284 -374 1284 -374 1200 -414 c 0,73,74
 1156 -436 1156 -436 1099 -436 c 128,-1,75
 1042 -436 1042 -436 1002 -421 c 128,-1,76
 962 -406 962 -406 935 -377 c 0,77,78
 881 -319 881 -319 862 -232.5 c 128,-1,79
 843 -146 843 -146 834 -24 c 1,41,42
574 394 m 1,80,81
 627 478 627 478 699.5 478 c 128,-1,82
 772 478 772 478 820 434 c 1,83,84
 824 550 824 550 824 728 c 128,-1,85
 824 906 824 906 818 1038 c 128,-1,86
 812 1170 812 1170 797 1247 c 128,-1,87
 782 1324 782 1324 758 1355 c 128,-1,88
 734 1386 734 1386 697 1386 c 0,89,90
 621 1386 621 1386 595.5 1245 c 128,-1,91
 570 1104 570 1104 570 815 c 128,-1,92
 570 526 570 526 574 394 c 1,80,81
808 262 m 1,93,94
 781 398 781 398 700.5 398 c 128,-1,95
 620 398 620 398 578 318 c 1,96,97
 590 154 590 154 610 107 c 128,-1,98
 630 60 630 60 650 45 c 128,-1,99
 670 30 670 30 694 30 c 0,100,101
 744 30 744 30 770.5 84.5 c 128,-1,102
 797 139 797 139 808 262 c 1,93,94
1296 -21 m 1,103,104
 1277 -177 1277 -177 1130 -177 c 0,105,106
 1013 -177 1013 -177 952 -96 c 0,107,108
 914 -44 914 -44 912 14 c 0,109,110
 908 181 908 181 890.5 247.5 c 128,-1,111
 873 314 873 314 871.5 314 c 128,-1,112
 870 314 870 314 857 344 c 128,-1,113
 844 374 844 374 828 390 c 2,114,115
 828 390 828 390 795 422 c 0,116,117
 763 453 763 453 723 453 c 0,118,119
 722 453 722 453 720 453 c 0,120,121
 642 453 642 453 596 383 c 1,122,123
 604 389 604 389 626 406 c 128,-1,124
 648 423 648 423 686 423 c 0,125,126
 755 423 755 423 789 374 c 0,127,128
 803 354 803 354 813 332 c 1,129,130
 831 305 831 305 832 286 c 128,-1,131
 833 267 833 267 834 227 c 128,-1,132
 835 187 835 187 837 158.5 c 128,-1,133
 839 130 839 130 845 58 c 1,134,-1
 856 3 l 25,135,136
 868 -134 868 -134 886 -224 c 0,137,138
 924 -410 924 -410 1096 -411 c 0,139,140
 1150 -411 1150 -411 1170 -401 c 2,141,142
 1170 -401 1170 -401 1189 -391 c 0,143,144
 1299 -337 1299 -337 1299 -80 c 0,145,146
 1299 -56 1299 -56 1296 -21 c 1,103,104
EndSplineSet
Validated: 1
EndChar

StartChar: R
Encoding: 82 82 50
Width: 1476
GlyphClass: 2
Flags: W
LayerCount: 2
Back
SplineSet
92 80 m 5,0,-1
 216 80 l 5,1,-1
 216 1340 l 5,2,-1
 92 1340 l 5,3,-1
 92 1418 l 5,4,-1
 904 1418 l 6,5,6
 1000 1418 1000 1418 1077 1395 c 132,-1,7
 1154 1372 1154 1372 1206 1327 c 132,-1,8
 1258 1282 1258 1282 1285 1212 c 132,-1,9
 1312 1142 1312 1142 1312 1046 c 4,10,11
 1312 962 1312 962 1289 898 c 132,-1,12
 1266 834 1266 834 1208 789 c 132,-1,13
 1150 744 1150 744 1055 719 c 132,-1,14
 960 694 960 694 818 694 c 5,15,16
 944 694 944 694 1034 677 c 132,-1,17
 1124 660 1124 660 1182 620 c 132,-1,18
 1240 580 1240 580 1266 511 c 132,-1,19
 1292 442 1292 442 1292 338 c 4,20,21
 1292 310 1292 310 1291 288 c 132,-1,22
 1290 266 1290 266 1290 240 c 4,23,24
 1290 212 1290 212 1289 195 c 132,-1,25
 1288 178 1288 178 1288 160 c 4,26,27
 1288 130 1288 130 1294 113 c 132,-1,28
 1300 96 1300 96 1314 96 c 4,29,30
 1336 96 1336 96 1348 160 c 132,-1,31
 1360 224 1360 224 1360 344 c 5,32,-1
 1420 344 l 5,33,-1
 1420 314 l 6,34,35
 1420 216 1420 216 1407 147 c 132,-1,36
 1394 78 1394 78 1360 36 c 132,-1,37
 1326 -6 1326 -6 1269 -25 c 132,-1,38
 1212 -44 1212 -44 1124 -44 c 4,39,40
 1040 -44 1040 -44 986 -19 c 132,-1,41
 932 6 932 6 898 54 c 132,-1,42
 864 102 864 102 851 173 c 132,-1,43
 838 244 838 244 838 338 c 4,44,45
 838 440 838 440 831 505 c 132,-1,46
 824 570 824 570 808 607 c 132,-1,47
 792 644 792 644 767 658 c 132,-1,48
 742 672 742 672 706 672 c 5,49,-1
 706 80 l 5,50,-1
 830 80 l 5,51,-1
 830 0 l 5,52,-1
 92 0 l 5,53,-1
 92 80 l 5,0,-1
706 752 m 5,54,55
 744 752 744 752 772 764 c 132,-1,56
 800 776 800 776 820 810 c 132,-1,57
 840 844 840 844 849 901 c 132,-1,58
 858 958 858 958 858 1046 c 260,59,60
 858 1134 858 1134 849 1192 c 132,-1,61
 840 1250 840 1250 820 1282 c 132,-1,62
 800 1314 800 1314 773 1327 c 132,-1,63
 746 1340 746 1340 706 1340 c 5,64,-1
 706 752 l 5,54,55
EndSplineSet
Fore
SplineSet
1287 1046 m 0,0,1
 1287 1393 1287 1393 904 1393 c 2,2,-1
 117 1393 l 1,3,-1
 117 1365 l 1,4,-1
 216 1365 l 2,5,6
 226 1365 226 1365 233.5 1357.5 c 128,-1,7
 241 1350 241 1350 241 1340 c 2,8,-1
 241 80 l 2,9,10
 241 70 241 70 233.5 62.5 c 128,-1,11
 226 55 226 55 216 55 c 2,12,-1
 117 55 l 1,13,-1
 117 25 l 1,14,-1
 805 25 l 1,15,-1
 805 55 l 1,16,-1
 706 55 l 2,17,18
 696 55 696 55 688.5 62.5 c 128,-1,19
 681 70 681 70 681 80 c 2,20,-1
 681 672 l 2,21,22
 681 682 681 682 688.5 689.5 c 128,-1,23
 696 697 696 697 706 697 c 0,24,25
 767 697 767 697 793 671 c 128,-1,26
 819 645 819 645 834 611 c 128,-1,27
 849 577 849 577 856 509 c 128,-1,28
 863 441 863 441 863 343.5 c 128,-1,29
 863 246 863 246 875 179 c 0,30,31
 912 -19 912 -19 1127 -19 c 0,32,33
 1129 -19 1129 -19 1131 -19 c 0,34,35
 1283 -19 1283 -19 1341 52 c 0,36,37
 1395 118 1395 118 1395 314 c 2,38,-1
 1395 319 l 1,39,-1
 1385 319 l 1,40,41
 1383 167 1383 167 1363.5 119 c 128,-1,42
 1344 71 1344 71 1314 71 c 0,43,44
 1263 71 1263 71 1263 160 c 1,45,46
 1263 160 1263 160 1264 200 c 128,-1,47
 1265 240 1265 240 1266 338 c 0,48,49
 1266 342 1266 342 1266 346 c 0,50,51
 1266 438 1266 438 1244 500 c 0,52,53
 1220 564 1220 564 1167 600 c 0,54,55
 1065 669 1065 669 818 669 c 0,56,57
 808 669 808 669 800.5 676.5 c 128,-1,58
 793 684 793 684 793 694 c 128,-1,59
 793 704 793 704 800.5 711.5 c 128,-1,60
 808 719 808 719 818 719 c 0,61,62
 1199 719 1199 719 1265 906 c 0,63,64
 1287 966 1287 966 1287 1046 c 0,0,1
681 752 m 2,65,-1
 681 1340 l 2,66,67
 681 1350 681 1350 688.5 1357.5 c 128,-1,68
 696 1365 696 1365 724 1365 c 128,-1,69
 752 1365 752 1365 785 1349.5 c 128,-1,70
 818 1334 818 1334 841 1296.5 c 128,-1,71
 864 1259 864 1259 873.5 1197.5 c 128,-1,72
 883 1136 883 1136 883 1046 c 128,-1,73
 883 956 883 956 871 882 c 0,74,75
 853 771 853 771 782 741 c 0,76,77
 748 727 748 727 722 727 c 0,78,79
 680 727 680 727 681 752 c 2,65,-1
706 752 m 1,80,81
 786 752 786 752 820 810 c 0,82,83
 858 875 858 875 858 1004.5 c 128,-1,84
 858 1134 858 1134 849 1192 c 128,-1,85
 840 1250 840 1250 820 1282 c 0,86,87
 784 1340 784 1340 706 1340 c 1,88,-1
 706 752 l 1,80,81
1314 96 m 0,89,90
 1360 96 1360 96 1360 344 c 1,91,-1
 1420 344 l 1,92,-1
 1420 314 l 2,93,94
 1420 110 1420 110 1360 36 c 0,95,96
 1295 -44 1295 -44 1124 -44 c 0,97,98
 891 -44 891 -44 851 173 c 0,99,100
 838 244 838 244 838 342 c 128,-1,101
 838 440 838 440 831 505 c 128,-1,102
 824 570 824 570 808 607 c 0,103,104
 780 672 780 672 706 672 c 1,105,-1
 706 80 l 1,106,-1
 830 80 l 1,107,-1
 830 0 l 1,108,-1
 92 0 l 1,109,-1
 92 80 l 1,110,-1
 216 80 l 1,111,-1
 216 1340 l 1,112,-1
 92 1340 l 1,113,-1
 92 1418 l 1,114,-1
 904 1418 l 2,115,116
 1312 1418 1312 1418 1312 1046 c 0,117,118
 1312 870 1312 870 1208 789 c 0,119,120
 1086 694 1086 694 818 694 c 1,121,122
 1075 694 1075 694 1182 620 c 0,123,124
 1292 544 1292 544 1292 338 c 1,125,126
 1292 338 1292 338 1291 289 c 128,-1,127
 1290 240 1290 240 1289 168 c 0,128,129
 1289 165 1289 165 1289 163 c 0,130,131
 1289 96 1289 96 1314 96 c 0,89,90
EndSplineSet
Validated: 1
EndChar

StartChar: S
Encoding: 83 83 51
Width: 1258
GlyphClass: 2
Flags: W
LayerCount: 2
Back
SplineSet
138 544 m 5,0,-1
 184 544 l 5,1,2
 202 494 202 494 229 438 c 132,-1,3
 256 382 256 382 291 326 c 132,-1,4
 326 270 326 270 372 219 c 132,-1,5
 418 168 418 168 474 126 c 4,6,7
 536 82 536 82 586 70 c 4,8,9
 680 40 680 40 738 36 c 4,10,11
 739 35 739 35 746 35 c 4,12,13
 759 35 759 35 794 38 c 4,14,15
 806 38 806 38 832 44 c 4,16,17
 882 54 882 54 918 94 c 4,18,19
 960 136 960 136 960 191 c 4,20,21
 960 193 960 193 960 196 c 4,22,23
 960 248 960 248 938 312 c 4,24,25
 922 358 922 358 832 404 c 4,26,27
 772 438 772 438 718 458 c 4,28,29
 648 486 648 486 556 522 c 4,30,31
 348 598 348 598 242 741 c 132,-1,32
 136 884 136 884 136 973 c 132,-1,33
 136 1062 136 1062 171 1159 c 132,-1,34
 206 1256 206 1256 269 1321 c 132,-1,35
 332 1386 332 1386 415 1420 c 132,-1,36
 498 1454 498 1454 592 1454 c 4,37,38
 640 1454 640 1454 693 1443 c 132,-1,39
 746 1432 746 1432 797 1410 c 132,-1,40
 848 1388 848 1388 892 1359 c 132,-1,41
 936 1330 936 1330 970 1294 c 5,42,-1
 1078 1442 l 5,43,-1
 1126 1442 l 5,44,-1
 1126 1006 l 5,45,-1
 1082 1006 l 5,46,47
 1052 1086 1052 1086 1002 1153 c 132,-1,48
 952 1220 952 1220 889 1270 c 132,-1,49
 826 1320 826 1320 749 1349 c 132,-1,50
 672 1378 672 1378 586 1378 c 4,51,52
 570 1378 570 1378 544 1378 c 4,53,54
 518 1376 518 1376 494 1366 c 4,55,56
 484 1362 484 1362 452 1338 c 4,57,58
 400 1300 400 1300 396 1240 c 4,59,60
 395 1230 395 1230 395 1221 c 4,61,62
 395 1131 395 1131 464 1078 c 4,63,64
 548 1016 548 1016 662 988 c 4,65,66
 806 952 806 952 832 940 c 4,67,68
 932 896 932 896 954 882 c 4,69,70
 1004 850 1004 850 1045 808 c 132,-1,71
 1086 766 1086 766 1114 710 c 132,-1,72
 1142 654 1142 654 1159 582 c 132,-1,73
 1176 510 1176 510 1176 482 c 4,74,75
 1176 374 1176 374 1147 283 c 132,-1,76
 1118 192 1118 192 1062 120 c 132,-1,77
 1006 48 1006 48 922 5 c 132,-1,78
 838 -38 838 -38 728 -38 c 4,79,80
 668 -38 668 -38 615 -25 c 132,-1,81
 562 -12 562 -12 511 14 c 132,-1,82
 460 40 460 40 411 79 c 132,-1,83
 362 118 362 118 312 172 c 5,84,-1
 190 -18 l 5,85,-1
 138 -18 l 5,86,-1
 138 544 l 5,0,-1
EndSplineSet
Fore
SplineSet
459 106 m 0,0,1
 270 246 270 246 167 519 c 1,2,-1
 163 519 l 1,3,-1
 163 7 l 1,4,-1
 176 7 l 1,5,-1
 291 185 l 2,6,7
 298 196 298 196 310.5 196.5 c 128,-1,8
 323 197 323 197 330 189 c 0,9,10
 516 -13 516 -13 728 -13 c 0,11,12
 928 -12 928 -12 1043 136 c 0,13,14
 1151 276 1151 276 1151 482 c 0,15,16
 1151 507 1151 507 1135 576 c 0,17,18
 1102 716 1102 716 1023 795 c 0,19,20
 986 832 986 832 954 853 c 0,21,22
 863 912 863 912 700 952.5 c 128,-1,23
 537 993 537 993 453.5 1056 c 128,-1,24
 370 1119 370 1119 370 1221 c 0,25,26
 370 1309 370 1309 437 1358 c 0,27,28
 489 1398 489 1398 542 1403 c 1,29,30
 542 1403 542 1403 609.5 1403 c 128,-1,31
 677 1403 677 1403 757.5 1372.5 c 128,-1,32
 838 1342 838 1342 904 1290 c 0,33,34
 1035 1188 1035 1188 1099 1031 c 1,35,-1
 1101 1031 l 1,36,-1
 1101 1417 l 1,37,-1
 1091 1417 l 1,38,-1
 990 1279 l 2,39,40
 983 1269 983 1269 971 1269 c 128,-1,41
 959 1269 959 1269 952 1277 c 0,42,43
 852 1384 852 1384 688 1418 c 0,44,45
 638 1428 638 1428 570 1428 c 0,46,47
 569 1428 569 1428 568 1429 c 0,48,49
 500 1429 500 1429 424 1397 c 0,50,51
 346 1365 346 1365 287 1303.5 c 128,-1,52
 228 1242 228 1242 194.5 1150 c 128,-1,53
 161 1058 161 1058 161 975 c 128,-1,54
 161 892 161 892 262.5 755.5 c 128,-1,55
 364 619 364 619 565 545 c 0,56,57
 658 509 658 509 720.5 484.5 c 128,-1,58
 783 460 783 460 844 426 c 0,59,60
 943 376 943 376 964 314 c 128,-1,61
 985 252 985 252 985 196 c 2,62,-1
 985 191 l 2,63,64
 985 126 985 126 936 77 c 0,65,66
 884 19 884 19 795 13 c 0,67,68
 767 11 767 11 744 11 c 0,69,70
 724 10 724 10 708 12 c 0,71,72
 673 16 673 16 579 46 c 1,73,74
 525 59 525 59 460 106 c 1,75,76
 460 106 460 106 459 106 c 0,0,1
312 172 m 1,77,-1
 190 -18 l 1,78,-1
 138 -18 l 1,79,-1
 138 544 l 1,80,-1
 184 544 l 1,81,82
 283 269 283 269 474 126 c 0,83,84
 536 82 536 82 586 70 c 0,85,86
 696 35 696 35 727 35 c 0,87,88
 793 35 793 35 837.5 44.5 c 128,-1,89
 882 54 882 54 918 94 c 0,90,91
 960 136 960 136 960 191 c 2,92,93
 960 191 960 191 960 219.5 c 128,-1,94
 960 248 960 248 938 312 c 0,95,96
 922 358 922 358 832 404 c 0,97,98
 772 438 772 438 710 462 c 128,-1,99
 648 486 648 486 556 522 c 0,100,101
 348 598 348 598 242 741 c 128,-1,102
 136 884 136 884 136 973 c 128,-1,103
 136 1062 136 1062 171 1159 c 128,-1,104
 206 1256 206 1256 269 1321 c 0,105,106
 398 1454 398 1454 592 1454 c 0,107,108
 748 1454 748 1454 892 1359 c 0,109,110
 936 1330 936 1330 970 1294 c 1,111,-1
 1078 1442 l 1,112,-1
 1126 1442 l 1,113,-1
 1126 1006 l 1,114,-1
 1082 1006 l 1,115,116
 1023 1164 1023 1164 889 1270 c 0,117,118
 753 1378 753 1378 586 1378 c 1,119,120
 586 1378 586 1378 552 1377 c 128,-1,121
 518 1376 518 1376 501 1369 c 128,-1,122
 484 1362 484 1362 452 1338 c 0,123,124
 395 1296 395 1296 395 1213.5 c 128,-1,125
 395 1131 395 1131 471.5 1073.5 c 128,-1,126
 548 1016 548 1016 677 984 c 0,127,128
 868 937 868 937 936 893.5 c 128,-1,129
 1004 850 1004 850 1045 808 c 128,-1,130
 1086 766 1086 766 1114 710 c 128,-1,131
 1142 654 1142 654 1159 582 c 128,-1,132
 1176 510 1176 510 1176 442 c 128,-1,133
 1176 374 1176 374 1147 283 c 128,-1,134
 1118 192 1118 192 1062 120 c 0,135,136
 939 -38 939 -38 722.5 -38 c 128,-1,137
 506 -38 506 -38 312 172 c 1,77,-1
EndSplineSet
Validated: 1
EndChar

StartChar: T
Encoding: 84 84 52
Width: 1330
GlyphClass: 2
Flags: W
LayerCount: 2
Back
SplineSet
288 80 m 5,0,-1
 412 80 l 5,1,-1
 412 1340 l 5,2,-1
 310 1340 l 5,3,-1
 136 846 l 5,4,-1
 86 846 l 5,5,-1
 86 1418 l 5,6,-1
 1228 1418 l 5,7,-1
 1228 846 l 5,8,-1
 1178 846 l 5,9,-1
 1006 1340 l 5,10,-1
 902 1340 l 5,11,-1
 902 80 l 5,12,-1
 1026 80 l 5,13,-1
 1026 0 l 5,14,-1
 288 0 l 5,15,-1
 288 80 l 5,0,-1
EndSplineSet
Fore
SplineSet
313 25 m 1,0,-1
 1001 25 l 1,1,-1
 1001 55 l 1,2,-1
 902 55 l 2,3,4
 892 55 892 55 884.5 62.5 c 128,-1,5
 877 70 877 70 877 80 c 2,6,-1
 877 1340 l 2,7,8
 877 1350 877 1350 884.5 1357.5 c 128,-1,9
 892 1365 892 1365 902 1365 c 2,10,-1
 1006 1365 l 2,11,12
 1024 1365 1024 1365 1030 1348 c 2,13,-1
 1196 871 l 1,14,-1
 1203 871 l 1,15,-1
 1203 1393 l 1,16,-1
 111 1393 l 1,17,-1
 111 871 l 1,18,-1
 118 871 l 1,19,-1
 286 1348 l 2,20,21
 293 1365 293 1365 310 1365 c 2,22,-1
 412 1365 l 2,23,24
 422 1365 422 1365 429.5 1357.5 c 128,-1,25
 437 1350 437 1350 437 1340 c 2,26,-1
 437 80 l 2,27,28
 437 70 437 70 429.5 62.5 c 128,-1,29
 422 55 422 55 412 55 c 2,30,-1
 313 55 l 1,31,-1
 313 25 l 1,0,-1
288 80 m 1,32,-1
 412 80 l 1,33,-1
 412 1340 l 1,34,-1
 310 1340 l 1,35,-1
 136 846 l 1,36,-1
 86 846 l 1,37,-1
 86 1418 l 1,38,-1
 1228 1418 l 1,39,-1
 1228 846 l 1,40,-1
 1178 846 l 1,41,-1
 1006 1340 l 1,42,-1
 902 1340 l 1,43,-1
 902 80 l 1,44,-1
 1026 80 l 1,45,-1
 1026 0 l 1,46,-1
 288 0 l 1,47,-1
 288 80 l 1,32,-1
EndSplineSet
Validated: 1
EndChar

StartChar: U
Encoding: 85 85 53
Width: 1342
GlyphClass: 2
Flags: W
LayerCount: 2
Back
SplineSet
1290 1340 m 5,0,1
 1168 1340 1168 1340 1168 1280 c 6,2,-1
 1168 652 l 6,3,4
 1168 283 1168 283 1062 124 c 4,5,6
 954 -38 954 -38 680 -38 c 4,7,8
 331 -38 331 -38 217 290 c 4,9,10
 170 425 170 425 170 614 c 6,11,-1
 170 1340 l 5,12,-1
 48 1340 l 5,13,-1
 48 1418 l 5,14,-1
 784 1418 l 5,15,-1
 784 1340 l 5,16,-1
 662 1340 l 5,17,-1
 662 568 l 6,18,19
 662 345 662 345 691 259.5 c 132,-1,20
 720 174 720 174 756 136 c 132,-1,21
 792 98 792 98 862 98 c 4,22,23
 917 98 917 98 946.5 127 c 132,-1,24
 976 156 976 156 999 193 c 132,-1,25
 1022 230 1022 230 1039 288 c 4,26,27
 1076 414 1076 414 1076 624 c 6,28,-1
 1076 1280 l 6,29,30
 1076 1340 1076 1340 950 1340 c 5,31,-1
 950 1418 l 5,32,-1
 1290 1418 l 5,33,-1
 1290 1340 l 5,0,1
EndSplineSet
Fore
SplineSet
170 1365 m 2,0,1
 180 1365 180 1365 187.5 1357.5 c 128,-1,2
 195 1350 195 1350 195 1340 c 2,3,-1
 195 614 l 2,4,5
 195 429 195 429 241 298 c 0,6,7
 282 179 282 179 355 106 c 0,8,9
 474 -13 474 -13 680 -13 c 0,10,11
 941 -13 941 -13 1042 139 c 128,-1,12
 1143 291 1143 291 1143 652 c 2,13,-1
 1143 1280 l 2,14,15
 1143 1310 1143 1310 1164 1331 c 0,16,17
 1181 1348 1181 1348 1206.5 1355.5 c 128,-1,18
 1232 1363 1232 1363 1265 1364 c 1,19,-1
 1265 1393 l 1,20,-1
 975 1393 l 1,21,-1
 975 1364 l 1,22,23
 1009 1362 1009 1362 1036.5 1354.5 c 128,-1,24
 1064 1347 1064 1347 1081 1330 c 0,25,26
 1101 1310 1101 1310 1101 1280 c 2,27,-1
 1101 624 l 2,28,29
 1101 410 1101 410 1063 281 c 0,30,31
 1045 220 1045 220 1021 181 c 0,32,33
 996 141 996 141 964 109 c 0,34,35
 927 73 927 73 862 73 c 0,36,37
 781 73 781 73 738 119 c 0,38,39
 698 161 698 161 667.5 251 c 128,-1,40
 637 341 637 341 637 568 c 2,41,-1
 637 1340 l 2,42,43
 637 1350 637 1350 644.5 1357.5 c 128,-1,44
 652 1365 652 1365 662 1365 c 2,45,-1
 759 1365 l 1,46,-1
 759 1393 l 1,47,-1
 73 1393 l 1,48,-1
 73 1365 l 1,49,-1
 170 1365 l 2,0,1
1290 1340 m 1,50,51
 1168 1340 1168 1340 1168 1280 c 2,52,-1
 1168 652 l 2,53,54
 1168 283 1168 283 1062 124 c 0,55,56
 954 -38 954 -38 680 -38 c 0,57,58
 331 -38 331 -38 217 290 c 0,59,60
 170 425 170 425 170 614 c 2,61,-1
 170 1340 l 1,62,-1
 48 1340 l 1,63,-1
 48 1418 l 1,64,-1
 784 1418 l 1,65,-1
 784 1340 l 1,66,-1
 662 1340 l 1,67,-1
 662 568 l 2,68,69
 662 345 662 345 691 259.5 c 128,-1,70
 720 174 720 174 756 136 c 128,-1,71
 792 98 792 98 862 98 c 0,72,73
 917 98 917 98 946.5 127 c 128,-1,74
 976 156 976 156 999 193 c 128,-1,75
 1022 230 1022 230 1039 288 c 0,76,77
 1076 414 1076 414 1076 624 c 2,78,-1
 1076 1280 l 2,79,80
 1076 1340 1076 1340 950 1340 c 1,81,-1
 950 1418 l 1,82,-1
 1290 1418 l 1,83,-1
 1290 1340 l 1,50,51
EndSplineSet
Validated: 1
EndChar

StartChar: V
Encoding: 86 86 54
Width: 1384
GlyphClass: 2
Flags: W
LayerCount: 2
Back
SplineSet
1112 1292 m 4,0,1
 1112 1340 1112 1340 984 1340 c 5,2,-1
 984 1418 l 5,3,-1
 1334 1418 l 5,4,-1
 1334 1340 l 5,5,6
 1220 1340 1220 1340 1204 1278 c 6,7,-1
 868 0 l 5,8,-1
 564 0 l 5,9,-1
 148 1340 l 5,10,-1
 44 1340 l 5,11,-1
 44 1418 l 5,12,-1
 800 1418 l 5,13,-1
 800 1340 l 5,14,-1
 676 1340 l 5,15,-1
 906 501 l 5,16,-1
 1110 1278 l 6,17,18
 1112 1286 1112 1286 1112 1292 c 4,0,1
EndSplineSet
Fore
SplineSet
1137 1292 m 0,0,1
 1137 1283 1137 1283 1134 1272 c 2,2,-1
 930 495 l 2,3,4
 928 488 928 488 922 482 c 128,-1,5
 916 476 916 476 906 476 c 128,-1,6
 896 476 896 476 888 483 c 0,7,8
 883 488 883 488 882 494 c 2,9,-1
 652 1333 l 2,10,11
 651 1337 651 1337 651 1341 c 0,12,13
 651 1350 651 1350 658.5 1357.5 c 128,-1,14
 666 1365 666 1365 676 1365 c 2,15,-1
 775 1365 l 1,16,-1
 775 1393 l 1,17,-1
 69 1393 l 1,18,-1
 69 1365 l 1,19,-1
 148 1365 l 2,20,21
 158 1365 158 1365 166 1358 c 0,22,23
 170 1354 170 1354 172 1347 c 2,24,-1
 582 25 l 1,25,-1
 849 25 l 1,26,-1
 1180 1284 l 2,27,28
 1186 1308 1186 1308 1204 1326 c 0,29,30
 1237 1359 1237 1359 1309 1364 c 1,31,-1
 1309 1393 l 1,32,-1
 1009 1393 l 1,33,-1
 1009 1365 l 1,34,35
 1047 1363 1047 1363 1075.5 1355.5 c 128,-1,36
 1104 1348 1104 1348 1120.5 1331.5 c 128,-1,37
 1137 1315 1137 1315 1137 1292 c 0,0,1
1112 1292 m 0,38,39
 1112 1340 1112 1340 984 1340 c 1,40,-1
 984 1418 l 1,41,-1
 1334 1418 l 1,42,-1
 1334 1340 l 1,43,44
 1220 1340 1220 1340 1204 1278 c 2,45,-1
 868 0 l 1,46,-1
 564 0 l 1,47,-1
 148 1340 l 1,48,-1
 44 1340 l 1,49,-1
 44 1418 l 1,50,-1
 800 1418 l 1,51,-1
 800 1340 l 1,52,-1
 676 1340 l 1,53,-1
 906 501 l 1,54,-1
 1110 1278 l 2,55,56
 1112 1286 1112 1286 1112 1292 c 0,38,39
EndSplineSet
Validated: 1
EndChar

StartChar: W
Encoding: 87 87 55
Width: 1954
GlyphClass: 2
Flags: W
LayerCount: 2
Back
SplineSet
1678 1292 m 4,0,1
 1678 1340 1678 1340 1546 1340 c 5,2,-1
 1546 1418 l 5,3,-1
 1904 1418 l 5,4,-1
 1904 1340 l 5,5,6
 1840 1340 1840 1340 1811 1326 c 4,7,8
 1781 1312 1781 1312 1774 1278 c 6,9,-1
 1506 0 l 5,10,-1
 1200 0 l 5,11,-1
 976 868 l 5,12,-1
 794 0 l 5,13,-1
 490 0 l 5,14,-1
 142 1340 l 5,15,-1
 44 1340 l 5,16,-1
 44 1418 l 5,17,-1
 730 1418 l 5,18,-1
 730 1340 l 5,19,-1
 632 1340 l 5,20,-1
 819 563 l 5,21,-1
 925 1064 l 5,22,-1
 854 1340 l 5,23,-1
 806 1340 l 5,24,-1
 806 1418 l 5,25,-1
 1472 1418 l 5,26,-1
 1472 1340 l 5,27,-1
 1344 1340 l 5,28,-1
 1527 567 l 5,29,-1
 1676 1278 l 6,30,31
 1678 1288 1678 1288 1678 1292 c 4,0,1
EndSplineSet
Fore
SplineSet
1703 1292 m 4,0,1
 1703 1286 1703 1286 1701 1273 c 6,2,-1
 1551 562 l 6,3,4
 1549 555 1549 555 1543 548.5 c 132,-1,5
 1537 542 1537 542 1527 542 c 132,-1,6
 1517 542 1517 542 1510.5 548 c 132,-1,7
 1504 554 1504 554 1503 561 c 6,8,-1
 1320 1334 l 6,9,10
 1319 1337 1319 1337 1319 1341 c 4,11,12
 1319 1351 1319 1351 1326 1358 c 4,13,14
 1334 1365 1334 1365 1344 1365 c 6,15,-1
 1447 1365 l 5,16,-1
 1447 1393 l 5,17,-1
 831 1393 l 5,18,-1
 831 1365 l 5,19,-1
 854 1365 l 6,20,21
 864 1365 864 1365 870.5 1359 c 132,-1,22
 877 1353 877 1353 878 1346 c 6,23,-1
 949 1070 l 6,24,25
 950 1067 950 1067 950 1064 c 132,-1,26
 950 1061 950 1061 949 1059 c 6,27,-1
 843 558 l 6,28,29
 841 551 841 551 835 544.5 c 132,-1,30
 829 538 829 538 819 538 c 132,-1,31
 809 538 809 538 802.5 544 c 132,-1,32
 796 550 796 550 795 557 c 6,33,-1
 608 1334 l 6,34,35
 607 1337 607 1337 607 1341 c 4,36,37
 607 1351 607 1351 614 1358 c 4,38,39
 622 1365 622 1365 632 1365 c 6,40,-1
 705 1365 l 5,41,-1
 705 1393 l 5,42,-1
 69 1393 l 5,43,-1
 69 1365 l 5,44,-1
 142 1365 l 6,45,46
 152 1365 152 1365 158 1359 c 132,-1,47
 164 1353 164 1353 166 1346 c 6,48,-1
 509 25 l 5,49,-1
 774 25 l 5,50,-1
 952 873 l 6,51,52
 954 880 954 880 960 886.5 c 132,-1,53
 966 893 966 893 976 893 c 132,-1,54
 986 893 986 893 992.5 887 c 132,-1,55
 999 881 999 881 1000 874 c 6,56,-1
 1219 25 l 5,57,-1
 1486 25 l 5,58,-1
 1750 1283 l 6,59,60
 1760 1329 1760 1329 1800 1349 c 4,61,62
 1828 1362 1828 1362 1879 1364 c 5,63,-1
 1879 1393 l 5,64,-1
 1571 1393 l 5,65,-1
 1571 1365 l 5,66,67
 1611 1363 1611 1363 1640.5 1355.5 c 132,-1,68
 1670 1348 1670 1348 1686.5 1331.5 c 132,-1,69
 1703 1315 1703 1315 1703 1292 c 4,0,1
1678 1292 m 4,70,71
 1678 1340 1678 1340 1546 1340 c 5,72,-1
 1546 1418 l 5,73,-1
 1904 1418 l 5,74,-1
 1904 1340 l 5,75,76
 1840 1340 1840 1340 1811 1326 c 4,77,78
 1781 1312 1781 1312 1774 1278 c 6,79,-1
 1506 0 l 5,80,-1
 1200 0 l 5,81,-1
 976 868 l 5,82,-1
 794 0 l 5,83,-1
 490 0 l 5,84,-1
 142 1340 l 5,85,-1
 44 1340 l 5,86,-1
 44 1418 l 5,87,-1
 730 1418 l 5,88,-1
 730 1340 l 5,89,-1
 632 1340 l 5,90,-1
 819 563 l 5,91,-1
 925 1064 l 5,92,-1
 854 1340 l 5,93,-1
 806 1340 l 5,94,-1
 806 1418 l 5,95,-1
 1472 1418 l 5,96,-1
 1472 1340 l 5,97,-1
 1344 1340 l 5,98,-1
 1527 567 l 5,99,-1
 1676 1278 l 6,100,101
 1678 1288 1678 1288 1678 1292 c 4,70,71
EndSplineSet
Validated: 1
EndChar

StartChar: X
Encoding: 88 88 56
Width: 1506
GlyphClass: 2
Flags: W
LayerCount: 2
Back
SplineSet
74 81 m 5,0,-1
 101 81 l 6,1,2
 133 81 133 81 160 115 c 6,3,-1
 545 574 l 5,4,-1
 218 1340 l 5,5,-1
 76 1340 l 5,6,-1
 76 1418 l 5,7,-1
 868 1418 l 5,8,-1
 868 1340 l 5,9,-1
 756 1340 l 5,10,-1
 925 954 l 5,11,-1
 1186 1276 l 6,12,13
 1211 1311 1211 1311 1163 1328 c 4,14,15
 1129 1340 1129 1340 1074 1340 c 5,16,-1
 1074 1418 l 5,17,-1
 1434 1418 l 5,18,-1
 1434 1340 l 5,19,20
 1374 1340 1374 1340 1351 1323 c 4,21,22
 1331 1309 1331 1309 1323 1301 c 6,23,-1
 964 851 l 5,24,-1
 1290 80 l 5,25,-1
 1434 80 l 5,26,-1
 1434 0 l 5,27,-1
 638 0 l 5,28,-1
 638 80 l 5,29,-1
 752 80 l 5,30,-1
 590 478 l 5,31,-1
 294 132 l 5,32,33
 289 110 289 110 324 94 c 4,34,35
 354 80 354 80 424 80 c 5,36,-1
 424 0 l 5,37,-1
 74 0 l 5,38,-1
 74 81 l 5,0,-1
EndSplineSet
Fore
SplineSet
101 56 m 2,0,-1
 99 56 l 1,1,-1
 99 25 l 1,2,-1
 399 25 l 1,3,-1
 399 55 l 1,4,5
 342 57 342 57 313 71 c 0,6,7
 295 79 295 79 284 91 c 0,8,9
 268 107 268 107 268 126 c 0,10,11
 268 140 268 140 275 148 c 0,12,13
 572 496 572 496 572 496 c 0,14,15
 579 503 579 503 589.5 503 c 128,-1,16
 600 503 600 503 608 496 c 0,17,18
 612 492 612 492 613 487 c 2,19,-1
 775 89 l 2,20,21
 777 84 777 84 777 79 c 0,22,23
 777 70 777 70 769.5 62.5 c 128,-1,24
 762 55 762 55 752 55 c 2,25,-1
 663 55 l 1,26,-1
 663 25 l 1,27,-1
 1409 25 l 1,28,-1
 1409 55 l 1,29,-1
 1290 55 l 2,30,31
 1280 55 1280 55 1272 62 c 0,32,33
 1269 65 1269 65 1267 70 c 2,34,-1
 941 841 l 2,35,36
 939 846 939 846 939 852 c 0,37,38
 939 860 939 860 944 867 c 0,39,40
 1305 1319 1305 1319 1305 1319 c 0,41,42
 1315 1329 1315 1329 1333 1341.5 c 128,-1,43
 1351 1354 1351 1354 1370 1358.5 c 128,-1,44
 1389 1363 1389 1363 1409 1364 c 1,45,-1
 1409 1393 l 1,46,-1
 1099 1393 l 1,47,-1
 1099 1364 l 1,48,49
 1142 1362 1142 1362 1167.5 1353 c 128,-1,50
 1193 1344 1193 1344 1205 1332 c 0,51,52
 1220 1317 1220 1317 1220 1298 c 0,53,54
 1220 1280 1220 1280 1206 1261 c 0,55,56
 1206 1261 1206 1261 1075 1099 c 128,-1,57
 944 937 944 937 943 936 c 0,58,59
 936 929 936 929 925.5 929 c 128,-1,60
 915 929 915 929 907 936 c 0,61,62
 904 939 904 939 902 944 c 2,63,-1
 733 1330 l 2,64,65
 731 1336 731 1336 731 1341 c 0,66,67
 731 1350 731 1350 738.5 1357.5 c 128,-1,68
 746 1365 746 1365 756 1365 c 2,69,-1
 843 1365 l 1,70,-1
 843 1393 l 1,71,-1
 101 1393 l 1,72,-1
 101 1365 l 1,73,-1
 218 1365 l 2,74,75
 228 1365 228 1365 236 1358 c 0,76,77
 239 1355 239 1355 241 1350 c 2,78,-1
 568 584 l 2,79,80
 570 579 570 579 570 572 c 128,-1,81
 570 565 570 565 564 558 c 2,82,-1
 179 99 l 2,83,84
 145 56 145 56 101 56 c 2,0,-1
74 81 m 1,85,-1
 101 81 l 2,86,87
 133 81 133 81 160 115 c 2,88,-1
 545 574 l 1,89,-1
 218 1340 l 1,90,-1
 76 1340 l 1,91,-1
 76 1418 l 1,92,-1
 868 1418 l 1,93,-1
 868 1340 l 1,94,-1
 756 1340 l 1,95,-1
 925 954 l 1,96,-1
 1186 1276 l 2,97,98
 1211 1311 1211 1311 1163 1328 c 0,99,100
 1129 1340 1129 1340 1074 1340 c 1,101,-1
 1074 1418 l 1,102,-1
 1434 1418 l 1,103,-1
 1434 1340 l 1,104,105
 1374 1340 1374 1340 1351 1323 c 0,106,107
 1331 1309 1331 1309 1323 1301 c 2,108,-1
 964 851 l 1,109,-1
 1290 80 l 1,110,-1
 1434 80 l 1,111,-1
 1434 0 l 1,112,-1
 638 0 l 1,113,-1
 638 80 l 1,114,-1
 752 80 l 1,115,-1
 590 478 l 1,116,-1
 294 132 l 1,117,118
 289 110 289 110 324 94 c 0,119,120
 354 80 354 80 424 80 c 1,121,-1
 424 0 l 1,122,-1
 74 0 l 1,123,-1
 74 81 l 1,85,-1
EndSplineSet
Validated: 1
EndChar

StartChar: Y
Encoding: 89 89 57
Width: 1362
GlyphClass: 2
Flags: W
LayerCount: 2
Back
SplineSet
1098 1294 m 4,0,1
 1098 1340.01 1098 1340.01 970 1340 c 5,2,-1
 970 1418 l 5,3,-1
 1312 1418 l 5,4,-1
 1312 1340 l 5,5,6
 1225 1340 1225 1340 1204 1308 c 4,7,8
 1196 1296 1196 1296 1190 1278 c 6,9,-1
 946 546 l 5,10,-1
 946 80 l 5,11,-1
 1072 80 l 5,12,-1
 1072 0 l 5,13,-1
 334 0 l 5,14,-1
 334 80 l 5,15,-1
 456 80 l 5,16,-1
 456 500 l 5,17,-1
 152 1340 l 5,18,-1
 44 1340 l 5,19,-1
 44 1418 l 5,20,-1
 800 1418 l 5,21,-1
 800 1340 l 5,22,-1
 680 1340 l 5,23,-1
 902 676 l 5,24,-1
 1096 1278 l 6,25,26
 1098 1284 1098 1284 1098 1294 c 4,0,1
EndSplineSet
Fore
SplineSet
1123 1294 m 0,0,1
 1123 1280 1123 1280 1120 1270 c 2,2,-1
 926 668 l 2,3,4
 924 662 924 662 920 658 c 0,5,6
 913 651 913 651 902.5 651 c 128,-1,7
 892 651 892 651 884 658 c 0,8,9
 880 662 880 662 878 668 c 2,10,-1
 656 1332 l 2,11,12
 654 1337 654 1337 655 1341 c 0,13,14
 655 1350 655 1350 662 1358 c 0,15,16
 670 1365 670 1365 680 1365 c 2,17,-1
 775 1365 l 1,18,-1
 775 1393 l 1,19,-1
 69 1393 l 1,20,-1
 69 1365 l 1,21,-1
 152 1365 l 2,22,23
 162 1365 162 1365 170 1358 c 0,24,25
 174 1354 174 1354 176 1349 c 2,26,-1
 480 509 l 2,27,28
 481 504 481 504 481 500 c 2,29,-1
 481 80 l 2,30,31
 481 70 481 70 473.5 62.5 c 128,-1,32
 466 55 466 55 456 55 c 2,33,-1
 359 55 l 1,34,-1
 359 25 l 1,35,-1
 1047 25 l 1,36,-1
 1047 55 l 1,37,-1
 946 55 l 2,38,39
 936 55 936 55 928.5 62.5 c 128,-1,40
 921 70 921 70 921 80 c 2,41,-1
 921 546 l 2,42,43
 921 550 921 550 922 554 c 2,44,-1
 1166 1286 l 2,45,46
 1176 1317 1176 1317 1192 1332.5 c 128,-1,47
 1208 1348 1208 1348 1232.5 1355.5 c 128,-1,48
 1257 1363 1257 1363 1287 1364 c 1,49,-1
 1287 1393 l 1,50,-1
 995 1393 l 1,51,-1
 995 1365 l 1,52,53
 1033 1363 1033 1363 1062 1356 c 128,-1,54
 1091 1349 1091 1349 1107 1333 c 128,-1,55
 1123 1317 1123 1317 1123 1294 c 0,0,1
1098 1294 m 0,56,57
 1098 1340 1098 1340 970 1340 c 1,58,-1
 970 1418 l 1,59,-1
 1312 1418 l 1,60,-1
 1312 1340 l 1,61,62
 1225 1340 1225 1340 1204 1308 c 0,63,64
 1196 1296 1196 1296 1190 1278 c 2,65,-1
 946 546 l 1,66,-1
 946 80 l 1,67,-1
 1072 80 l 1,68,-1
 1072 0 l 1,69,-1
 334 0 l 1,70,-1
 334 80 l 1,71,-1
 456 80 l 1,72,-1
 456 500 l 1,73,-1
 152 1340 l 1,74,-1
 44 1340 l 1,75,-1
 44 1418 l 1,76,-1
 800 1418 l 1,77,-1
 800 1340 l 1,78,-1
 680 1340 l 1,79,-1
 902 676 l 1,80,-1
 1096 1278 l 2,81,82
 1098 1284 1098 1284 1098 1294 c 0,56,57
EndSplineSet
Validated: 1
EndChar

StartChar: Z
Encoding: 90 90 58
Width: 1270
GlyphClass: 2
Flags: W
LayerCount: 2
Back
SplineSet
102 76 m 5,0,-1
 626 1342 l 5,1,-1
 364 1342 l 6,2,3
 354 1342 354 1342 341 1318 c 132,-1,4
 328 1294 328 1294 312 1256 c 132,-1,5
 296 1218 296 1218 280 1171 c 132,-1,6
 264 1124 264 1124 250 1078 c 132,-1,7
 236 1032 236 1032 224 991 c 132,-1,8
 212 950 212 950 206 926 c 5,9,-1
 132 926 l 5,10,-1
 132 1418 l 5,11,-1
 1150 1418 l 5,12,-1
 1150 1342 l 5,13,-1
 626 76 l 5,14,-1
 894 76 l 6,15,16
 906 76 906 76 924 99 c 132,-1,17
 942 122 942 122 959 159 c 132,-1,18
 976 196 976 196 993 242 c 132,-1,19
 1010 288 1010 288 1025 334 c 132,-1,20
 1040 380 1040 380 1052 420 c 132,-1,21
 1064 460 1064 460 1072 488 c 5,22,-1
 1146 488 l 5,23,-1
 1146 0 l 5,24,-1
 102 0 l 5,25,-1
 102 76 l 5,0,-1
EndSplineSet
Fore
SplineSet
364 1367 m 2,0,-1
 626 1367 l 2,1,2
 636 1367 636 1367 643.5 1359.5 c 128,-1,3
 651 1352 651 1352 651 1345 c 128,-1,4
 651 1338 651 1338 649 1332 c 2,5,-1
 127 71 l 1,6,-1
 127 25 l 1,7,-1
 1121 25 l 1,8,-1
 1121 463 l 1,9,-1
 1091 463 l 1,10,11
 995 133 995 133 932 70 c 0,12,13
 913 51 913 51 894 51 c 2,14,-1
 626 51 l 2,15,16
 616 51 616 51 608.5 58.5 c 128,-1,17
 601 66 601 66 601 73 c 128,-1,18
 601 80 601 80 603 86 c 2,19,-1
 1125 1347 l 1,20,-1
 1125 1393 l 1,21,-1
 157 1393 l 1,22,-1
 157 951 l 1,23,-1
 187 951 l 1,24,25
 285 1303 285 1303 336 1354 c 0,26,27
 349 1367 349 1367 364 1367 c 2,0,-1
894 76 m 2,28,29
 954 76 954 76 1072 488 c 1,30,-1
 1146 488 l 1,31,-1
 1146 0 l 1,32,-1
 102 0 l 1,33,-1
 102 76 l 1,34,-1
 626 1342 l 1,35,-1
 364 1342 l 2,36,37
 327 1342 327 1342 224 991 c 0,38,39
 212 950 212 950 206 926 c 1,40,-1
 132 926 l 1,41,-1
 132 1418 l 1,42,-1
 1150 1418 l 1,43,-1
 1150 1342 l 1,44,-1
 626 76 l 1,45,-1
 894 76 l 2,28,29
EndSplineSet
Validated: 1
EndChar

StartChar: bracketleft
Encoding: 91 91 59
Width: 582
GlyphClass: 2
Flags: W
LayerCount: 2
Back
SplineSet
152 1644 m 5,0,-1
 580 1644 l 5,1,-1
 580 1574 l 5,2,-1
 464 1574 l 5,3,-1
 464 -158 l 5,4,-1
 580 -158 l 5,5,-1
 580 -228 l 5,6,-1
 152 -228 l 5,7,-1
 152 1644 l 5,0,-1
EndSplineSet
Fore
SplineSet
555 1619 m 1,0,-1
 177 1619 l 1,1,-1
 177 -203 l 1,2,-1
 555 -203 l 1,3,-1
 555 -183 l 1,4,-1
 464 -183 l 2,5,6
 454 -183 454 -183 446.5 -175.5 c 128,-1,7
 439 -168 439 -168 439 -158 c 2,8,-1
 439 1574 l 2,9,10
 439 1584 439 1584 446.5 1591.5 c 128,-1,11
 454 1599 454 1599 464 1599 c 2,12,-1
 555 1599 l 1,13,-1
 555 1619 l 1,0,-1
152 1644 m 1,14,-1
 580 1644 l 1,15,-1
 580 1574 l 1,16,-1
 464 1574 l 1,17,-1
 464 -158 l 1,18,-1
 580 -158 l 1,19,-1
 580 -228 l 1,20,-1
 152 -228 l 1,21,-1
 152 1644 l 1,14,-1
EndSplineSet
Validated: 1
EndChar

StartChar: backslash
Encoding: 92 92 60
Width: 804
GlyphClass: 2
Flags: W
LayerCount: 2
Back
SplineSet
-126 1484 m 5,0,-1
 -24 1536 l 5,1,-1
 932 -432 l 5,2,-1
 828 -484 l 5,3,-1
 -126 1484 l 5,0,-1
EndSplineSet
Fore
SplineSet
-35 1502 m 1,0,-1
 -93 1473 l 1,1,-1
 839 -450 l 1,2,-1
 899 -421 l 1,3,-1
 -35 1502 l 1,0,-1
-126 1484 m 1,4,-1
 -24 1536 l 1,5,-1
 932 -432 l 1,6,-1
 828 -484 l 1,7,-1
 -126 1484 l 1,4,-1
EndSplineSet
Validated: 1
EndChar

StartChar: bracketright
Encoding: 93 93 61
Width: 582
GlyphClass: 2
Flags: W
LayerCount: 2
Back
SplineSet
426 1644 m 5,0,-1
 426 -228 l 5,1,-1
 -2 -228 l 5,2,-1
 -2 -158 l 5,3,-1
 114 -158 l 5,4,-1
 114 1574 l 5,5,-1
 -2 1574 l 5,6,-1
 -2 1644 l 5,7,-1
 426 1644 l 5,0,-1
EndSplineSet
Fore
SplineSet
401 -203 m 1,0,-1
 401 1619 l 1,1,-1
 23 1619 l 1,2,-1
 23 1599 l 1,3,-1
 114 1599 l 2,4,5
 124 1599 124 1599 131.5 1591.5 c 128,-1,6
 139 1584 139 1584 139 1574 c 2,7,-1
 139 -158 l 2,8,9
 139 -168 139 -168 131.5 -175.5 c 128,-1,10
 124 -183 124 -183 114 -183 c 2,11,-1
 23 -183 l 1,12,-1
 23 -203 l 1,13,-1
 401 -203 l 1,0,-1
426 1644 m 1,14,-1
 426 -228 l 1,15,-1
 -2 -228 l 1,16,-1
 -2 -158 l 1,17,-1
 114 -158 l 1,18,-1
 114 1574 l 1,19,-1
 -2 1574 l 1,20,-1
 -2 1644 l 1,21,-1
 426 1644 l 1,14,-1
EndSplineSet
Validated: 1
EndChar

StartChar: asciicircum
Encoding: 94 94 62
Width: 904
GlyphClass: 2
Flags: W
LayerCount: 2
Back
SplineSet
452 1846 m 5,0,-1
 992 924 l 5,1,-1
 882 860 l 5,2,-1
 452 1600 l 5,3,-1
 22 860 l 5,4,-1
 -86 924 l 5,5,-1
 452 1846 l 5,0,-1
EndSplineSet
Fore
SplineSet
452 1625 m 128,-1,1
 466 1625 466 1625 474 1613 c 2,2,-1
 891 894 l 1,3,-1
 958 933 l 1,4,-1
 452 1796 l 1,5,-1
 -52 933 l 1,6,-1
 13 894 l 1,7,-1
 430 1613 l 2,8,0
 438 1625 438 1625 452 1625 c 128,-1,1
452 1846 m 1,9,-1
 992 924 l 1,10,-1
 882 860 l 1,11,-1
 452 1600 l 1,12,-1
 22 860 l 1,13,-1
 -86 924 l 1,14,-1
 452 1846 l 1,9,-1
EndSplineSet
Validated: 1
EndChar

StartChar: underscore
Encoding: 95 95 63
Width: 1102
GlyphClass: 2
Flags: W
LayerCount: 2
Back
SplineSet
1100 -66 m 5,0,-1
 1100 -178 l 5,1,-1
 0 -178 l 5,2,-1
 0 -66 l 5,3,-1
 1100 -66 l 5,0,-1
EndSplineSet
Fore
SplineSet
1075 -153 m 1,0,-1
 1075 -91 l 1,1,-1
 25 -91 l 1,2,-1
 25 -153 l 1,3,-1
 1075 -153 l 1,0,-1
1100 -66 m 1,4,-1
 1100 -178 l 1,5,-1
 0 -178 l 1,6,-1
 0 -66 l 1,7,-1
 1100 -66 l 1,4,-1
EndSplineSet
Validated: 1
EndChar

StartChar: grave
Encoding: 96 96 64
Width: 700
GlyphClass: 2
Flags: W
LayerCount: 2
Back
SplineSet
602 1352 m 5,0,1
 602 1352 602 1352 564 1274 c 5,2,3
 560 1278 560 1278 549 1284 c 132,-1,4
 538 1290 538 1290 520 1298 c 4,5,6
 494 1310 494 1310 461 1328 c 132,-1,7
 428 1346 428 1346 392 1364 c 132,-1,8
 356 1382 356 1382 320 1403 c 132,-1,9
 284 1424 284 1424 252 1441 c 132,-1,10
 220 1458 220 1458 196 1473 c 132,-1,11
 172 1488 172 1488 162 1496 c 4,12,13
 138 1516 138 1516 127 1546 c 132,-1,14
 116 1576 116 1576 116 1608 c 4,15,16
 116 1636 116 1636 124 1663 c 132,-1,17
 132 1690 132 1690 145 1709 c 132,-1,18
 158 1728 158 1728 175 1741 c 132,-1,19
 192 1754 192 1754 212 1754 c 4,20,21
 224 1754 224 1754 237 1749 c 132,-1,22
 250 1744 250 1744 262 1734 c 4,23,24
 272 1726 272 1726 292 1705 c 132,-1,25
 312 1684 312 1684 340 1654 c 132,-1,26
 368 1624 368 1624 398 1589 c 132,-1,27
 428 1554 428 1554 458 1519 c 132,-1,28
 488 1484 488 1484 515 1452 c 132,-1,29
 542 1420 542 1420 562 1396 c 4,30,31
 578 1376 578 1376 588 1365 c 132,-1,32
 598 1354 598 1354 602 1352 c 5,0,1
EndSplineSet
Fore
SplineSet
571 1346 m 1,0,1
 560 1358 560 1358 430 1514 c 0,2,3
 300 1672 300 1672 241 1720 c 0,4,5
 230 1730 230 1730 213.5 1729.5 c 128,-1,6
 197 1729 197 1729 184.5 1716.5 c 128,-1,7
 172 1704 172 1704 163.5 1691.5 c 128,-1,8
 155 1679 155 1679 148 1655.5 c 128,-1,9
 141 1632 141 1632 141 1606 c 0,10,11
 141 1546 141 1546 178 1515 c 0,12,13
 200 1498 200 1498 248 1472 c 128,-1,14
 296 1446 296 1446 332 1425 c 128,-1,15
 368 1404 368 1404 404 1386 c 128,-1,16
 440 1368 440 1368 472.5 1350 c 128,-1,17
 505 1332 505 1332 524.5 1323.5 c 128,-1,18
 544 1315 544 1315 554 1310 c 1,19,-1
 571 1346 l 1,0,1
602 1352 m 1,20,-1
 564 1274 l 1,21,22
 556 1282 556 1282 525 1296 c 128,-1,23
 494 1310 494 1310 461 1328 c 128,-1,24
 428 1346 428 1346 392 1364 c 128,-1,25
 356 1382 356 1382 320 1403 c 128,-1,26
 284 1424 284 1424 252 1441 c 0,27,28
 189 1475 189 1475 163 1495 c 0,29,30
 116 1534 116 1534 116 1608 c 0,31,32
 116 1696 116 1696 175 1741 c 0,33,34
 192 1754 192 1754 208 1754 c 0,35,36
 238 1754 238 1754 255 1740 c 128,-1,37
 272 1726 272 1726 292 1705 c 128,-1,38
 312 1684 312 1684 340 1654 c 128,-1,39
 368 1624 368 1624 398 1589 c 2,40,41
 398 1588 398 1588 443 1536 c 0,42,43
 512 1456 512 1456 545 1416 c 0,44,45
 595 1356 595 1356 602 1352 c 1,20,-1
EndSplineSet
Validated: 1
EndChar

StartChar: a
Encoding: 97 97 65
Width: 1316
GlyphClass: 2
Flags: W
LayerCount: 2
Back
SplineSet
90 262 m 4,0,1
 90 340 90 340 111 395 c 132,-1,2
 132 450 132 450 169 488 c 132,-1,3
 206 526 206 526 259 550 c 132,-1,4
 312 574 312 574 376 587 c 132,-1,5
 440 600 440 600 514 604 c 132,-1,6
 588 608 588 608 668 608 c 5,7,-1
 668 666 l 6,8,9
 668 792 668 792 655 869 c 132,-1,10
 642 946 642 946 617 987 c 132,-1,11
 592 1028 592 1028 555 1041 c 132,-1,12
 518 1054 518 1054 468 1054 c 4,13,14
 442 1054 442 1054 414 1048 c 132,-1,15
 386 1042 386 1042 360 1034 c 5,16,17
 392 1030 392 1030 420 1012 c 132,-1,18
 448 994 448 994 469 966 c 132,-1,19
 490 938 490 938 501 905 c 132,-1,20
 512 872 512 872 512 840 c 4,21,22
 512 796 512 796 497 759 c 132,-1,23
 482 722 482 722 455 695 c 132,-1,24
 428 668 428 668 393 652 c 132,-1,25
 358 636 358 636 320 636 c 260,26,27
 280 636 280 636 245 652 c 132,-1,28
 210 668 210 668 185 695 c 132,-1,29
 160 722 160 722 145 759 c 132,-1,30
 130 796 130 796 130 840 c 4,31,32
 130 896 130 896 151 941 c 132,-1,33
 172 986 172 986 210 1020 c 132,-1,34
 248 1054 248 1054 298 1079 c 132,-1,35
 348 1104 348 1104 406 1120 c 132,-1,36
 464 1136 464 1136 527 1143 c 132,-1,37
 590 1150 590 1150 654 1150 c 4,38,39
 764 1150 764 1150 846 1129 c 132,-1,40
 928 1108 928 1108 982 1054 c 132,-1,41
 1036 1000 1036 1000 1063 906 c 132,-1,42
 1090 812 1090 812 1090 666 c 6,43,-1
 1090 246 l 6,44,45
 1090 170 1090 170 1101 130 c 132,-1,46
 1112 90 1112 90 1142 90 c 4,47,48
 1156 90 1156 90 1166 103 c 132,-1,49
 1176 116 1176 116 1182 139 c 132,-1,50
 1188 162 1188 162 1190 191 c 132,-1,51
 1192 220 1192 220 1192 250 c 6,52,-1
 1192 348 l 5,53,-1
 1254 348 l 5,54,-1
 1254 250 l 6,55,56
 1254 170 1254 170 1239 115 c 132,-1,57
 1224 60 1224 60 1189 26 c 132,-1,58
 1154 -8 1154 -8 1093 -23 c 132,-1,59
 1032 -38 1032 -38 942 -38 c 4,60,61
 896 -38 896 -38 856 -31 c 132,-1,62
 816 -24 816 -24 783 -7 c 132,-1,63
 750 10 750 10 726 38 c 132,-1,64
 702 66 702 66 688 108 c 5,65,66
 668 62 668 62 632 33 c 132,-1,67
 596 4 596 4 554 -11 c 132,-1,68
 512 -26 512 -26 470 -32 c 132,-1,69
 428 -38 428 -38 394 -38 c 4,70,71
 310 -38 310 -38 252 -14 c 132,-1,72
 194 10 194 10 158 51 c 132,-1,73
 122 92 122 92 106 147 c 132,-1,74
 90 202 90 202 90 262 c 4,0,1
500 272 m 4,75,76
 500 198 500 198 519 153 c 132,-1,77
 538 108 538 108 582 108 c 4,78,79
 618 108 618 108 643 145 c 132,-1,80
 668 182 668 182 668 246 c 6,81,-1
 668 516 l 5,82,83
 616 516 616 516 583 504 c 132,-1,84
 550 492 550 492 531 463 c 132,-1,85
 512 434 512 434 506 387 c 132,-1,86
 500 340 500 340 500 272 c 4,75,76
EndSplineSet
Fore
SplineSet
1217 250 m 2,0,1
 1217 65 1217 65 1140 65 c 0,2,3
 1093 65 1093 65 1077 123 c 0,4,5
 1065 166 1065 166 1065 246 c 2,6,-1
 1065 666 l 2,7,8
 1064 937 1064 937 964 1036 c 0,9,10
 874 1125 874 1125 660 1125 c 0,11,12
 346 1125 346 1125 217 992 c 0,13,14
 155 930 155 930 155 840 c 0,15,16
 155 801 155 801 168 768 c 0,17,18
 195 702 195 702 255 675 c 0,19,20
 285 661 285 661 319 661 c 0,21,22
 354 661 354 661 384 675 c 0,23,24
 414 688 414 688 438 712 c 0,25,26
 487 761 487 761 487 837 c 0,27,28
 487 914 487 914 443 959 c 128,-1,29
 399 1004 399 1004 357 1009 c 0,30,31
 349 1010 349 1010 342 1017 c 128,-1,32
 335 1024 335 1024 335 1034 c 0,33,34
 335 1053 335 1053 353 1058 c 0,35,36
 422 1079 422 1079 472 1079 c 128,-1,37
 522 1079 522 1079 565 1064 c 128,-1,38
 608 1049 608 1049 636 1002 c 0,39,40
 692 909 692 909 693 666 c 2,41,-1
 693 608 l 2,42,43
 693 598 693 598 685.5 590.5 c 128,-1,44
 678 583 678 583 633.5 583 c 128,-1,45
 589 583 589 583 477.5 577 c 128,-1,46
 366 571 366 571 293 538 c 0,47,48
 220 504 220 504 187 470 c 0,49,50
 115 395 115 395 115 262 c 0,51,52
 115 68 115 68 262 9 c 0,53,54
 314 -13 314 -13 370 -13 c 0,55,56
 378 -13 378 -13 386 -13 c 0,57,58
 432 -13 432 -13 466 -8 c 0,59,60
 619 13 619 13 665 118 c 0,61,62
 673 133 673 133 685 133 c 0,63,64
 706 133 706 133 712 116 c 0,65,66
 735 46 735 46 792 16.5 c 128,-1,67
 849 -13 849 -13 939 -13 c 0,68,69
 1030 -13 1030 -13 1086 1 c 0,70,71
 1142 14 1142 14 1172 44 c 0,72,73
 1229 100 1229 100 1229 250 c 2,74,-1
 1229 323 l 1,75,-1
 1217 323 l 1,76,-1
 1217 250 l 2,0,1
582 83 m 0,77,78
 476 84 476 84 475 268 c 0,79,80
 475 342 475 342 482.5 401.5 c 128,-1,81
 490 461 490 461 518.5 489.5 c 128,-1,82
 547 518 547 518 579 530 c 0,83,84
 608 541 608 541 639 541 c 0,85,86
 642 541 642 541 644 541 c 0,87,88
 692 541 692 541 693 516 c 2,89,-1
 693 246 l 2,90,91
 693 157 693 157 647 111 c 0,92,93
 620 83 620 83 582 83 c 0,77,78
582 108 m 0,94,95
 618 108 618 108 643 145 c 128,-1,96
 668 182 668 182 668 246 c 2,97,-1
 668 516 l 1,98,99
 566 516 566 516 531 463 c 0,100,101
 500 416 500 416 500 262 c 128,-1,102
 500 108 500 108 582 108 c 0,94,95
688 108 m 1,103,104
 638 -8 638 -8 470 -32 c 0,105,106
 428 -38 428 -38 369 -38 c 128,-1,107
 310 -38 310 -38 252 -14 c 128,-1,108
 194 10 194 10 158 51 c 0,109,110
 90 128 90 128 90 262 c 0,111,112
 90 473 90 473 259 550 c 0,113,114
 360 596 360 596 474 602 c 128,-1,115
 588 608 588 608 668 608 c 1,116,-1
 668 666 l 2,117,118
 668 903 668 903 617 987 c 0,119,120
 592 1028 592 1028 555 1041 c 128,-1,121
 518 1054 518 1054 480 1054 c 0,122,123
 425 1054 425 1054 360 1034 c 1,124,125
 424 1026 424 1026 469 966 c 0,126,127
 512 909 512 909 512 852.5 c 128,-1,128
 512 796 512 796 497 759 c 128,-1,129
 482 722 482 722 455 695 c 0,130,131
 396 636 396 636 320 636 c 0,132,133
 240 636 240 636 185 695 c 128,-1,134
 130 754 130 754 130 825 c 128,-1,135
 130 896 130 896 151 941 c 128,-1,136
 172 986 172 986 210 1020 c 128,-1,137
 248 1054 248 1054 298 1079 c 128,-1,138
 348 1104 348 1104 406 1120 c 0,139,140
 515 1150 515 1150 639.5 1150 c 128,-1,141
 764 1150 764 1150 846 1129 c 128,-1,142
 928 1108 928 1108 982 1054 c 0,143,144
 1090 946 1090 946 1090 666 c 2,145,-1
 1090 246 l 2,146,147
 1090 170 1090 170 1101 130 c 128,-1,148
 1112 90 1112 90 1142 90 c 0,149,150
 1192 90 1192 90 1192 250 c 2,151,-1
 1192 348 l 1,152,-1
 1254 348 l 1,153,-1
 1254 250 l 2,154,155
 1254 89 1254 89 1189 26 c 0,156,157
 1123 -38 1123 -38 930 -38 c 128,-1,158
 737 -38 737 -38 688 108 c 1,103,104
EndSplineSet
Validated: 1
EndChar

StartChar: b
Encoding: 98 98 66
Width: 1306
GlyphClass: 2
Flags: W
LayerCount: 2
Back
SplineSet
148 1346 m 5,0,-1
 22 1346 l 5,1,-1
 22 1418 l 5,2,-1
 570 1418 l 5,3,-1
 570 1054 l 5,4,5
 606 1098 606 1098 659 1124 c 132,-1,6
 712 1150 712 1150 790 1150 c 4,7,8
 904 1150 904 1150 990 1102 c 132,-1,9
 1076 1054 1076 1054 1131 972 c 132,-1,10
 1186 890 1186 890 1213 783 c 132,-1,11
 1240 676 1240 676 1240 556 c 4,12,13
 1240 434 1240 434 1211 326 c 132,-1,14
 1182 218 1182 218 1121 137 c 132,-1,15
 1060 56 1060 56 970 9 c 132,-1,16
 880 -38 880 -38 756 -38 c 4,17,18
 678 -38 678 -38 620 -20 c 132,-1,19
 562 -2 562 -2 515 27 c 132,-1,20
 468 56 468 56 435 93 c 132,-1,21
 402 130 402 130 378 166 c 5,22,-1
 148 -38 l 5,23,-1
 148 1346 l 5,0,-1
562 362 m 6,24,25
 562 284 562 284 572 227 c 132,-1,26
 582 170 582 170 597 132 c 132,-1,27
 612 94 612 94 635 76 c 132,-1,28
 658 58 658 58 684 58 c 4,29,30
 718 58 718 58 741 85 c 132,-1,31
 764 112 764 112 778 171 c 132,-1,32
 792 230 792 230 798 325 c 132,-1,33
 804 420 804 420 804 556 c 132,-1,34
 804 692 804 692 798 784 c 132,-1,35
 792 876 792 876 779 934 c 132,-1,36
 766 992 766 992 744 1017 c 132,-1,37
 722 1042 722 1042 692 1042 c 4,38,39
 660 1042 660 1042 635 1019 c 132,-1,40
 610 996 610 996 594 960 c 132,-1,41
 578 924 578 924 570 881 c 132,-1,42
 562 838 562 838 562 798 c 6,43,-1
 562 362 l 6,24,25
EndSplineSet
Fore
SplineSet
148 1371 m 2,0,1
 158 1371 158 1371 165.5 1363.5 c 128,-1,2
 173 1356 173 1356 173 1346 c 2,3,-1
 173 18 l 1,4,-1
 361 185 l 2,5,6
 368 191 368 191 379.5 191 c 128,-1,7
 391 191 391 191 399 180 c 0,8,9
 455 95 455 95 513 58 c 0,10,11
 625 -13 625 -13 749.5 -13 c 128,-1,12
 874 -13 874 -13 958.5 31 c 128,-1,13
 1043 75 1043 75 1101 152 c 128,-1,14
 1159 229 1159 229 1187 333 c 128,-1,15
 1215 437 1215 437 1215 555 c 0,16,17
 1215 803 1215 803 1110 958 c 0,18,19
 997 1125 997 1125 790 1125 c 0,20,21
 661 1125 661 1125 589 1038 c 0,22,23
 581 1029 581 1029 570.5 1029 c 128,-1,24
 560 1029 560 1029 552.5 1036.5 c 128,-1,25
 545 1044 545 1044 545 1054 c 2,26,-1
 545 1393 l 1,27,-1
 47 1393 l 1,28,-1
 47 1371 l 1,29,-1
 148 1371 l 2,0,1
537 362 m 2,30,-1
 537 798 l 2,31,32
 537 893 537 893 563 952 c 0,33,34
 614 1067 614 1067 690 1067 c 0,35,36
 775 1067 775 1067 803 942 c 0,37,38
 829 827 829 827 829 623 c 0,39,40
 829 276 829 276 807 184.5 c 128,-1,41
 785 93 785 93 755 63 c 128,-1,42
 725 33 725 33 687 33 c 0,43,44
 610 33 610 33 573.5 124.5 c 128,-1,45
 537 216 537 216 537 362 c 2,30,-1
562 362 m 2,46,47
 562 221 562 221 597 132 c 0,48,49
 626 58 626 58 684 58 c 0,50,51
 751 58 751 58 778 171 c 0,52,53
 804 281 804 281 804 486.5 c 128,-1,54
 804 692 804 692 798 784 c 128,-1,55
 792 876 792 876 779 934 c 0,56,57
 755 1042 755 1042 692 1042 c 0,58,59
 630 1042 630 1042 594 960 c 0,60,61
 562 888 562 888 562 798 c 2,62,-1
 562 362 l 2,46,47
378 166 m 1,63,-1
 148 -38 l 1,64,-1
 148 1346 l 1,65,-1
 22 1346 l 1,66,-1
 22 1418 l 1,67,-1
 570 1418 l 1,68,-1
 570 1054 l 1,69,70
 649 1150 649 1150 776.5 1150 c 128,-1,71
 904 1150 904 1150 990 1102 c 128,-1,72
 1076 1054 1076 1054 1131 972 c 0,73,74
 1240 809 1240 809 1240 556 c 0,75,76
 1240 295 1240 295 1121 137 c 0,77,78
 989 -38 989 -38 751.5 -38 c 128,-1,79
 514 -38 514 -38 378 166 c 1,63,-1
EndSplineSet
Validated: 1
EndChar

StartChar: c
Encoding: 99 99 67
Width: 1154
GlyphClass: 2
Flags: W
LayerCount: 2
Back
SplineSet
88 568 m 4,0,1
 88 700 88 700 126 807 c 132,-1,2
 164 914 164 914 230 991 c 132,-1,3
 296 1068 296 1068 387 1109 c 132,-1,4
 478 1150 478 1150 586 1150 c 4,5,6
 722 1150 722 1150 818 1120 c 132,-1,7
 914 1090 914 1090 975 1041 c 132,-1,8
 1036 992 1036 992 1066 931 c 132,-1,9
 1096 870 1096 870 1096 812 c 4,10,11
 1096 768 1096 768 1080 728 c 132,-1,12
 1064 688 1064 688 1038 659 c 132,-1,13
 1012 630 1012 630 976 613 c 132,-1,14
 940 596 940 596 900 596 c 260,15,16
 860 596 860 596 823 612 c 132,-1,17
 786 628 786 628 759 657 c 132,-1,18
 732 686 732 686 716 724 c 132,-1,19
 700 762 700 762 700 806 c 4,20,21
 700 846 700 846 715 883 c 132,-1,22
 730 920 730 920 754 948 c 132,-1,23
 778 976 778 976 811 994 c 132,-1,24
 844 1012 844 1012 882 1016 c 5,25,26
 842 1036 842 1036 803 1047 c 132,-1,27
 764 1058 764 1058 730 1058 c 4,28,29
 674 1058 674 1058 635 1038 c 132,-1,30
 596 1018 596 1018 570 963 c 132,-1,31
 544 908 544 908 531 809 c 132,-1,32
 518 710 518 710 518 556 c 132,-1,34
 518 402 518 402 527 306 c 132,-1,35
 536 210 536 210 558 156 c 132,-1,36
 580 102 580 102 613 82 c 132,-1,37
 646 62 646 62 692 62 c 4,38,39
 752 62 752 62 804 83 c 132,-1,40
 856 104 856 104 898 142 c 132,-1,41
 940 180 940 180 968 235 c 132,-1,42
 996 290 996 290 1006 358 c 5,43,-1
 1072 358 l 5,44,45
 1066 266 1066 266 1032 192 c 132,-1,46
 998 118 998 118 943 67 c 132,-1,47
 888 16 888 16 814 -11 c 132,-1,48
 740 -38 740 -38 652 -38 c 4,49,50
 514 -38 514 -38 408 3 c 132,-1,51
 302 44 302 44 231 121 c 132,-1,52
 160 198 160 198 124 311 c 132,-1,53
 88 424 88 424 88 568 c 4,0,1
EndSplineSet
Fore
SplineSet
417 26 m 0,0,1
 519 -13 519 -13 627.5 -13 c 128,-1,2
 736 -13 736 -13 805 12 c 0,3,4
 945 63 945 63 1009 202 c 0,5,6
 1036 261 1036 261 1045 333 c 1,7,-1
 1027 333 l 1,8,9
 1002 206 1002 206 914 124 c 0,10,11
 819 37 819 37 692 37 c 0,12,13
 691 37 691 37 690 37 c 0,14,15
 580 37 580 37 536 144 c 0,16,17
 494 246 494 246 493 556 c 0,18,19
 493 856 493 856 547 974 c 0,20,21
 577 1037 577 1037 622.5 1060 c 128,-1,22
 668 1083 668 1083 736 1083 c 128,-1,23
 804 1083 804 1083 893 1038 c 0,24,25
 907 1030 907 1030 907 1018 c 0,26,27
 907 993 907 993 885 991 c 0,28,29
 782 982 782 982 738 874 c 0,30,31
 724 842 724 842 724 807 c 0,32,33
 724 806 724 806 724 804 c 0,34,35
 724 767 724 767 739.5 731.5 c 128,-1,36
 755 696 755 696 779.5 672 c 128,-1,37
 804 648 804 648 834.5 634.5 c 128,-1,38
 865 621 865 621 899.5 621 c 128,-1,39
 934 621 934 621 965 636 c 128,-1,40
 996 651 996 651 1019 676 c 0,41,42
 1071 733 1071 733 1071 798 c 0,43,44
 1071 931 1071 931 959 1022 c 0,45,46
 831 1125 831 1125 586 1125 c 0,47,48
 378 1125 378 1125 248 974 c 0,49,50
 113 817 113 817 113 566 c 0,51,52
 113 145 113 145 417 26 c 0,0,1
882 1016 m 1,53,54
 798 1058 798 1058 736 1058 c 128,-1,55
 674 1058 674 1058 635 1038 c 128,-1,56
 596 1018 596 1018 570 963 c 128,-1,57
 544 908 544 908 531 809 c 128,-1,58
 518 710 518 710 518 556 c 128,-1,59
 518 402 518 402 527 306 c 128,-1,60
 536 210 536 210 558 156 c 128,-1,61
 580 102 580 102 613 82 c 128,-1,62
 646 62 646 62 699 62 c 128,-1,63
 752 62 752 62 804 83 c 128,-1,64
 856 104 856 104 898 142 c 0,65,66
 986 222 986 222 1006 358 c 1,67,-1
 1072 358 l 1,68,69
 1060 176 1060 176 943 67 c 0,70,71
 830 -38 830 -38 652 -38 c 0,72,73
 378 -38 378 -38 231 121 c 0,74,75
 88 276 88 276 88 568 c 0,76,77
 88 825 88 825 230 991 c 0,78,79
 366 1150 366 1150 586 1150 c 0,80,81
 839 1150 839 1150 975 1041 c 0,82,83
 1096 944 1096 944 1096 812 c 0,84,85
 1096 724 1096 724 1038 659 c 0,86,87
 982 596 982 596 900 596 c 0,88,89
 816 596 816 596 759 657 c 0,90,91
 700 720 700 720 700 806 c 0,92,93
 700 885 700 885 754 948 c 0,94,95
 805 1008 805 1008 882 1016 c 1,53,54
EndSplineSet
Validated: 1
EndChar

StartChar: d
Encoding: 100 100 68
Width: 1378
GlyphClass: 2
Flags: W
LayerCount: 2
Back
SplineSet
86 556 m 260,0,1
 86 674 86 674 114 782 c 132,-1,2
 142 890 142 890 198 972 c 132,-1,3
 254 1054 254 1054 338 1102 c 132,-1,4
 422 1150 422 1150 536 1150 c 4,5,6
 614 1150 614 1150 668 1123 c 132,-1,7
 722 1096 722 1096 758 1054 c 5,8,-1
 758 1344 l 5,9,-1
 634 1344 l 5,10,-1
 634 1416 l 5,11,-1
 1182 1416 l 5,12,-1
 1182 72 l 5,13,-1
 1304 72 l 5,14,-1
 1304 0 l 5,15,-1
 758 0 l 5,16,-1
 758 80 l 5,17,18
 730 24 730 24 677 -7 c 132,-1,19
 624 -38 624 -38 536 -38 c 4,20,21
 422 -38 422 -38 338 10 c 132,-1,22
 254 58 254 58 198 140 c 132,-1,23
 142 222 142 222 114 330 c 132,-1,24
 86 438 86 438 86 556 c 260,0,1
644 78 m 4,25,26
 670 78 670 78 692 93 c 132,-1,27
 714 108 714 108 730 142 c 132,-1,28
 746 176 746 176 756 230 c 132,-1,29
 766 284 766 284 766 362 c 6,30,-1
 766 798 l 6,31,32
 766 836 766 836 758 880 c 132,-1,33
 750 924 750 924 733 960 c 132,-1,34
 716 996 716 996 692 1019 c 132,-1,35
 668 1042 668 1042 634 1042 c 4,36,37
 604 1042 604 1042 584 1017 c 132,-1,38
 564 992 564 992 550 934 c 132,-1,39
 536 876 536 876 529 783 c 132,-1,40
 522 690 522 690 522 556 c 4,41,42
 522 420 522 420 528 328 c 132,-1,43
 534 236 534 236 549 180 c 132,-1,44
 564 124 564 124 587 101 c 132,-1,45
 610 78 610 78 644 78 c 4,25,26
EndSplineSet
Fore
SplineSet
536 -13 m 0,0,1
 683 -13 683 -13 736 91 c 0,2,3
 743 105 743 105 755.5 105 c 128,-1,4
 768 105 768 105 775.5 97.5 c 128,-1,5
 783 90 783 90 783 80 c 2,6,-1
 783 25 l 1,7,-1
 1279 25 l 1,8,-1
 1279 47 l 1,9,-1
 1182 47 l 2,10,11
 1172 47 1172 47 1164.5 54.5 c 128,-1,12
 1157 62 1157 62 1157 72 c 2,13,-1
 1157 1391 l 1,14,-1
 659 1391 l 1,15,-1
 659 1369 l 1,16,-1
 758 1369 l 2,17,18
 768 1369 768 1369 775.5 1361.5 c 128,-1,19
 783 1354 783 1354 783 1344 c 2,20,-1
 783 1054 l 2,21,22
 783 1044 783 1044 775.5 1036.5 c 128,-1,23
 768 1029 768 1029 757 1029 c 128,-1,24
 746 1029 746 1029 726.5 1052.5 c 128,-1,25
 707 1076 707 1076 657.5 1100.5 c 128,-1,26
 608 1125 608 1125 518.5 1125 c 128,-1,27
 429 1125 429 1125 350 1080 c 128,-1,28
 271 1035 271 1035 218 957 c 0,29,30
 111 800 111 800 111 556 c 128,-1,31
 111 312 111 312 222.5 149.5 c 128,-1,32
 334 -13 334 -13 536 -13 c 0,0,1
791 362 m 2,33,34
 791 53 791 53 644 53 c 0,35,36
 558 54 558 54 526 172 c 0,37,38
 498 276 498 276 498 548 c 0,39,40
 498 554 498 554 497 560 c 0,41,42
 497 822 497 822 520 916 c 0,43,44
 543 1012 543 1012 570.5 1039.5 c 128,-1,45
 598 1067 598 1067 638.5 1067 c 128,-1,46
 679 1067 679 1067 708.5 1037.5 c 128,-1,47
 738 1008 738 1008 756 970 c 0,48,49
 791 896 791 896 791 798 c 2,50,-1
 791 362 l 2,33,34
587 101 m 128,-1,52
 610 78 610 78 640 78 c 128,-1,53
 670 78 670 78 692 93 c 128,-1,54
 714 108 714 108 730 142 c 0,55,56
 766 218 766 218 766 362 c 2,57,-1
 766 798 l 2,58,59
 766 890 766 890 741 943 c 128,-1,60
 716 996 716 996 692 1019 c 128,-1,61
 668 1042 668 1042 636 1042 c 128,-1,62
 604 1042 604 1042 584 1017 c 128,-1,63
 564 992 564 992 550 934 c 0,64,65
 522 818 522 818 522 619 c 128,-1,66
 522 420 522 420 528 328 c 128,-1,67
 534 236 534 236 549 180 c 128,-1,51
 564 124 564 124 587 101 c 128,-1,52
758 80 m 1,68,69
 699 -38 699 -38 536 -38 c 0,70,71
 320 -38 320 -38 198 140 c 0,72,73
 86 304 86 304 86 556 c 128,-1,74
 86 808 86 808 198 972 c 0,75,76
 320 1150 320 1150 536 1150 c 0,77,78
 676 1150 676 1150 758 1054 c 1,79,-1
 758 1344 l 1,80,-1
 634 1344 l 1,81,-1
 634 1416 l 1,82,-1
 1182 1416 l 1,83,-1
 1182 72 l 1,84,-1
 1304 72 l 1,85,-1
 1304 0 l 1,86,-1
 758 0 l 1,87,-1
 758 80 l 1,68,69
EndSplineSet
Validated: 1
EndChar

StartChar: e
Encoding: 101 101 69
Width: 1152
GlyphClass: 2
Flags: W
LayerCount: 2
Back
SplineSet
88 568 m 4,0,1
 88 702 88 702 127 810 c 132,-1,2
 166 918 166 918 236 994 c 132,-1,3
 306 1070 306 1070 400 1110 c 132,-1,4
 494 1150 494 1150 604 1150 c 4,5,6
 690 1150 690 1150 760 1127 c 132,-1,7
 830 1104 830 1104 883 1062 c 132,-1,8
 936 1020 936 1020 975 963 c 132,-1,9
 1014 906 1014 906 1039 840 c 132,-1,10
 1064 774 1064 774 1076 701 c 132,-1,11
 1088 628 1088 628 1088 556 c 5,12,-1
 518 556 l 5,13,14
 518 402 518 402 528 306 c 132,-1,15
 538 210 538 210 559 156 c 132,-1,16
 580 102 580 102 613 82 c 132,-1,17
 646 62 646 62 692 62 c 4,18,19
 752 62 752 62 804 83 c 132,-1,20
 856 104 856 104 898 142 c 132,-1,21
 940 180 940 180 968 235 c 132,-1,22
 996 290 996 290 1006 358 c 5,23,-1
 1072 358 l 5,24,25
 1066 266 1066 266 1032 192 c 132,-1,26
 998 118 998 118 943 67 c 132,-1,27
 888 16 888 16 814 -11 c 132,-1,28
 740 -38 740 -38 652 -38 c 4,29,30
 514 -38 514 -38 409 3 c 132,-1,31
 304 44 304 44 233 121 c 132,-1,32
 162 198 162 198 125 311 c 132,-1,33
 88 424 88 424 88 568 c 4,0,1
718 658 m 5,34,35
 716 782 716 782 709 865 c 132,-1,36
 702 948 702 948 691 998 c 132,-1,37
 680 1048 680 1048 662 1069 c 132,-1,38
 644 1090 644 1090 618 1090 c 260,39,40
 594 1090 594 1090 576 1069 c 132,-1,41
 558 1048 558 1048 545 998 c 132,-1,42
 532 948 532 948 526 865 c 132,-1,43
 520 782 520 782 518 658 c 5,44,-1
 718 658 l 5,34,35
EndSplineSet
Fore
SplineSet
88 563 m 0,0,1
 88 702 88 702 127 810 c 128,-1,2
 166 918 166 918 236 994 c 0,3,4
 380 1150 380 1150 604 1150 c 0,5,6
 847 1150 847 1150 975 963 c 0,7,8
 1088 798 1088 798 1088 556 c 1,9,-1
 518 556 l 1,10,11
 518 261 518 261 559 156 c 0,12,13
 580 102 580 102 613 82 c 128,-1,14
 646 62 646 62 699 62 c 128,-1,15
 752 62 752 62 804 83 c 128,-1,16
 856 104 856 104 898 142 c 0,17,18
 986 222 986 222 1006 358 c 1,19,-1
 1072 358 l 1,20,21
 1060 176 1060 176 943 67 c 0,22,23
 830 -38 830 -38 652 -38 c 0,24,25
 380 -38 380 -38 233 121 c 0,26,27
 88 278 88 278 88 563 c 0,0,1
718 658 m 1,28,29
 712 1010 712 1010 662 1069 c 0,30,31
 644 1090 644 1090 619 1090 c 128,-1,32
 594 1090 594 1090 576 1069 c 128,-1,33
 558 1048 558 1048 545 998 c 0,34,35
 522 910 522 910 518 658 c 1,36,-1
 718 658 l 1,28,29
718 633 m 2,37,-1
 518 633 l 2,38,39
 508 633 508 633 500.5 640.5 c 128,-1,40
 493 648 493 648 493 658 c 0,41,42
 495 783 495 783 501 868 c 0,43,44
 514 1043 514 1043 562 1091 c 0,45,46
 586 1115 586 1115 621 1115 c 0,47,48
 690 1115 690 1115 714.5 1005.5 c 128,-1,49
 739 896 739 896 743 658 c 0,50,51
 743 648 743 648 735.5 640.5 c 128,-1,52
 728 633 728 633 718 633 c 2,37,-1
268 991 m 0,53,54
 113 836 113 836 113 562 c 0,55,56
 113 146 113 146 418 26 c 0,57,58
 519 -13 519 -13 627.5 -13 c 128,-1,59
 736 -13 736 -13 805 12 c 0,60,61
 945 63 945 63 1009 202 c 0,62,63
 1036 261 1036 261 1045 333 c 1,64,-1
 1027 333 l 1,65,66
 1002 206 1002 206 914 124 c 0,67,68
 819 37 819 37 692 37 c 0,69,70
 691 37 691 37 690 37 c 0,71,72
 578 37 578 37 536 144 c 0,73,74
 493 252 493 252 493 543 c 0,75,76
 493 550 493 550 493 556 c 0,77,78
 493 566 493 566 500.5 573.5 c 128,-1,79
 508 581 508 581 518 581 c 2,80,-1
 1063 581 l 1,81,82
 1055 802 1055 802 954 949 c 0,83,84
 833 1125 833 1125 617.5 1125 c 128,-1,85
 402 1125 402 1125 268 991 c 0,53,54
EndSplineSet
Validated: 1
EndChar

StartChar: f
Encoding: 102 102 70
Width: 966
GlyphClass: 2
Flags: W
LayerCount: 2
Back
SplineSet
82 72 m 5,0,-1
 206 72 l 5,1,-1
 206 856 l 5,2,-1
 82 856 l 5,3,-1
 82 928 l 5,4,-1
 206 928 l 5,5,-1
 206 1008 l 6,6,7
 206 1246 206 1246 302 1353 c 132,-1,8
 398 1460 398 1460 584 1460 c 4,9,10
 610 1460 610 1460 646 1455 c 132,-1,11
 682 1450 682 1450 719 1438 c 132,-1,12
 756 1426 756 1426 792 1406 c 132,-1,13
 828 1386 828 1386 856 1357 c 132,-1,14
 884 1328 884 1328 903 1287 c 132,-1,15
 922 1246 922 1246 922 1194 c 4,16,17
 922 1156 922 1156 908 1121 c 132,-1,18
 894 1086 894 1086 872 1060 c 132,-1,19
 850 1034 850 1034 818 1020 c 132,-1,20
 786 1006 786 1006 750 1006 c 132,-1,21
 714 1006 714 1006 683 1020 c 132,-1,22
 652 1034 652 1034 628 1060 c 132,-1,23
 604 1086 604 1086 592 1121 c 132,-1,24
 580 1156 580 1156 580 1194 c 4,25,26
 580 1228 580 1228 590 1258 c 132,-1,27
 600 1288 600 1288 617 1313 c 132,-1,28
 634 1338 634 1338 659 1355 c 132,-1,29
 684 1372 684 1372 714 1378 c 5,30,31
 680 1390 680 1390 648 1390 c 4,32,33
 620 1390 620 1390 596 1380 c 132,-1,34
 572 1370 572 1370 553 1347 c 132,-1,35
 534 1324 534 1324 523 1285 c 132,-1,36
 512 1246 512 1246 512 1190 c 4,37,38
 512 1154 512 1154 521 1118 c 132,-1,39
 530 1082 530 1082 543 1048 c 132,-1,40
 556 1014 556 1014 572 983 c 132,-1,41
 588 952 588 952 602 928 c 5,42,-1
 768 928 l 5,43,-1
 768 856 l 5,44,-1
 628 856 l 5,45,-1
 628 72 l 5,46,-1
 752 72 l 5,47,-1
 752 0 l 5,48,-1
 82 0 l 5,49,-1
 82 72 l 5,0,-1
EndSplineSet
Fore
SplineSet
107 881 m 1,0,-1
 206 881 l 2,1,2
 216 881 216 881 223.5 873.5 c 128,-1,3
 231 866 231 866 231 856 c 2,4,-1
 231 72 l 2,5,6
 231 62 231 62 223.5 54.5 c 128,-1,7
 216 47 216 47 206 47 c 2,8,-1
 107 47 l 1,9,-1
 107 25 l 1,10,-1
 727 25 l 1,11,-1
 727 47 l 1,12,-1
 628 47 l 2,13,14
 618 47 618 47 610.5 54.5 c 128,-1,15
 603 62 603 62 603 72 c 2,16,-1
 603 856 l 2,17,18
 603 866 603 866 610.5 873.5 c 128,-1,19
 618 881 618 881 628 881 c 2,20,-1
 743 881 l 1,21,-1
 743 903 l 1,22,-1
 602 903 l 2,23,24
 592 903 592 903 585 909.5 c 128,-1,25
 578 916 578 916 556 960 c 0,26,27
 534 1004 534 1004 520 1039 c 0,28,29
 488 1123 488 1123 487 1190 c 0,30,31
 487 1317 487 1317 536 1366 c 0,32,33
 584 1415 584 1415 634 1415 c 0,34,35
 738 1414 738 1414 739 1378 c 0,36,37
 739 1358 739 1358 719 1353 c 0,38,39
 643 1337 643 1337 614 1250 c 0,40,41
 605 1224 605 1224 605 1190 c 0,42,43
 605 1082 605 1082 694 1042 c 0,44,45
 718 1031 718 1031 749.5 1031 c 128,-1,46
 781 1031 781 1031 807.5 1043 c 128,-1,47
 834 1055 834 1055 853 1077 c 0,48,49
 897 1128 897 1128 897 1184 c 0,50,51
 897 1280 897 1280 842.5 1334.5 c 128,-1,52
 788 1389 788 1389 732 1407 c 0,53,54
 645 1435 645 1435 584 1435 c 0,55,56
 409 1435 409 1435 320 1335.5 c 128,-1,57
 231 1236 231 1236 231 1008 c 2,58,-1
 231 928 l 2,59,60
 231 918 231 918 223.5 910.5 c 128,-1,61
 216 903 216 903 206 903 c 2,62,-1
 107 903 l 1,63,-1
 107 881 l 1,0,-1
602 928 m 1,64,-1
 768 928 l 1,65,-1
 768 856 l 1,66,-1
 628 856 l 1,67,-1
 628 72 l 1,68,-1
 752 72 l 1,69,-1
 752 0 l 1,70,-1
 82 0 l 1,71,-1
 82 72 l 1,72,-1
 206 72 l 1,73,-1
 206 856 l 1,74,-1
 82 856 l 1,75,-1
 82 928 l 1,76,-1
 206 928 l 1,77,-1
 206 1008 l 2,78,79
 206 1246 206 1246 302 1353 c 128,-1,80
 398 1460 398 1460 584 1460 c 0,81,82
 695 1460 695 1460 792 1406 c 0,83,84
 867 1364 867 1364 903 1287 c 0,85,86
 922 1246 922 1246 922 1201 c 128,-1,87
 922 1156 922 1156 908 1121 c 128,-1,88
 894 1086 894 1086 872 1060 c 128,-1,89
 850 1034 850 1034 818 1020 c 128,-1,90
 786 1006 786 1006 750 1006 c 128,-1,91
 714 1006 714 1006 683 1020 c 128,-1,92
 652 1034 652 1034 628 1060 c 0,93,94
 580 1112 580 1112 580 1194 c 0,95,96
 580 1259 580 1259 607 1298 c 0,97,98
 653 1365 653 1365 714 1378 c 1,99,100
 680 1390 680 1390 650 1390 c 128,-1,101
 620 1390 620 1390 596 1380 c 128,-1,102
 572 1370 572 1370 553 1347 c 0,103,104
 512 1297 512 1297 512 1189.5 c 128,-1,105
 512 1082 512 1082 602 928 c 1,64,-1
EndSplineSet
Validated: 1
EndChar

